M48
; DRILL file {KiCad 9.0.2} date 2025-06-27T14:32:03+0200
; FORMAT={-:-/ absolute / metric / decimal}
; #@! TF.CreationDate,2025-06-27T14:32:03+02:00
; #@! TF.GenerationSoftware,Kicad,Pcbnew,9.0.2
; #@! TF.FileFunction,Plated,1,2,PTH
FMAT,2
METRIC
; #@! TA.AperFunction,Plated,PTH,ViaDrill
T1C0.300
; #@! TA.AperFunction,Plated,PTH,ViaDrill
T2C0.400
; #@! TA.AperFunction,Plated,PTH,ComponentDrill
T3C0.500
; #@! TA.AperFunction,Plated,PTH,ComponentDrill
T4C0.600
; #@! TA.AperFunction,Plated,PTH,ComponentDrill
T5C0.650
; #@! TA.AperFunction,Plated,PTH,ComponentDrill
T6C0.700
; #@! TA.AperFunction,Plated,PTH,ComponentDrill
T7C0.800
; #@! TA.AperFunction,Plated,PTH,ComponentDrill
T8C1.000
; #@! TA.AperFunction,Plated,PTH,ViaDrill
T9C1.200
; #@! TA.AperFunction,Plated,PTH,ComponentDrill
T10C1.300
; #@! TA.AperFunction,Plated,PTH,ComponentDrill
T11C1.500
; #@! TA.AperFunction,Plated,PTH,ComponentDrill
T12C1.600
; #@! TA.AperFunction,Plated,PTH,ComponentDrill
T13C2.200
; #@! TA.AperFunction,Plated,PTH,ComponentDrill
T14C4.000
%
G90
G05
T1
X95.639Y-71.191
X95.715Y-52.065
X95.842Y-89.987
X96.096Y-57.145
X97.239Y-58.034
X101.684Y-75.56
X101.735Y-76.728
X104.199Y-74.874
X105.646Y-81.859
X106.815Y-70.632
X106.967Y-68.016
X107.831Y-69.667
X107.882Y-71.496
X108.694Y-61.92
X109.367Y-72.372
X109.431Y-74.559
X110.168Y-88.539
X110.472Y-90.597
X110.605Y-71.652
X113.876Y-74.671
X114.232Y-89.479
X114.384Y-53.056
X115.019Y-80.386
X115.044Y-61.996
X115.095Y-73.02
X116.264Y-54.834
X116.365Y-53.056
X116.416Y-49.906
X116.416Y-51.176
X116.467Y-48.28
X116.619Y-80.335
X116.873Y-56.916
X116.873Y-58.999
X117.635Y-80.386
X118.194Y-66.416
X118.6Y-80.437
X120.734Y-65.73
X120.988Y-61.336
X121.445Y-48.026
X122.004Y-51.176
X122.136Y-64.232
X123.376Y-51.176
X123.376Y-60.066
X123.376Y-61.539
X123.426Y-53.665
X123.426Y-55.85
X128.557Y-83.99
X128.608Y-65.197
X128.811Y-46.401
X129.497Y-61.717
X140.805Y-69.432
T2
X97.366Y-112.478
X99.512Y-136.379
X99.588Y-127.718
X103.5Y-136.199
X103.97Y-114.358
X103.97Y-116.948
X103.97Y-118.193
X103.97Y-119.438
X106.192Y-111.716
X106.7Y-128.988
X107.97Y-135.948
X109.088Y-106.28
X111.983Y-111.665
X113.43Y-135.922
X115.197Y-126.397
X115.248Y-123.248
X115.336Y-105.874
X118.384Y-105.874
X118.892Y-116.923
X118.892Y-118.193
X118.892Y-119.463
X118.892Y-120.733
X119.857Y-110.344
X121.686Y-104.223
X122.664Y-123.06
X122.702Y-134.068
X122.702Y-135.084
X124.734Y-102.076
X125.916Y-106.23
X125.916Y-107.5
X126.8Y-134.068
X126.8Y-135.084
X129.598Y-108.35
X129.687Y-116.923
X129.865Y-106.865
X130.957Y-118.193
X132.164Y-117.355
X132.227Y-119.463
X132.252Y-102.978
X133.624Y-131.579
X133.815Y-124.162
X136.101Y-123.197
X137.752Y-136.608
X138.514Y-118.193
X138.768Y-135.846
X139.886Y-107.246
X139.898Y-102.902
X140.851Y-134.17
X141.422Y-106.153
T3
X102.324Y-62.098
X102.324Y-64.638
X102.324Y-67.178
X102.324Y-69.718
X102.324Y-80.64
X102.324Y-83.18
X102.324Y-85.72
X102.324Y-88.26
X102.832Y-94.61
X120.612Y-94.61
X122.136Y-49.668
X122.136Y-54.732
X122.136Y-57.272
X122.136Y-67.94
X122.136Y-70.48
X122.136Y-73.02
X122.136Y-75.56
X122.136Y-81.656
X122.136Y-84.196
X122.136Y-86.736
X122.136Y-89.276
T5
X109.182Y-92.324
X109.182Y-93.594
X110.452Y-92.324
X110.452Y-93.594
X111.722Y-92.324
X111.722Y-93.594
X112.992Y-92.324
X112.992Y-93.594
X113.05Y-129.115
X114.262Y-92.324
X114.262Y-93.594
X114.32Y-129.115
X115.59Y-129.115
X121.686Y-100.794
X122.956Y-100.794
X138.443Y-51.55
X138.443Y-52.82
X141.625Y-101.048
X142.895Y-101.048
T6
X138.316Y-42.787
X138.316Y-45.327
X138.316Y-58.662
X138.316Y-61.202
X148.73Y-42.787
X148.73Y-45.327
X148.73Y-58.662
X148.73Y-61.202
T7
X65.494Y-49.652
X65.494Y-52.152
X72.479Y-49.652
X72.479Y-52.152
X106.383Y-54.605
X106.383Y-57.105
T8
X55.337Y-58.562
X61.337Y-92.162
X67.337Y-92.162
X73.337Y-58.562
X80.052Y-101.468
X80.052Y-112.898
X80.052Y-124.328
X85.052Y-101.468
X85.052Y-112.898
X85.052Y-124.328
X93.048Y-115.272
X93.048Y-117.812
X93.048Y-120.352
X93.048Y-122.892
X98.216Y-130.004
X100.033Y-54.224
X100.033Y-56.764
X120.416Y-126.956
X122.956Y-126.956
X125.496Y-126.956
X127.643Y-100.286
X128.036Y-126.956
X130.183Y-100.286
X130.576Y-126.956
X132.723Y-100.286
X135.263Y-100.286
X136.926Y-126.956
X139.466Y-126.956
X142.006Y-126.956
X142.07Y-81.3
X142.07Y-94.0
X142.38Y-67.806
X144.61Y-81.3
X144.61Y-94.0
X144.92Y-67.806
T9
X79.083Y-55.646
X79.083Y-58.796
X85.052Y-67.686
X85.052Y-70.734
T10
X53.815Y-46.182
X54.064Y-133.726
X58.895Y-46.182
X59.144Y-133.726
X64.224Y-133.726
X79.083Y-46.182
X84.163Y-46.182
X100.805Y-45.842
X105.885Y-45.842
T11
X52.54Y-119.248
X65.14Y-119.248
X72.606Y-109.85
X72.606Y-124.85
X73.622Y-133.218
X81.122Y-136.918
T13
X93.0Y-101.0
X93.0Y-137.0
X147.0Y-101.0
X147.0Y-137.0
T14
X133.665Y-111.986
T4
G00X64.699Y-41.929
M15
G01X64.699Y-41.229
M16
G05
G00X64.699Y-45.729
M15
G01X64.699Y-45.029
M16
G05
G00X73.299Y-41.929
M15
G01X73.299Y-41.229
M16
G05
G00X73.299Y-45.729
M15
G01X73.299Y-45.029
M16
G05
G00X106.38Y-134.936
M15
G01X106.38Y-134.236
M16
G05
G00X106.38Y-138.736
M15
G01X106.38Y-138.036
M16
G05
G00X110.934Y-42.335
M15
G01X110.934Y-41.636
M16
G05
G00X110.934Y-46.136
M15
G01X110.934Y-45.435
M16
G05
G00X114.98Y-134.936
M15
G01X114.98Y-134.236
M16
G05
G00X114.98Y-138.736
M15
G01X114.98Y-138.036
M16
G05
G00X119.534Y-42.335
M15
G01X119.534Y-41.636
M16
G05
G00X119.534Y-46.136
M15
G01X119.534Y-45.435
M16
G05
G00X139.223Y-71.322
M15
G01X139.223Y-72.022
M16
G05
G00X139.223Y-75.123
M15
G01X139.223Y-75.822
M16
G05
G00X147.823Y-71.322
M15
G01X147.823Y-72.022
M16
G05
G00X147.823Y-75.123
M15
G01X147.823Y-75.822
M16
G05
T12
G00X52.7Y-99.1
M15
G01X52.7Y-98.5
M16
G05
G00X52.7Y-112.6
M15
G01X52.7Y-112.0
M16
G05
G00X54.2Y-101.6
M15
G01X54.2Y-101.0
M16
G05
G00X54.2Y-110.1
M15
G01X54.2Y-109.5
M16
G05
G00X61.2Y-101.6
M15
G01X61.2Y-101.0
M16
G05
G00X61.2Y-110.1
M15
G01X61.2Y-109.5
M16
G05
G00X62.7Y-99.1
M15
G01X62.7Y-98.5
M16
G05
G00X62.7Y-112.6
M15
G01X62.7Y-112.0
M16
G05
M30
