%TF.GenerationSoftware,KiCad,Pcbnew,9.0.2*%
%TF.CreationDate,2025-06-27T14:41:47+02:00*%
%TF.ProjectId,led_driver_220v_p3,6c65645f-6472-4697-9665-725f32323076,rev?*%
%TF.SameCoordinates,Original*%
%TF.FileFunction,Paste,Bot*%
%TF.FilePolarity,Positive*%
%FSLAX46Y46*%
G04 Gerber Fmt 4.6, Leading zero omitted, Abs format (unit mm)*
G04 Created by KiCad (PCBNEW 9.0.2) date 2025-06-27 14:41:47*
%MOMM*%
%LPD*%
G01*
G04 APERTURE LIST*
G04 Aperture macros list*
%AMRoundRect*
0 Rectangle with rounded corners*
0 $1 Rounding radius*
0 $2 $3 $4 $5 $6 $7 $8 $9 X,Y pos of 4 corners*
0 Add a 4 corners polygon primitive as box body*
4,1,4,$2,$3,$4,$5,$6,$7,$8,$9,$2,$3,0*
0 Add four circle primitives for the rounded corners*
1,1,$1+$1,$2,$3*
1,1,$1+$1,$4,$5*
1,1,$1+$1,$6,$7*
1,1,$1+$1,$8,$9*
0 Add four rect primitives between the rounded corners*
20,1,$1+$1,$2,$3,$4,$5,0*
20,1,$1+$1,$4,$5,$6,$7,0*
20,1,$1+$1,$6,$7,$8,$9,0*
20,1,$1+$1,$8,$9,$2,$3,0*%
G04 Aperture macros list end*
%ADD10RoundRect,0.250000X-0.350000X-0.450000X0.350000X-0.450000X0.350000X0.450000X-0.350000X0.450000X0*%
%ADD11R,0.700000X2.000000*%
%ADD12R,0.800000X2.000000*%
%ADD13R,0.900000X2.000000*%
%ADD14RoundRect,0.250000X0.350000X0.450000X-0.350000X0.450000X-0.350000X-0.450000X0.350000X-0.450000X0*%
%ADD15RoundRect,0.250000X-0.412500X-0.650000X0.412500X-0.650000X0.412500X0.650000X-0.412500X0.650000X0*%
%ADD16RoundRect,0.336539X-0.538461X0.563461X-0.538461X-0.563461X0.538461X-0.563461X0.538461X0.563461X0*%
%ADD17RoundRect,0.090000X-0.360000X0.660000X-0.360000X-0.660000X0.360000X-0.660000X0.360000X0.660000X0*%
%ADD18RoundRect,0.150000X-0.150000X0.725000X-0.150000X-0.725000X0.150000X-0.725000X0.150000X0.725000X0*%
%ADD19RoundRect,0.250000X-0.650000X0.412500X-0.650000X-0.412500X0.650000X-0.412500X0.650000X0.412500X0*%
%ADD20RoundRect,0.150000X-0.150000X0.512500X-0.150000X-0.512500X0.150000X-0.512500X0.150000X0.512500X0*%
%ADD21RoundRect,0.250000X0.450000X-0.350000X0.450000X0.350000X-0.450000X0.350000X-0.450000X-0.350000X0*%
%ADD22RoundRect,0.150000X-0.587500X-0.150000X0.587500X-0.150000X0.587500X0.150000X-0.587500X0.150000X0*%
%ADD23RoundRect,0.250000X-0.450000X0.350000X-0.450000X-0.350000X0.450000X-0.350000X0.450000X0.350000X0*%
%ADD24RoundRect,0.336539X0.563461X0.538461X-0.563461X0.538461X-0.563461X-0.538461X0.563461X-0.538461X0*%
%ADD25RoundRect,0.150000X0.512500X0.150000X-0.512500X0.150000X-0.512500X-0.150000X0.512500X-0.150000X0*%
%ADD26RoundRect,0.250000X0.250000X1.500000X-0.250000X1.500000X-0.250000X-1.500000X0.250000X-1.500000X0*%
%ADD27RoundRect,0.250001X0.499999X1.449999X-0.499999X1.449999X-0.499999X-1.449999X0.499999X-1.449999X0*%
%ADD28R,2.750000X1.000000*%
%ADD29RoundRect,0.250000X-0.537500X-1.450000X0.537500X-1.450000X0.537500X1.450000X-0.537500X1.450000X0*%
G04 APERTURE END LIST*
D10*
%TO.C,R2*%
X115225000Y-112681200D03*
X117225000Y-112681200D03*
%TD*%
D11*
%TO.C,P1*%
X111180400Y-133936000D03*
D12*
X109160400Y-133936000D03*
D13*
X107930400Y-133936000D03*
D11*
X110180400Y-133936000D03*
D12*
X112200400Y-133936000D03*
D13*
X113430400Y-133936000D03*
%TD*%
D14*
%TO.C,R5*%
X144539000Y-57392000D03*
X142539000Y-57392000D03*
%TD*%
D15*
%TO.C,C9*%
X115209000Y-110344400D03*
X118334000Y-110344400D03*
%TD*%
D16*
%TO.C,R8*%
X139078000Y-85860000D03*
X139078000Y-88360000D03*
%TD*%
D17*
%TO.C,D1*%
X98345400Y-132950400D03*
X101645400Y-132950400D03*
X101645400Y-137850400D03*
X98345400Y-137850400D03*
%TD*%
D18*
%TO.C,J51*%
X141618000Y-54817000D03*
X142888000Y-54817000D03*
X144158000Y-54817000D03*
X145428000Y-54817000D03*
X145428000Y-59967000D03*
X144158000Y-59967000D03*
X142888000Y-59967000D03*
X141618000Y-59967000D03*
%TD*%
D10*
%TO.C,R7*%
X145968000Y-89396000D03*
X147968000Y-89396000D03*
%TD*%
D19*
%TO.C,C3*%
X113368000Y-123247600D03*
X113368000Y-126372600D03*
%TD*%
%TO.C,C2*%
X138577000Y-108934300D03*
X138577000Y-112059300D03*
%TD*%
D10*
%TO.C,R1*%
X93000000Y-126194000D03*
X95000000Y-126194000D03*
%TD*%
D20*
%TO.C,U3*%
X142319000Y-84824000D03*
X143269000Y-84824000D03*
X144219000Y-84824000D03*
X144219000Y-87099000D03*
X142319000Y-87099000D03*
%TD*%
D21*
%TO.C,R4*%
X101366000Y-129750000D03*
X101366000Y-127750000D03*
%TD*%
D22*
%TO.C,Q3*%
X140983000Y-47801000D03*
X140983000Y-45901000D03*
X142858000Y-46851000D03*
%TD*%
D23*
%TO.C,R9*%
X147714000Y-82824000D03*
X147714000Y-84824000D03*
%TD*%
D22*
%TO.C,Q2*%
X140983000Y-43864000D03*
X140983000Y-41964000D03*
X142858000Y-42914000D03*
%TD*%
D10*
%TO.C,R6*%
X142158000Y-89396000D03*
X144158000Y-89396000D03*
%TD*%
D24*
%TO.C,R4*%
X144773000Y-49772000D03*
X142273000Y-49772000D03*
%TD*%
D25*
%TO.C,U3*%
X107837500Y-128038000D03*
X107837500Y-128988000D03*
X107837500Y-129938000D03*
X105562500Y-129938000D03*
X105562500Y-128038000D03*
%TD*%
D26*
%TO.C,J3*%
X140837600Y-131112000D03*
X138837600Y-131112000D03*
X136837600Y-131112000D03*
D27*
X143187600Y-136862000D03*
X134487600Y-136862000D03*
%TD*%
D28*
%TO.C,SW1*%
X111952000Y-106242800D03*
X106192000Y-106242800D03*
X111952000Y-110242800D03*
X106192000Y-110242800D03*
%TD*%
D29*
%TO.C,C1*%
X93098800Y-109590200D03*
X97373800Y-109590200D03*
%TD*%
D23*
%TO.C,R3*%
X103398000Y-127750000D03*
X103398000Y-129750000D03*
%TD*%
D26*
%TO.C,J2*%
X128835600Y-131091000D03*
X126835600Y-131091000D03*
X124835600Y-131091000D03*
X122835600Y-131091000D03*
X120835600Y-131091000D03*
D27*
X131185600Y-136841000D03*
X118485600Y-136841000D03*
%TD*%
M02*
