%TF.GenerationSoftware,KiCad,Pcbnew,9.0.2*%
%TF.CreationDate,2025-06-27T09:15:38+02:00*%
%TF.ProjectId,led_driver_220v_p3,6c65645f-6472-4697-9665-725f32323076,rev?*%
%TF.SameCoordinates,Original*%
%TF.FileFunction,Soldermask,Bot*%
%TF.FilePolarity,Negative*%
%FSLAX46Y46*%
G04 Gerber Fmt 4.6, Leading zero omitted, Abs format (unit mm)*
G04 Created by KiCad (PCBNEW 9.0.2) date 2025-06-27 09:15:38*
%MOMM*%
%LPD*%
G01*
G04 APERTURE LIST*
G04 Aperture macros list*
%AMRoundRect*
0 Rectangle with rounded corners*
0 $1 Rounding radius*
0 $2 $3 $4 $5 $6 $7 $8 $9 X,Y pos of 4 corners*
0 Add a 4 corners polygon primitive as box body*
4,1,4,$2,$3,$4,$5,$6,$7,$8,$9,$2,$3,0*
0 Add four circle primitives for the rounded corners*
1,1,$1+$1,$2,$3*
1,1,$1+$1,$4,$5*
1,1,$1+$1,$6,$7*
1,1,$1+$1,$8,$9*
0 Add four rect primitives between the rounded corners*
20,1,$1+$1,$2,$3,$4,$5,0*
20,1,$1+$1,$4,$5,$6,$7,0*
20,1,$1+$1,$6,$7,$8,$9,0*
20,1,$1+$1,$8,$9,$2,$3,0*%
%AMFreePoly0*
4,1,23,0.910000,-1.100000,-0.400000,-1.100000,-0.400000,-1.095722,-0.477763,-1.095722,-0.603842,-1.061940,-0.716881,-0.996677,-0.809177,-0.904381,-0.874440,-0.791342,-0.908222,-0.665263,-0.908222,-0.600000,-0.910000,-0.600000,-0.910000,0.600000,-0.908222,0.600000,-0.908222,0.665263,-0.874440,0.791342,-0.809177,0.904381,-0.716881,0.996677,-0.603842,1.061940,-0.477763,1.095722,-0.400000,1.095722,
-0.400000,1.100000,0.910000,1.100000,0.910000,-1.100000,0.910000,-1.100000,$1*%
%AMFreePoly1*
4,1,23,0.410000,1.095722,0.475263,1.095722,0.601342,1.061940,0.714381,0.996677,0.806677,0.904381,0.871940,0.791342,0.905722,0.665263,0.905722,0.600000,0.910000,0.600000,0.910000,-0.600000,0.905722,-0.600000,0.905722,-0.665263,0.871940,-0.791342,0.806677,-0.904381,0.714381,-0.996677,0.601342,-1.061940,0.475263,-1.095722,0.410000,-1.095722,0.410000,-1.100000,-0.910000,-1.100000,
-0.910000,1.100000,0.410000,1.100000,0.410000,1.095722,0.410000,1.095722,$1*%
%AMFreePoly2*
4,1,6,1.000000,0.000000,0.500000,-0.750000,-0.500000,-0.750000,-0.500000,0.750000,0.500000,0.750000,1.000000,0.000000,1.000000,0.000000,$1*%
%AMFreePoly3*
4,1,6,0.500000,-0.750000,-0.650000,-0.750000,-0.150000,0.000000,-0.650000,0.750000,0.500000,0.750000,0.500000,-0.750000,0.500000,-0.750000,$1*%
G04 Aperture macros list end*
%ADD10C,1.000000*%
%ADD11RoundRect,0.250000X0.350000X0.450000X-0.350000X0.450000X-0.350000X-0.450000X0.350000X-0.450000X0*%
%ADD12RoundRect,0.250000X-0.750000X-0.750000X0.750000X-0.750000X0.750000X0.750000X-0.750000X0.750000X0*%
%ADD13C,2.000000*%
%ADD14RoundRect,0.250000X1.050000X1.050000X-1.050000X1.050000X-1.050000X-1.050000X1.050000X-1.050000X0*%
%ADD15C,2.600000*%
%ADD16C,1.500000*%
%ADD17RoundRect,0.250000X-1.050000X-1.050000X1.050000X-1.050000X1.050000X1.050000X-1.050000X1.050000X0*%
%ADD18RoundRect,0.250000X-0.550000X0.550000X-0.550000X-0.550000X0.550000X-0.550000X0.550000X0.550000X0*%
%ADD19C,1.600000*%
%ADD20C,3.000000*%
%ADD21C,4.400000*%
%ADD22R,1.700000X1.700000*%
%ADD23C,1.700000*%
%ADD24R,1.000000X1.000000*%
%ADD25O,1.000000X1.000000*%
%ADD26RoundRect,0.250000X0.550000X-0.550000X0.550000X0.550000X-0.550000X0.550000X-0.550000X-0.550000X0*%
%ADD27O,1.100000X1.800000*%
%ADD28R,2.000000X1.700000*%
%ADD29O,2.000000X1.700000*%
%ADD30R,5.000000X5.000000*%
%ADD31O,3.000000X3.600000*%
%ADD32RoundRect,0.250000X-0.350000X-0.450000X0.350000X-0.450000X0.350000X0.450000X-0.350000X0.450000X0*%
%ADD33R,0.700000X2.000000*%
%ADD34R,0.800000X2.000000*%
%ADD35R,0.900000X2.000000*%
%ADD36FreePoly0,180.000000*%
%ADD37FreePoly1,180.000000*%
%ADD38RoundRect,0.250000X-0.412500X-0.650000X0.412500X-0.650000X0.412500X0.650000X-0.412500X0.650000X0*%
%ADD39RoundRect,0.090000X-0.360000X0.660000X-0.360000X-0.660000X0.360000X-0.660000X0.360000X0.660000X0*%
%ADD40RoundRect,0.150000X-0.150000X0.725000X-0.150000X-0.725000X0.150000X-0.725000X0.150000X0.725000X0*%
%ADD41RoundRect,0.250000X-0.650000X0.412500X-0.650000X-0.412500X0.650000X-0.412500X0.650000X0.412500X0*%
%ADD42O,1.700000X2.000000*%
%ADD43R,1.700000X2.000000*%
%ADD44RoundRect,0.250000X0.450000X-0.350000X0.450000X0.350000X-0.450000X0.350000X-0.450000X-0.350000X0*%
%ADD45RoundRect,0.150000X-0.587500X-0.150000X0.587500X-0.150000X0.587500X0.150000X-0.587500X0.150000X0*%
%ADD46RoundRect,0.307693X0.492307X0.567307X-0.492307X0.567307X-0.492307X-0.567307X0.492307X-0.567307X0*%
%ADD47RoundRect,0.150000X0.512500X0.150000X-0.512500X0.150000X-0.512500X-0.150000X0.512500X-0.150000X0*%
%ADD48RoundRect,0.250000X0.250000X1.500000X-0.250000X1.500000X-0.250000X-1.500000X0.250000X-1.500000X0*%
%ADD49RoundRect,0.250001X0.499999X1.449999X-0.499999X1.449999X-0.499999X-1.449999X0.499999X-1.449999X0*%
%ADD50R,2.750000X1.000000*%
%ADD51RoundRect,0.250000X-0.537500X-1.450000X0.537500X-1.450000X0.537500X1.450000X-0.537500X1.450000X0*%
%ADD52RoundRect,0.250000X-0.450000X0.350000X-0.450000X-0.350000X0.450000X-0.350000X0.450000X0.350000X0*%
%ADD53FreePoly2,90.000000*%
%ADD54FreePoly3,90.000000*%
G04 APERTURE END LIST*
%TO.C,JP6*%
G36*
X64806000Y-57442000D02*
G01*
X62626000Y-57442000D01*
X62626000Y-59642000D01*
X64806000Y-59642000D01*
X64806000Y-57442000D01*
G37*
%TO.C,JP7*%
G36*
X107514000Y-91644000D02*
G01*
X106014000Y-91644000D01*
X106014000Y-89194000D01*
X107514000Y-89194000D01*
X107514000Y-91644000D01*
G37*
%TD*%
D10*
%TO.C,TP45*%
X140983000Y-57392000D03*
%TD*%
%TO.C,TP44*%
X146063000Y-57392000D03*
%TD*%
D11*
%TO.C,R5*%
X144539000Y-57392000D03*
X142539000Y-57392000D03*
%TD*%
D12*
%TO.C,C10*%
X80052000Y-124328000D03*
D13*
X85052000Y-124328000D03*
%TD*%
D10*
%TO.C,TP5*%
X122136000Y-86736000D03*
%TD*%
%TO.C,TP4*%
X122136000Y-73020000D03*
%TD*%
%TO.C,TP15*%
X120612000Y-94610000D03*
%TD*%
D14*
%TO.C,J8*%
X105885000Y-45842000D03*
D15*
X100805000Y-45842000D03*
%TD*%
D16*
%TO.C,TP24*%
X148730000Y-58662000D03*
%TD*%
D17*
%TO.C,J9*%
X54064000Y-133726000D03*
D15*
X59144000Y-133726000D03*
X64224000Y-133726000D03*
%TD*%
D10*
%TO.C,TP10a1*%
X102324000Y-69718000D03*
%TD*%
D16*
%TO.C,TP25*%
X148730000Y-42787000D03*
%TD*%
%TO.C,TP29*%
X148730000Y-61202000D03*
%TD*%
D18*
%TO.C,C12*%
X106383000Y-54605000D03*
D19*
X106383000Y-57105000D03*
%TD*%
D20*
%TO.C,F1*%
X52540000Y-119248000D03*
X65140000Y-119248000D03*
%TD*%
D21*
%TO.C,H3*%
X147000000Y-101000000D03*
%TD*%
D10*
%TO.C,TP6*%
X122136000Y-84196000D03*
%TD*%
D22*
%TO.C,J12*%
X142380000Y-67806000D03*
D23*
X144920000Y-67806000D03*
%TD*%
D22*
%TO.C,J13*%
X144610000Y-94000000D03*
D23*
X142070000Y-94000000D03*
%TD*%
D24*
%TO.C,J1*%
X109182000Y-93594000D03*
D25*
X109182000Y-92324000D03*
X110452000Y-93594000D03*
X110452000Y-92324000D03*
X111722000Y-93594000D03*
X111722000Y-92324000D03*
X112992000Y-93594000D03*
X112992000Y-92324000D03*
X114262000Y-93594000D03*
X114262000Y-92324000D03*
%TD*%
D16*
%TO.C,TP28*%
X148730000Y-45327000D03*
%TD*%
D26*
%TO.C,C9*%
X72479000Y-52152000D03*
D19*
X72479000Y-49652000D03*
%TD*%
D21*
%TO.C,H1*%
X93000000Y-101000000D03*
%TD*%
D10*
%TO.C,TP9*%
X102324000Y-83180000D03*
%TD*%
D20*
%TO.C,X1*%
X72606000Y-109850000D03*
X72606000Y-124850000D03*
%TD*%
D24*
%TO.C,J9*%
X122956000Y-100794000D03*
D10*
X121686000Y-100794000D03*
%TD*%
%TO.C,TP2*%
X122136000Y-49668000D03*
%TD*%
D27*
%TO.C,P3*%
X139223000Y-71672500D03*
X139223000Y-75472500D03*
X147823000Y-71672500D03*
X147823000Y-75472500D03*
%TD*%
D10*
%TO.C,TP3b1*%
X122136000Y-89276000D03*
%TD*%
D12*
%TO.C,C6*%
X80052000Y-101468000D03*
D13*
X85052000Y-101468000D03*
%TD*%
D28*
%TO.C,PS1*%
X61337500Y-92162500D03*
D29*
X67337500Y-92162500D03*
X55337500Y-58562500D03*
X73337500Y-58562500D03*
%TD*%
D22*
%TO.C,J6*%
X142006000Y-126956000D03*
D23*
X139466000Y-126956000D03*
X136926000Y-126956000D03*
%TD*%
D21*
%TO.C,H4*%
X147000000Y-137000000D03*
%TD*%
D30*
%TO.C,U2*%
X133665000Y-111986000D03*
%TD*%
D10*
%TO.C,TP12*%
X102324000Y-62098000D03*
%TD*%
%TO.C,TP13*%
X102832000Y-94610000D03*
%TD*%
%TO.C,TP7*%
X122136000Y-81656000D03*
%TD*%
%TO.C,TP9b1*%
X102324000Y-80640000D03*
%TD*%
D27*
%TO.C,P1*%
X119534000Y-45785500D03*
X119534000Y-41985500D03*
X110934000Y-45785500D03*
X110934000Y-41985500D03*
%TD*%
D24*
%TO.C,J10*%
X113050000Y-129115000D03*
D10*
X114320000Y-129115000D03*
X115590000Y-129115000D03*
%TD*%
D16*
%TO.C,TP26*%
X138316000Y-61202000D03*
%TD*%
D10*
%TO.C,TP11*%
X122136000Y-75560000D03*
%TD*%
D16*
%TO.C,TP22*%
X138316000Y-42787000D03*
%TD*%
D12*
%TO.C,C8*%
X80052000Y-112898000D03*
D13*
X85052000Y-112898000D03*
%TD*%
D10*
%TO.C,TP3*%
X122136000Y-70480000D03*
%TD*%
%TO.C,TP9a1*%
X102324000Y-67178000D03*
%TD*%
D27*
%TO.C,P2*%
X73299200Y-45379100D03*
X73299200Y-41579100D03*
X64699200Y-45379100D03*
X64699200Y-41579100D03*
%TD*%
D10*
%TO.C,TP3a1*%
X122136000Y-54732000D03*
%TD*%
%TO.C,TP10b1*%
X102324000Y-88260000D03*
%TD*%
D22*
%TO.C,J14*%
X144610000Y-81300000D03*
D23*
X142070000Y-81300000D03*
%TD*%
D24*
%TO.C,J7*%
X142895000Y-101048000D03*
D10*
X141625000Y-101048000D03*
%TD*%
D20*
%TO.C,RV1*%
X81122000Y-136918000D03*
X73622000Y-133218000D03*
%TD*%
D21*
%TO.C,H2*%
X93000000Y-137000000D03*
%TD*%
D22*
%TO.C,CN1*%
X100033000Y-56764000D03*
D23*
X100033000Y-54224000D03*
%TD*%
D16*
%TO.C,TP27*%
X138316000Y-58662000D03*
%TD*%
D10*
%TO.C,TP14*%
X102324000Y-64638000D03*
%TD*%
D31*
%TO.C,L1*%
X54200000Y-109800000D03*
X52700000Y-112300000D03*
X62700000Y-112300000D03*
X61200000Y-109800000D03*
X54200000Y-101300000D03*
X52700000Y-98800000D03*
X62700000Y-98800000D03*
X61200000Y-101300000D03*
%TD*%
D24*
%TO.C,J17*%
X138443000Y-51550000D03*
D10*
X138443000Y-52820000D03*
%TD*%
%TO.C,TP8*%
X122136000Y-57272000D03*
%TD*%
D26*
%TO.C,C7*%
X65494000Y-52152000D03*
D19*
X65494000Y-49652000D03*
%TD*%
D22*
%TO.C,J8*%
X130576000Y-126956000D03*
D23*
X128036000Y-126956000D03*
X125496000Y-126956000D03*
X122956000Y-126956000D03*
X120416000Y-126956000D03*
%TD*%
D14*
%TO.C,J11*%
X84163000Y-46182500D03*
D15*
X79083000Y-46182500D03*
%TD*%
D14*
%TO.C,J10*%
X58895000Y-46182500D03*
D15*
X53815000Y-46182500D03*
%TD*%
D10*
%TO.C,TP1*%
X122136000Y-67940000D03*
%TD*%
%TO.C,TP10*%
X102324000Y-85720000D03*
%TD*%
D16*
%TO.C,TP23*%
X138316000Y-45327000D03*
%TD*%
D32*
%TO.C,R2*%
X115225000Y-112681200D03*
X117225000Y-112681200D03*
%TD*%
D33*
%TO.C,P1*%
X111180400Y-133936000D03*
D34*
X109160400Y-133936000D03*
D35*
X107930400Y-133936000D03*
D33*
X110180400Y-133936000D03*
D34*
X112200400Y-133936000D03*
D35*
X113430400Y-133936000D03*
D27*
X114980400Y-138386000D03*
X114980400Y-134586000D03*
X106380400Y-138386000D03*
X106380400Y-134586000D03*
%TD*%
D36*
%TO.C,JP6*%
X65716000Y-58542000D03*
D37*
X61716000Y-58542000D03*
%TD*%
D10*
%TO.C,TP41*%
X140348000Y-62599000D03*
%TD*%
%TO.C,TP35*%
X144666000Y-52058000D03*
%TD*%
%TO.C,TP30*%
X146317000Y-42914000D03*
%TD*%
D38*
%TO.C,C9*%
X115209000Y-110344400D03*
X118334000Y-110344400D03*
%TD*%
D10*
%TO.C,TP31*%
X146317000Y-46851000D03*
%TD*%
D22*
%TO.C,J4*%
X93048000Y-115272000D03*
D23*
X93048000Y-117812000D03*
X93048000Y-120352000D03*
X93048000Y-122892000D03*
%TD*%
D39*
%TO.C,D1*%
X98345400Y-132950400D03*
X101645400Y-132950400D03*
X101645400Y-137850400D03*
X98345400Y-137850400D03*
%TD*%
D40*
%TO.C,J51*%
X141618000Y-54817000D03*
X142888000Y-54817000D03*
X144158000Y-54817000D03*
X145428000Y-54817000D03*
X145428000Y-59967000D03*
X144158000Y-59967000D03*
X142888000Y-59967000D03*
X141618000Y-59967000D03*
%TD*%
D10*
%TO.C,TP32*%
X144158000Y-45134000D03*
%TD*%
D41*
%TO.C,C3*%
X113368000Y-123247600D03*
X113368000Y-126372600D03*
%TD*%
D42*
%TO.C,J5*%
X135262800Y-100286000D03*
X132722800Y-100286000D03*
X130182800Y-100286000D03*
D43*
X127642800Y-100286000D03*
%TD*%
D22*
%TO.C,J1*%
X98216400Y-130004000D03*
%TD*%
D41*
%TO.C,C2*%
X138577000Y-108934300D03*
X138577000Y-112059300D03*
%TD*%
D32*
%TO.C,R1*%
X93000000Y-126194000D03*
X95000000Y-126194000D03*
%TD*%
D10*
%TO.C,TP34*%
X146698000Y-52058000D03*
%TD*%
D44*
%TO.C,R4*%
X101366000Y-129750000D03*
X101366000Y-127750000D03*
%TD*%
D10*
%TO.C,TP38*%
X146444000Y-62599000D03*
%TD*%
D45*
%TO.C,Q3*%
X140983000Y-47801000D03*
X140983000Y-45901000D03*
X142858000Y-46851000D03*
%TD*%
D10*
%TO.C,TP42*%
X147079000Y-49772000D03*
%TD*%
D45*
%TO.C,Q2*%
X140983000Y-43864000D03*
X140983000Y-41964000D03*
X142858000Y-42914000D03*
%TD*%
D10*
%TO.C,TP40*%
X142380000Y-62599000D03*
%TD*%
%TO.C,TP36*%
X142380000Y-52058000D03*
%TD*%
%TO.C,TP33*%
X144158000Y-41197000D03*
%TD*%
D46*
%TO.C,R4*%
X144773000Y-49772000D03*
X142273000Y-49772000D03*
%TD*%
D10*
%TO.C,TP39*%
X144412000Y-62599000D03*
%TD*%
D47*
%TO.C,U3*%
X107837500Y-128038000D03*
X107837500Y-128988000D03*
X107837500Y-129938000D03*
X105562500Y-129938000D03*
X105562500Y-128038000D03*
%TD*%
D48*
%TO.C,J3*%
X140837600Y-131112000D03*
X138837600Y-131112000D03*
X136837600Y-131112000D03*
D49*
X143187600Y-136862000D03*
X134487600Y-136862000D03*
%TD*%
D50*
%TO.C,SW1*%
X111952000Y-106242800D03*
X106192000Y-106242800D03*
X111952000Y-110242800D03*
X106192000Y-110242800D03*
%TD*%
D51*
%TO.C,C1*%
X93098800Y-109590200D03*
X97373800Y-109590200D03*
%TD*%
D10*
%TO.C,TP37*%
X140348000Y-52058000D03*
%TD*%
%TO.C,TP43*%
X139967000Y-49772000D03*
%TD*%
D52*
%TO.C,R3*%
X103398000Y-127750000D03*
X103398000Y-129750000D03*
%TD*%
D48*
%TO.C,J2*%
X128835600Y-131091000D03*
X126835600Y-131091000D03*
X124835600Y-131091000D03*
X122835600Y-131091000D03*
X120835600Y-131091000D03*
D49*
X131185600Y-136841000D03*
X118485600Y-136841000D03*
%TD*%
D53*
%TO.C,JP7*%
X106764000Y-91144000D03*
D54*
X106764000Y-89694000D03*
%TD*%
M02*
