%TF.GenerationSoftware,KiCad,Pcbnew,9.0.2*%
%TF.CreationDate,2025-06-27T14:41:47+02:00*%
%TF.ProjectId,led_driver_220v_p3,6c65645f-6472-4697-9665-725f32323076,rev?*%
%TF.SameCoordinates,Original*%
%TF.FileFunction,Paste,Top*%
%TF.FilePolarity,Positive*%
%FSLAX46Y46*%
G04 Gerber Fmt 4.6, Leading zero omitted, Abs format (unit mm)*
G04 Created by KiCad (PCBNEW 9.0.2) date 2025-06-27 14:41:47*
%MOMM*%
%LPD*%
G01*
G04 APERTURE LIST*
G04 Aperture macros list*
%AMRoundRect*
0 Rectangle with rounded corners*
0 $1 Rounding radius*
0 $2 $3 $4 $5 $6 $7 $8 $9 X,Y pos of 4 corners*
0 Add a 4 corners polygon primitive as box body*
4,1,4,$2,$3,$4,$5,$6,$7,$8,$9,$2,$3,0*
0 Add four circle primitives for the rounded corners*
1,1,$1+$1,$2,$3*
1,1,$1+$1,$4,$5*
1,1,$1+$1,$6,$7*
1,1,$1+$1,$8,$9*
0 Add four rect primitives between the rounded corners*
20,1,$1+$1,$2,$3,$4,$5,0*
20,1,$1+$1,$4,$5,$6,$7,0*
20,1,$1+$1,$6,$7,$8,$9,0*
20,1,$1+$1,$8,$9,$2,$3,0*%
G04 Aperture macros list end*
%ADD10R,2.000000X0.800000*%
%ADD11RoundRect,0.100000X-0.637500X-0.100000X0.637500X-0.100000X0.637500X0.100000X-0.637500X0.100000X0*%
%ADD12RoundRect,0.090000X-0.660000X-0.360000X0.660000X-0.360000X0.660000X0.360000X-0.660000X0.360000X0*%
%ADD13RoundRect,0.150000X-0.625000X0.150000X-0.625000X-0.150000X0.625000X-0.150000X0.625000X0.150000X0*%
%ADD14RoundRect,0.250000X-0.650000X0.350000X-0.650000X-0.350000X0.650000X-0.350000X0.650000X0.350000X0*%
%ADD15RoundRect,0.090000X0.660000X0.360000X-0.660000X0.360000X-0.660000X-0.360000X0.660000X-0.360000X0*%
%ADD16RoundRect,0.250000X1.500000X-0.250000X1.500000X0.250000X-1.500000X0.250000X-1.500000X-0.250000X0*%
%ADD17RoundRect,0.250001X1.449999X-0.499999X1.449999X0.499999X-1.449999X0.499999X-1.449999X-0.499999X0*%
%ADD18RoundRect,0.250000X-0.350000X-0.450000X0.350000X-0.450000X0.350000X0.450000X-0.350000X0.450000X0*%
%ADD19RoundRect,0.250000X-1.500000X0.250000X-1.500000X-0.250000X1.500000X-0.250000X1.500000X0.250000X0*%
%ADD20RoundRect,0.250001X-1.449999X0.499999X-1.449999X-0.499999X1.449999X-0.499999X1.449999X0.499999X0*%
%ADD21RoundRect,0.150000X-0.150000X0.512500X-0.150000X-0.512500X0.150000X-0.512500X0.150000X0.512500X0*%
%ADD22RoundRect,0.250000X0.475000X-0.337500X0.475000X0.337500X-0.475000X0.337500X-0.475000X-0.337500X0*%
%ADD23RoundRect,0.250000X0.337500X0.475000X-0.337500X0.475000X-0.337500X-0.475000X0.337500X-0.475000X0*%
%ADD24R,0.700000X2.000000*%
%ADD25R,0.800000X2.000000*%
%ADD26R,0.900000X2.000000*%
%ADD27RoundRect,0.250000X-0.475000X0.337500X-0.475000X-0.337500X0.475000X-0.337500X0.475000X0.337500X0*%
%ADD28R,2.000000X0.900000*%
%ADD29RoundRect,0.150000X-0.150000X-0.625000X0.150000X-0.625000X0.150000X0.625000X-0.150000X0.625000X0*%
%ADD30RoundRect,0.250000X-0.350000X-0.650000X0.350000X-0.650000X0.350000X0.650000X-0.350000X0.650000X0*%
%ADD31RoundRect,0.150000X0.150000X0.625000X-0.150000X0.625000X-0.150000X-0.625000X0.150000X-0.625000X0*%
%ADD32RoundRect,0.250000X0.350000X0.650000X-0.350000X0.650000X-0.350000X-0.650000X0.350000X-0.650000X0*%
%ADD33RoundRect,0.150000X-0.587500X-0.150000X0.587500X-0.150000X0.587500X0.150000X-0.587500X0.150000X0*%
%ADD34RoundRect,0.210000X0.490000X-0.790000X0.490000X0.790000X-0.490000X0.790000X-0.490000X-0.790000X0*%
%ADD35RoundRect,0.250000X-0.325000X-0.450000X0.325000X-0.450000X0.325000X0.450000X-0.325000X0.450000X0*%
G04 APERTURE END LIST*
D10*
%TO.C,U1*%
X116974800Y-123247600D03*
X116974800Y-121977600D03*
X116974800Y-120707600D03*
X116974800Y-119437600D03*
X116974800Y-118167600D03*
X116974800Y-116897600D03*
X116974800Y-115627600D03*
X116974800Y-114357600D03*
X101734800Y-114357600D03*
X101734800Y-115627600D03*
X101734800Y-116897600D03*
X101734800Y-118167600D03*
X101734800Y-119437600D03*
X101734800Y-120707600D03*
X101734800Y-121977600D03*
X101734800Y-123247600D03*
%TD*%
D11*
%TO.C,U2*%
X109367500Y-65777000D03*
X109367500Y-66427000D03*
X109367500Y-67077000D03*
X109367500Y-67727000D03*
X109367500Y-68377000D03*
X109367500Y-69027000D03*
X109367500Y-69677000D03*
X109367500Y-70327000D03*
X109367500Y-70977000D03*
X109367500Y-71627000D03*
X115092500Y-71627000D03*
X115092500Y-70977000D03*
X115092500Y-70327000D03*
X115092500Y-69677000D03*
X115092500Y-69027000D03*
X115092500Y-68377000D03*
X115092500Y-67727000D03*
X115092500Y-67077000D03*
X115092500Y-66427000D03*
X115092500Y-65777000D03*
%TD*%
D12*
%TO.C,D4*%
X141073000Y-47741000D03*
X141073000Y-51041000D03*
X145973000Y-51041000D03*
X145973000Y-47741000D03*
%TD*%
D13*
%TO.C,J3*%
X95688000Y-52978000D03*
X95688000Y-53978000D03*
X95688000Y-54978000D03*
X95688000Y-55978000D03*
D14*
X91813000Y-51678000D03*
X91813000Y-57278000D03*
%TD*%
D15*
%TO.C,D3*%
X145800000Y-89268000D03*
X145800000Y-85968000D03*
X140900000Y-85968000D03*
X140900000Y-89268000D03*
%TD*%
D16*
%TO.C,J7*%
X126144000Y-54398000D03*
X126144000Y-52398000D03*
X126144000Y-50398000D03*
X126144000Y-48398000D03*
X126144000Y-46398000D03*
X126144000Y-44398000D03*
D17*
X131894000Y-56748000D03*
X131894000Y-42048000D03*
%TD*%
D18*
%TO.C,R1*%
X91688000Y-47620000D03*
X93688000Y-47620000D03*
%TD*%
D19*
%TO.C,J6*%
X98316000Y-81990000D03*
X98316000Y-83990000D03*
X98316000Y-85990000D03*
X98316000Y-87990000D03*
X98316000Y-89990000D03*
X98316000Y-91990000D03*
D20*
X92566000Y-79640000D03*
X92566000Y-94340000D03*
%TD*%
D21*
%TO.C,U1*%
X112672000Y-53594500D03*
X111722000Y-53594500D03*
X110772000Y-53594500D03*
X110772000Y-55869500D03*
X112672000Y-55869500D03*
%TD*%
D22*
%TO.C,C5*%
X105189200Y-73473300D03*
X105189200Y-71398300D03*
%TD*%
D23*
%TO.C,C4*%
X115045500Y-60320000D03*
X112970500Y-60320000D03*
%TD*%
D24*
%TO.C,P3*%
X143023000Y-71022500D03*
D25*
X145043000Y-71022500D03*
D26*
X146273000Y-71022500D03*
D24*
X144023000Y-71022500D03*
D25*
X142003000Y-71022500D03*
D26*
X140773000Y-71022500D03*
%TD*%
D27*
%TO.C,C11*%
X107221200Y-63325000D03*
X107221200Y-65400000D03*
%TD*%
D16*
%TO.C,J5*%
X126144000Y-91990000D03*
X126144000Y-89990000D03*
X126144000Y-87990000D03*
X126144000Y-85990000D03*
X126144000Y-83990000D03*
X126144000Y-81990000D03*
D17*
X131894000Y-94340000D03*
X131894000Y-79640000D03*
%TD*%
D26*
%TO.C,U2*%
X141165000Y-104486000D03*
X139895000Y-104486000D03*
X138625000Y-104486000D03*
X137355000Y-104486000D03*
X136085000Y-104486000D03*
X134815000Y-104486000D03*
X133545000Y-104486000D03*
X132275000Y-104486000D03*
X131005000Y-104486000D03*
X129735000Y-104486000D03*
X128465000Y-104486000D03*
X127195000Y-104486000D03*
X125925000Y-104486000D03*
X124655000Y-104486000D03*
D28*
X123655000Y-107271000D03*
X123655000Y-108541000D03*
X123655000Y-109811000D03*
X123655000Y-111081000D03*
X123655000Y-112351000D03*
X123655000Y-113621000D03*
X123655000Y-114891000D03*
X123655000Y-116161000D03*
X123655000Y-117431000D03*
X123655000Y-118701000D03*
D26*
X124655000Y-121486000D03*
X125925000Y-121486000D03*
X127195000Y-121486000D03*
X128465000Y-121486000D03*
X129735000Y-121486000D03*
X131005000Y-121486000D03*
X132275000Y-121486000D03*
X133545000Y-121486000D03*
X134815000Y-121486000D03*
X136085000Y-121486000D03*
X137355000Y-121486000D03*
X138625000Y-121486000D03*
X139895000Y-121486000D03*
X141165000Y-121486000D03*
%TD*%
D16*
%TO.C,J4*%
X126144000Y-73194000D03*
X126144000Y-71194000D03*
X126144000Y-69194000D03*
X126144000Y-67194000D03*
X126144000Y-65194000D03*
X126144000Y-63194000D03*
D17*
X131894000Y-75544000D03*
X131894000Y-60844000D03*
%TD*%
D29*
%TO.C,J16*%
X142000000Y-58694000D03*
X143000000Y-58694000D03*
X144000000Y-58694000D03*
X145000000Y-58694000D03*
D30*
X140700000Y-62569000D03*
X146300000Y-62569000D03*
%TD*%
D23*
%TO.C,C2*%
X112738000Y-51176000D03*
X110663000Y-51176000D03*
%TD*%
%TO.C,C3*%
X115045500Y-58034000D03*
X112970500Y-58034000D03*
%TD*%
D24*
%TO.C,P1*%
X115734000Y-46435500D03*
D25*
X113714000Y-46435500D03*
D26*
X112484000Y-46435500D03*
D24*
X114734000Y-46435500D03*
D25*
X116754000Y-46435500D03*
D26*
X117984000Y-46435500D03*
%TD*%
D31*
%TO.C,J15*%
X145023000Y-45295000D03*
X144023000Y-45295000D03*
X143023000Y-45295000D03*
X142023000Y-45295000D03*
D32*
X146323000Y-41420000D03*
X140723000Y-41420000D03*
%TD*%
D33*
%TO.C,Q1*%
X111690000Y-86614000D03*
X111690000Y-88514000D03*
X113565000Y-87564000D03*
%TD*%
D24*
%TO.C,P2*%
X69499200Y-46029100D03*
D25*
X67479200Y-46029100D03*
D26*
X66249200Y-46029100D03*
D24*
X68499200Y-46029100D03*
D25*
X70519200Y-46029100D03*
D26*
X71749200Y-46029100D03*
%TD*%
D23*
%TO.C,C1*%
X112738000Y-48890000D03*
X110663000Y-48890000D03*
%TD*%
D18*
%TO.C,R2*%
X91672000Y-45334000D03*
X93672000Y-45334000D03*
%TD*%
%TO.C,R3*%
X111214000Y-83688000D03*
X113214000Y-83688000D03*
%TD*%
D34*
%TO.C,D2*%
X80512000Y-93013000D03*
X84512000Y-93013000D03*
X84512000Y-87063000D03*
X80512000Y-87063000D03*
%TD*%
D35*
%TO.C,D1*%
X115491000Y-83688000D03*
X117541000Y-83688000D03*
%TD*%
D19*
%TO.C,J2*%
X98316000Y-63194000D03*
X98316000Y-65194000D03*
X98316000Y-67194000D03*
X98316000Y-69194000D03*
X98316000Y-71194000D03*
X98316000Y-73194000D03*
D20*
X92566000Y-60844000D03*
X92566000Y-75544000D03*
%TD*%
D12*
%TO.C,D5*%
X141073000Y-52948000D03*
X141073000Y-56248000D03*
X145973000Y-56248000D03*
X145973000Y-52948000D03*
%TD*%
M02*
