%TF.GenerationSoftware,KiCad,Pcbnew,9.0.2*%
%TF.CreationDate,2025-06-27T09:26:43+02:00*%
%TF.ProjectId,led_driver_220v_p1,6c65645f-6472-4697-9665-725f32323076,rev?*%
%TF.SameCoordinates,Original*%
%TF.FileFunction,Copper,L1,Top*%
%TF.FilePolarity,Positive*%
%FSLAX46Y46*%
G04 Gerber Fmt 4.6, Leading zero omitted, Abs format (unit mm)*
G04 Created by KiCad (PCBNEW 9.0.2) date 2025-06-27 09:26:43*
%MOMM*%
%LPD*%
G01*
G04 APERTURE LIST*
G04 Aperture macros list*
%AMRoundRect*
0 Rectangle with rounded corners*
0 $1 Rounding radius*
0 $2 $3 $4 $5 $6 $7 $8 $9 X,Y pos of 4 corners*
0 Add a 4 corners polygon primitive as box body*
4,1,4,$2,$3,$4,$5,$6,$7,$8,$9,$2,$3,0*
0 Add four circle primitives for the rounded corners*
1,1,$1+$1,$2,$3*
1,1,$1+$1,$4,$5*
1,1,$1+$1,$6,$7*
1,1,$1+$1,$8,$9*
0 Add four rect primitives between the rounded corners*
20,1,$1+$1,$2,$3,$4,$5,0*
20,1,$1+$1,$4,$5,$6,$7,0*
20,1,$1+$1,$6,$7,$8,$9,0*
20,1,$1+$1,$8,$9,$2,$3,0*%
G04 Aperture macros list end*
%TA.AperFunction,ComponentPad*%
%ADD10R,3.200000X3.200000*%
%TD*%
%TA.AperFunction,ComponentPad*%
%ADD11C,3.200000*%
%TD*%
%TA.AperFunction,ComponentPad*%
%ADD12R,2.200000X3.000000*%
%TD*%
%TA.AperFunction,ComponentPad*%
%ADD13O,2.200000X3.000000*%
%TD*%
%TA.AperFunction,ComponentPad*%
%ADD14RoundRect,0.288462X1.211538X1.211538X-1.211538X1.211538X-1.211538X-1.211538X1.211538X-1.211538X0*%
%TD*%
%TA.AperFunction,ComponentPad*%
%ADD15C,3.000000*%
%TD*%
%TA.AperFunction,ComponentPad*%
%ADD16R,2.100000X2.100000*%
%TD*%
%TA.AperFunction,ComponentPad*%
%ADD17C,2.100000*%
%TD*%
%TA.AperFunction,ComponentPad*%
%ADD18RoundRect,0.288462X-1.211538X-1.211538X1.211538X-1.211538X1.211538X1.211538X-1.211538X1.211538X0*%
%TD*%
%TA.AperFunction,ComponentPad*%
%ADD19RoundRect,0.288462X-1.211538X1.211538X-1.211538X-1.211538X1.211538X-1.211538X1.211538X1.211538X0*%
%TD*%
%TA.AperFunction,ComponentPad*%
%ADD20RoundRect,0.250000X0.750000X0.750000X-0.750000X0.750000X-0.750000X-0.750000X0.750000X-0.750000X0*%
%TD*%
%TA.AperFunction,ComponentPad*%
%ADD21C,2.000000*%
%TD*%
%TA.AperFunction,ComponentPad*%
%ADD22RoundRect,0.250001X0.949999X-0.949999X0.949999X0.949999X-0.949999X0.949999X-0.949999X-0.949999X0*%
%TD*%
%TA.AperFunction,ComponentPad*%
%ADD23C,2.400000*%
%TD*%
%TA.AperFunction,ComponentPad*%
%ADD24RoundRect,0.354168X1.345832X-1.345832X1.345832X1.345832X-1.345832X1.345832X-1.345832X-1.345832X0*%
%TD*%
%TA.AperFunction,ComponentPad*%
%ADD25C,3.400000*%
%TD*%
%TA.AperFunction,ComponentPad*%
%ADD26RoundRect,0.288462X1.211538X-1.211538X1.211538X1.211538X-1.211538X1.211538X-1.211538X-1.211538X0*%
%TD*%
%TA.AperFunction,SMDPad,CuDef*%
%ADD27R,1.400000X2.000000*%
%TD*%
%TA.AperFunction,ComponentPad*%
%ADD28O,3.000000X3.000000*%
%TD*%
%TA.AperFunction,ComponentPad*%
%ADD29RoundRect,0.250000X0.750000X-0.750000X0.750000X0.750000X-0.750000X0.750000X-0.750000X-0.750000X0*%
%TD*%
%TA.AperFunction,ComponentPad*%
%ADD30R,3.000000X2.200000*%
%TD*%
%TA.AperFunction,ComponentPad*%
%ADD31O,3.000000X2.200000*%
%TD*%
%TA.AperFunction,Conductor*%
%ADD32C,1.500000*%
%TD*%
%TA.AperFunction,Conductor*%
%ADD33C,2.000000*%
%TD*%
%TA.AperFunction,Conductor*%
%ADD34C,3.000000*%
%TD*%
G04 APERTURE END LIST*
D10*
%TO.P,D9,1,+*%
%TO.N,unconnected-(D9-+-Pad1)*%
X131534000Y-126614000D03*
D11*
%TO.P,D9,2*%
%TO.N,unconnected-(D9-Pad2)*%
X136614000Y-126614000D03*
%TO.P,D9,3*%
%TO.N,unconnected-(D9-Pad3)*%
X141694000Y-126614000D03*
%TO.P,D9,4,-*%
%TO.N,unconnected-(D9---Pad4)*%
X146774000Y-126614000D03*
%TD*%
D12*
%TO.P,PS2,1,AC/L*%
%TO.N,/High Voltage/L2*%
X54319500Y-50245500D03*
D13*
%TO.P,PS2,2,AC/N*%
%TO.N,/High Voltage/N2*%
X54319500Y-56245500D03*
%TO.P,PS2,3,-Vout*%
%TO.N,/High Voltage/DC2-GND*%
X87919500Y-44245500D03*
%TO.P,PS2,4,+Vout*%
%TO.N,/High Voltage/DC2+5V*%
X87919500Y-62245500D03*
%TD*%
D14*
%TO.P,J11,1,Pin_1*%
%TO.N,/High Voltage/DC1+5V*%
X115182000Y-45842000D03*
D15*
%TO.P,J11,2,Pin_2*%
%TO.N,/High Voltage/DC1-GND*%
X110102000Y-45842000D03*
%TD*%
D16*
%TO.P,J20,1,Pin_1*%
%TO.N,Net-(J18-Pin_1)*%
X127978000Y-114930000D03*
D17*
%TO.P,J20,2,Pin_2*%
%TO.N,Net-(J18-Pin_2)*%
X130518000Y-114930000D03*
%TO.P,J20,3,Pin_3*%
%TO.N,Net-(J18-Pin_3)*%
X133058000Y-114930000D03*
%TD*%
D10*
%TO.P,D10,1,+*%
%TO.N,unconnected-(D10-+-Pad1)*%
X131534000Y-131694000D03*
D11*
%TO.P,D10,2*%
%TO.N,unconnected-(D10-Pad2)*%
X136614000Y-131694000D03*
%TO.P,D10,3*%
%TO.N,unconnected-(D10-Pad3)*%
X141694000Y-131694000D03*
%TO.P,D10,4,-*%
%TO.N,unconnected-(D10---Pad4)*%
X146774000Y-131694000D03*
%TD*%
D10*
%TO.P,D5,1,+*%
%TO.N,unconnected-(D5-+-Pad1)*%
X111214000Y-121534000D03*
D11*
%TO.P,D5,2*%
%TO.N,unconnected-(D5-Pad2)*%
X116294000Y-121534000D03*
%TO.P,D5,3*%
%TO.N,unconnected-(D5-Pad3)*%
X121374000Y-121534000D03*
%TO.P,D5,4,-*%
%TO.N,unconnected-(D5---Pad4)*%
X126454000Y-121534000D03*
%TD*%
D18*
%TO.P,J8,1,Pin_1*%
%TO.N,/High Voltage/L1*%
X136614000Y-89784000D03*
D15*
%TO.P,J8,2,Pin_2*%
%TO.N,/High Voltage/PE1*%
X141694000Y-89784000D03*
%TO.P,J8,3,Pin_3*%
%TO.N,/High Voltage/N1*%
X146774000Y-89784000D03*
%TD*%
D19*
%TO.P,J9,1,Pin_1*%
%TO.N,/High Voltage/L2*%
X55928500Y-72507000D03*
D15*
%TO.P,J9,2,Pin_2*%
%TO.N,/High Voltage/PE2*%
X55928500Y-77587000D03*
%TO.P,J9,3,Pin_3*%
%TO.N,/High Voltage/N2*%
X55928500Y-82667000D03*
%TD*%
D20*
%TO.P,C6,1*%
%TO.N,/High Voltage/DC1+230V*%
X146855677Y-45588000D03*
D21*
%TO.P,C6,2*%
%TO.N,/High Voltage/DC1-230V*%
X141855677Y-45588000D03*
%TD*%
D18*
%TO.P,J19,1,Pin_1*%
%TO.N,Net-(J19-Pin_1)*%
X111468000Y-104389000D03*
D15*
%TO.P,J19,2,Pin_2*%
%TO.N,Net-(J19-Pin_2)*%
X116548000Y-104389000D03*
%TD*%
D10*
%TO.P,D4,1,+*%
%TO.N,/High Voltage/DC3+230V*%
X54318000Y-117724000D03*
D11*
%TO.P,D4,2*%
%TO.N,/High Voltage/N3*%
X59398000Y-117724000D03*
%TO.P,D4,3*%
%TO.N,/High Voltage/L3*%
X64478000Y-117724000D03*
%TO.P,D4,4,-*%
%TO.N,/High Voltage/DC3-230V*%
X69558000Y-117724000D03*
%TD*%
D22*
%TO.P,C7,1*%
%TO.N,/High Voltage/DC2+230V*%
X96482000Y-79677780D03*
D23*
%TO.P,C7,2*%
%TO.N,/High Voltage/DC2-230V*%
X96482000Y-72177780D03*
%TD*%
D12*
%TO.P,PS3,1,AC/L*%
%TO.N,/High Voltage/L3*%
X54319500Y-98245500D03*
D13*
%TO.P,PS3,2,AC/N*%
%TO.N,/High Voltage/N3*%
X54319500Y-104245500D03*
%TO.P,PS3,3,-Vout*%
%TO.N,/High Voltage/DC3-GND*%
X87919500Y-92245500D03*
%TO.P,PS3,4,+Vout*%
%TO.N,/High Voltage/DC3+5V*%
X87919500Y-110245500D03*
%TD*%
D10*
%TO.P,D7,1,+*%
%TO.N,unconnected-(D7-+-Pad1)*%
X111214000Y-131694000D03*
D11*
%TO.P,D7,2*%
%TO.N,unconnected-(D7-Pad2)*%
X116294000Y-131694000D03*
%TO.P,D7,3*%
%TO.N,unconnected-(D7-Pad3)*%
X121374000Y-131694000D03*
%TO.P,D7,4,-*%
%TO.N,unconnected-(D7---Pad4)*%
X126454000Y-131694000D03*
%TD*%
D10*
%TO.P,D8,1,+*%
%TO.N,unconnected-(D8-+-Pad1)*%
X111214000Y-136774000D03*
D11*
%TO.P,D8,2*%
%TO.N,unconnected-(D8-Pad2)*%
X116294000Y-136774000D03*
%TO.P,D8,3*%
%TO.N,unconnected-(D8-Pad3)*%
X121374000Y-136774000D03*
%TO.P,D8,4,-*%
%TO.N,unconnected-(D8---Pad4)*%
X126454000Y-136774000D03*
%TD*%
D24*
%TO.P,C11,1*%
%TO.N,/High Voltage/DC3+230V*%
X76416000Y-133901780D03*
D25*
%TO.P,C11,2*%
%TO.N,/High Voltage/DC3-230V*%
X76416000Y-126401780D03*
%TD*%
D18*
%TO.P,J18,1,Pin_1*%
%TO.N,Net-(J18-Pin_1)*%
X125418000Y-104429500D03*
D15*
%TO.P,J18,2,Pin_2*%
%TO.N,Net-(J18-Pin_2)*%
X130498000Y-104429500D03*
%TO.P,J18,3,Pin_3*%
%TO.N,Net-(J18-Pin_3)*%
X135578000Y-104429500D03*
%TD*%
D26*
%TO.P,J15,1,Pin_1*%
%TO.N,/High Voltage/DC3+5V*%
X99951500Y-96393000D03*
D15*
%TO.P,J15,2,Pin_2*%
%TO.N,/High Voltage/DC3-GND*%
X99951500Y-91313000D03*
%TD*%
D27*
%TO.P,D2,1,+*%
%TO.N,/High Voltage/DC1+230V*%
X143694000Y-74109000D03*
%TO.P,D2,2,-*%
%TO.N,/High Voltage/DC1-230V*%
X139694000Y-74109000D03*
%TO.P,D2,3*%
%TO.N,/High Voltage/N1*%
X139694000Y-80059000D03*
%TO.P,D2,4*%
%TO.N,/High Voltage/L1*%
X143694000Y-80059000D03*
%TD*%
D10*
%TO.P,J1,1,Pin_1*%
%TO.N,Net-(J1-Pin_1)*%
X143345000Y-115184000D03*
D11*
%TO.P,J1,2,Pin_2*%
%TO.N,Net-(J1-Pin_2)*%
X143345000Y-110104000D03*
%TO.P,J1,3,Pin_3*%
%TO.N,Net-(J1-Pin_3)*%
X143345000Y-105024000D03*
%TO.P,J1,4,Pin_4*%
%TO.N,Net-(J1-Pin_4)*%
X143345000Y-99944000D03*
%TD*%
D10*
%TO.P,D11,1,+*%
%TO.N,unconnected-(D11-+-Pad1)*%
X131534000Y-136774000D03*
D11*
%TO.P,D11,2*%
%TO.N,unconnected-(D11-Pad2)*%
X136614000Y-136774000D03*
%TO.P,D11,3*%
%TO.N,unconnected-(D11-Pad3)*%
X141694000Y-136774000D03*
%TO.P,D11,4,-*%
%TO.N,unconnected-(D11---Pad4)*%
X146774000Y-136774000D03*
%TD*%
D24*
%TO.P,C8,1*%
%TO.N,/High Voltage/DC3+230V*%
X96482000Y-133901780D03*
D25*
%TO.P,C8,2*%
%TO.N,/High Voltage/DC3-230V*%
X96482000Y-126401780D03*
%TD*%
D14*
%TO.P,J12,1,Pin_1*%
%TO.N,/High Voltage/DC1+230V*%
X129919000Y-45928500D03*
D15*
%TO.P,J12,2,Pin_2*%
%TO.N,/High Voltage/DC1-230V*%
X124839000Y-45928500D03*
%TD*%
D26*
%TO.P,J16,1,Pin_1*%
%TO.N,/High Voltage/DC3+230V*%
X99951500Y-111125000D03*
D15*
%TO.P,J16,2,Pin_2*%
%TO.N,/High Voltage/DC3-230V*%
X99951500Y-106045000D03*
%TD*%
D26*
%TO.P,J13,1,Pin_1*%
%TO.N,/High Voltage/DC2+5V*%
X100205500Y-48133000D03*
D15*
%TO.P,J13,2,Pin_2*%
%TO.N,/High Voltage/DC2-GND*%
X100205500Y-43053000D03*
%TD*%
D10*
%TO.P,D1,1,+*%
%TO.N,unconnected-(D1-+-Pad1)*%
X131534000Y-121534000D03*
D11*
%TO.P,D1,2*%
%TO.N,unconnected-(D1-Pad2)*%
X136614000Y-121534000D03*
%TO.P,D1,3*%
%TO.N,unconnected-(D1-Pad3)*%
X141694000Y-121534000D03*
%TO.P,D1,4,-*%
%TO.N,unconnected-(D1---Pad4)*%
X146774000Y-121534000D03*
%TD*%
D20*
%TO.P,C12,1*%
%TO.N,/High Voltage/DC1+230V*%
X146855677Y-65400000D03*
D21*
%TO.P,C12,2*%
%TO.N,/High Voltage/DC1-230V*%
X141855677Y-65400000D03*
%TD*%
D16*
%TO.P,J21,1,Pin_1*%
%TO.N,Net-(J19-Pin_1)*%
X112460000Y-114930000D03*
D17*
%TO.P,J21,2,Pin_2*%
%TO.N,Net-(J19-Pin_2)*%
X115000000Y-114930000D03*
%TD*%
D28*
%TO.P,D3,1,+*%
%TO.N,/High Voltage/DC2+230V*%
X73876000Y-83548000D03*
%TO.P,D3,2,-*%
%TO.N,/High Voltage/DC2-230V*%
X73876000Y-78468000D03*
%TO.P,D3,3*%
%TO.N,/High Voltage/N2*%
X66256000Y-78468000D03*
%TO.P,D3,4*%
%TO.N,/High Voltage/L2*%
X66256000Y-83548000D03*
%TD*%
D29*
%TO.P,C10,1*%
%TO.N,/High Voltage/DC2+230V*%
X80480000Y-75387677D03*
D21*
%TO.P,C10,2*%
%TO.N,/High Voltage/DC2-230V*%
X80480000Y-70387677D03*
%TD*%
D19*
%TO.P,J10,1,Pin_1*%
%TO.N,/High Voltage/L3*%
X56182500Y-126355000D03*
D15*
%TO.P,J10,2,Pin_2*%
%TO.N,/High Voltage/PE3*%
X56182500Y-131435000D03*
%TO.P,J10,3,Pin_3*%
%TO.N,/High Voltage/N3*%
X56182500Y-136515000D03*
%TD*%
D26*
%TO.P,J14,1,Pin_1*%
%TO.N,/High Voltage/DC2+230V*%
X100205500Y-62352000D03*
D15*
%TO.P,J14,2,Pin_2*%
%TO.N,/High Voltage/DC2-230V*%
X100205500Y-57272000D03*
%TD*%
D16*
%TO.P,J2,1,Pin_1*%
%TO.N,Net-(J1-Pin_1)*%
X147790000Y-111120000D03*
D17*
%TO.P,J2,2,Pin_2*%
%TO.N,Net-(J1-Pin_2)*%
X147790000Y-108580000D03*
%TO.P,J2,3,Pin_3*%
%TO.N,Net-(J1-Pin_3)*%
X147790000Y-106040000D03*
%TO.P,J2,4,Pin_4*%
%TO.N,Net-(J1-Pin_4)*%
X147790000Y-103500000D03*
%TD*%
D20*
%TO.P,C9,1*%
%TO.N,/High Voltage/DC1+230V*%
X141521677Y-55494000D03*
D21*
%TO.P,C9,2*%
%TO.N,/High Voltage/DC1-230V*%
X136521677Y-55494000D03*
%TD*%
D30*
%TO.P,PS1,1,AC/L*%
%TO.N,/High Voltage/L1*%
X117152000Y-91634000D03*
D31*
%TO.P,PS1,2,AC/N*%
%TO.N,/High Voltage/N1*%
X123152000Y-91634000D03*
%TO.P,PS1,3,-Vout*%
%TO.N,/High Voltage/DC1-GND*%
X111152000Y-58034000D03*
%TO.P,PS1,4,+Vout*%
%TO.N,/High Voltage/DC1+5V*%
X129152000Y-58034000D03*
%TD*%
D10*
%TO.P,D6,1,+*%
%TO.N,unconnected-(D6-+-Pad1)*%
X111214000Y-126614000D03*
D11*
%TO.P,D6,2*%
%TO.N,unconnected-(D6-Pad2)*%
X116294000Y-126614000D03*
%TO.P,D6,3*%
%TO.N,unconnected-(D6-Pad3)*%
X121374000Y-126614000D03*
%TO.P,D6,4,-*%
%TO.N,unconnected-(D6---Pad4)*%
X126454000Y-126614000D03*
%TD*%
D32*
%TO.N,/High Voltage/DC1+230V*%
X146774000Y-51684000D02*
X146855677Y-51602323D01*
X146774000Y-53208000D02*
X146774000Y-51684000D01*
X146855677Y-51602323D02*
X146855677Y-45588000D01*
X144488000Y-55494000D02*
X146774000Y-53208000D01*
X143694000Y-72798000D02*
X146855677Y-69636323D01*
X143694000Y-74109000D02*
X143694000Y-72798000D01*
X146855677Y-65400000D02*
X146855677Y-57861677D01*
X146855677Y-69636323D02*
X146855677Y-65400000D01*
X146855677Y-57861677D02*
X144488000Y-55494000D01*
X141521677Y-55494000D02*
X144488000Y-55494000D01*
%TO.N,/High Voltage/DC1-230V*%
X136521677Y-63275677D02*
X138646000Y-65400000D01*
X136521677Y-55494000D02*
X136521677Y-47458323D01*
X138392000Y-45588000D02*
X141855677Y-45588000D01*
X139694000Y-74109000D02*
X139694000Y-71210000D01*
X136521677Y-55494000D02*
X136521677Y-63275677D01*
X141855677Y-69048323D02*
X141855677Y-65400000D01*
X139694000Y-71210000D02*
X141855677Y-69048323D01*
X136521677Y-47458323D02*
X138392000Y-45588000D01*
X138646000Y-65400000D02*
X141855677Y-65400000D01*
D33*
%TO.N,/High Voltage/DC2-230V*%
X77270323Y-70387677D02*
X80480000Y-70387677D01*
X98006000Y-57272000D02*
X94450000Y-60828000D01*
X73876000Y-73782000D02*
X77270323Y-70387677D01*
X100205500Y-57272000D02*
X98006000Y-57272000D01*
X73876000Y-78468000D02*
X73876000Y-73782000D01*
X94450000Y-70145780D02*
X96482000Y-72177780D01*
X85721677Y-70387677D02*
X87511780Y-72177780D01*
X94450000Y-60828000D02*
X94450000Y-70145780D01*
X80480000Y-70387677D02*
X85721677Y-70387677D01*
X87511780Y-72177780D02*
X96482000Y-72177780D01*
D34*
%TO.N,/High Voltage/DC3-230V*%
X72774780Y-126401780D02*
X76416000Y-126401780D01*
X76416000Y-126401780D02*
X96482000Y-126401780D01*
X96858000Y-106045000D02*
X94196000Y-108707000D01*
X94196000Y-108707000D02*
X94196000Y-124115780D01*
X69558000Y-117724000D02*
X69558000Y-123185000D01*
X99951500Y-106045000D02*
X96858000Y-106045000D01*
X69558000Y-123185000D02*
X72774780Y-126401780D01*
X94196000Y-124115780D02*
X96482000Y-126401780D01*
D32*
%TO.N,/High Voltage/N1*%
X125511000Y-80059000D02*
X139694000Y-80059000D01*
X123152000Y-84704000D02*
X123152000Y-82418000D01*
X123152000Y-91634000D02*
X123152000Y-84704000D01*
X123152000Y-82418000D02*
X125511000Y-80059000D01*
%TO.N,/High Voltage/L1*%
X136614000Y-89784000D02*
X136614000Y-87244000D01*
X136614000Y-87244000D02*
X138392000Y-85466000D01*
X143694000Y-83910000D02*
X143694000Y-80059000D01*
X142202000Y-85466000D02*
X143726000Y-83942000D01*
X138392000Y-85466000D02*
X142202000Y-85466000D01*
X143726000Y-83942000D02*
X143694000Y-83910000D01*
D33*
%TO.N,/High Voltage/N2*%
X54319500Y-56245500D02*
X60657500Y-56245500D01*
X66256000Y-61844000D02*
X66256000Y-78468000D01*
X63602000Y-78468000D02*
X66256000Y-78468000D01*
X60657500Y-56245500D02*
X66256000Y-61844000D01*
X59403000Y-82667000D02*
X63602000Y-78468000D01*
X55928500Y-82667000D02*
X59403000Y-82667000D01*
%TO.N,/High Voltage/L3*%
X60747500Y-98245500D02*
X64478000Y-101976000D01*
X54319500Y-98245500D02*
X60747500Y-98245500D01*
X64478000Y-101976000D02*
X64478000Y-117724000D01*
D34*
%TO.N,/High Voltage/N3*%
X59398000Y-121534000D02*
X59398000Y-117724000D01*
X62319000Y-124455000D02*
X59398000Y-121534000D01*
X62319000Y-134234000D02*
X62319000Y-124455000D01*
X56182500Y-136515000D02*
X60038000Y-136515000D01*
D33*
X59398000Y-105786000D02*
X57857500Y-104245500D01*
X57857500Y-104245500D02*
X54319500Y-104245500D01*
X59398000Y-117724000D02*
X59398000Y-105786000D01*
D34*
X60038000Y-136515000D02*
X62319000Y-134234000D01*
D33*
%TO.N,/High Voltage/DC2-GND*%
X95212000Y-43048000D02*
X95217000Y-43053000D01*
X95217000Y-43053000D02*
X100205500Y-43053000D01*
X94014500Y-44245500D02*
X95212000Y-43048000D01*
X87919500Y-44245500D02*
X94014500Y-44245500D01*
%TO.N,/High Voltage/DC3-GND*%
X93101500Y-92245500D02*
X87919500Y-92245500D01*
X93180000Y-92324000D02*
X93101500Y-92245500D01*
X94191000Y-91313000D02*
X93180000Y-92324000D01*
X99951500Y-91313000D02*
X94191000Y-91313000D01*
%TD*%
M02*
