%TF.GenerationSoftware,KiCad,Pcbnew,9.0.2*%
%TF.CreationDate,2025-06-27T09:26:43+02:00*%
%TF.ProjectId,led_driver_220v_p1,6c65645f-6472-4697-9665-725f32323076,rev?*%
%TF.SameCoordinates,Original*%
%TF.FileFunction,Soldermask,Bot*%
%TF.FilePolarity,Negative*%
%FSLAX46Y46*%
G04 Gerber Fmt 4.6, Leading zero omitted, Abs format (unit mm)*
G04 Created by KiCad (PCBNEW 9.0.2) date 2025-06-27 09:26:43*
%MOMM*%
%LPD*%
G01*
G04 APERTURE LIST*
G04 Aperture macros list*
%AMRoundRect*
0 Rectangle with rounded corners*
0 $1 Rounding radius*
0 $2 $3 $4 $5 $6 $7 $8 $9 X,Y pos of 4 corners*
0 Add a 4 corners polygon primitive as box body*
4,1,4,$2,$3,$4,$5,$6,$7,$8,$9,$2,$3,0*
0 Add four circle primitives for the rounded corners*
1,1,$1+$1,$2,$3*
1,1,$1+$1,$4,$5*
1,1,$1+$1,$6,$7*
1,1,$1+$1,$8,$9*
0 Add four rect primitives between the rounded corners*
20,1,$1+$1,$2,$3,$4,$5,0*
20,1,$1+$1,$4,$5,$6,$7,0*
20,1,$1+$1,$6,$7,$8,$9,0*
20,1,$1+$1,$8,$9,$2,$3,0*%
%AMFreePoly0*
4,1,23,0.910000,-1.100000,-0.400000,-1.100000,-0.400000,-1.095722,-0.477763,-1.095722,-0.603842,-1.061940,-0.716881,-0.996677,-0.809177,-0.904381,-0.874440,-0.791342,-0.908222,-0.665263,-0.908222,-0.600000,-0.910000,-0.600000,-0.910000,0.600000,-0.908222,0.600000,-0.908222,0.665263,-0.874440,0.791342,-0.809177,0.904381,-0.716881,0.996677,-0.603842,1.061940,-0.477763,1.095722,-0.400000,1.095722,
-0.400000,1.100000,0.910000,1.100000,0.910000,-1.100000,0.910000,-1.100000,$1*%
%AMFreePoly1*
4,1,23,0.410000,1.095722,0.475263,1.095722,0.601342,1.061940,0.714381,0.996677,0.806677,0.904381,0.871940,0.791342,0.905722,0.665263,0.905722,0.600000,0.910000,0.600000,0.910000,-0.600000,0.905722,-0.600000,0.905722,-0.665263,0.871940,-0.791342,0.806677,-0.904381,0.714381,-0.996677,0.601342,-1.061940,0.475263,-1.095722,0.410000,-1.095722,0.410000,-1.100000,-0.910000,-1.100000,
-0.910000,1.100000,0.410000,1.100000,0.410000,1.095722,0.410000,1.095722,$1*%
G04 Aperture macros list end*
%ADD10R,3.200000X3.200000*%
%ADD11C,3.200000*%
%ADD12R,2.200000X3.000000*%
%ADD13O,2.200000X3.000000*%
%ADD14RoundRect,0.288462X1.211538X1.211538X-1.211538X1.211538X-1.211538X-1.211538X1.211538X-1.211538X0*%
%ADD15C,3.000000*%
%ADD16R,2.100000X2.100000*%
%ADD17C,2.100000*%
%ADD18RoundRect,0.288462X-1.211538X-1.211538X1.211538X-1.211538X1.211538X1.211538X-1.211538X1.211538X0*%
%ADD19RoundRect,0.288462X-1.211538X1.211538X-1.211538X-1.211538X1.211538X-1.211538X1.211538X1.211538X0*%
%ADD20RoundRect,0.250000X0.750000X0.750000X-0.750000X0.750000X-0.750000X-0.750000X0.750000X-0.750000X0*%
%ADD21C,2.000000*%
%ADD22RoundRect,0.250001X0.949999X-0.949999X0.949999X0.949999X-0.949999X0.949999X-0.949999X-0.949999X0*%
%ADD23C,2.400000*%
%ADD24RoundRect,0.354168X1.345832X-1.345832X1.345832X1.345832X-1.345832X1.345832X-1.345832X-1.345832X0*%
%ADD25C,3.400000*%
%ADD26RoundRect,0.288462X1.211538X-1.211538X1.211538X1.211538X-1.211538X1.211538X-1.211538X-1.211538X0*%
%ADD27O,3.000000X3.000000*%
%ADD28RoundRect,0.250000X0.750000X-0.750000X0.750000X0.750000X-0.750000X0.750000X-0.750000X-0.750000X0*%
%ADD29R,3.000000X2.200000*%
%ADD30O,3.000000X2.200000*%
%ADD31FreePoly0,90.000000*%
%ADD32FreePoly1,90.000000*%
%ADD33FreePoly0,180.000000*%
%ADD34FreePoly1,180.000000*%
G04 APERTURE END LIST*
%TO.C,JP5*%
G36*
X81580000Y-54552000D02*
G01*
X79380000Y-54552000D01*
X79380000Y-52372000D01*
X81580000Y-52372000D01*
X81580000Y-54552000D01*
G37*
%TO.C,JP4*%
G36*
X122845000Y-63538000D02*
G01*
X120665000Y-63538000D01*
X120665000Y-65738000D01*
X122845000Y-65738000D01*
X122845000Y-63538000D01*
G37*
%TO.C,JP6*%
G36*
X82596000Y-102304000D02*
G01*
X80396000Y-102304000D01*
X80396000Y-100124000D01*
X82596000Y-100124000D01*
X82596000Y-102304000D01*
G37*
%TD*%
D10*
%TO.C,D9*%
X131534000Y-126614000D03*
D11*
X136614000Y-126614000D03*
X141694000Y-126614000D03*
X146774000Y-126614000D03*
%TD*%
D12*
%TO.C,PS2*%
X54319500Y-50245500D03*
D13*
X54319500Y-56245500D03*
X87919500Y-44245500D03*
X87919500Y-62245500D03*
%TD*%
D14*
%TO.C,J11*%
X115182000Y-45842000D03*
D15*
X110102000Y-45842000D03*
%TD*%
D16*
%TO.C,J20*%
X127978000Y-114930000D03*
D17*
X130518000Y-114930000D03*
X133058000Y-114930000D03*
%TD*%
D10*
%TO.C,D10*%
X131534000Y-131694000D03*
D11*
X136614000Y-131694000D03*
X141694000Y-131694000D03*
X146774000Y-131694000D03*
%TD*%
D10*
%TO.C,D5*%
X111214000Y-121534000D03*
D11*
X116294000Y-121534000D03*
X121374000Y-121534000D03*
X126454000Y-121534000D03*
%TD*%
D18*
%TO.C,J8*%
X136614000Y-89784000D03*
D15*
X141694000Y-89784000D03*
X146774000Y-89784000D03*
%TD*%
D19*
%TO.C,J9*%
X55928500Y-72507000D03*
D15*
X55928500Y-77587000D03*
X55928500Y-82667000D03*
%TD*%
D20*
%TO.C,C6*%
X146855677Y-45588000D03*
D21*
X141855677Y-45588000D03*
%TD*%
D18*
%TO.C,J19*%
X111468000Y-104389000D03*
D15*
X116548000Y-104389000D03*
%TD*%
D10*
%TO.C,D4*%
X54318000Y-117724000D03*
D11*
X59398000Y-117724000D03*
X64478000Y-117724000D03*
X69558000Y-117724000D03*
%TD*%
D22*
%TO.C,C7*%
X96482000Y-79677780D03*
D23*
X96482000Y-72177780D03*
%TD*%
D12*
%TO.C,PS3*%
X54319500Y-98245500D03*
D13*
X54319500Y-104245500D03*
X87919500Y-92245500D03*
X87919500Y-110245500D03*
%TD*%
D10*
%TO.C,D7*%
X111214000Y-131694000D03*
D11*
X116294000Y-131694000D03*
X121374000Y-131694000D03*
X126454000Y-131694000D03*
%TD*%
D10*
%TO.C,D8*%
X111214000Y-136774000D03*
D11*
X116294000Y-136774000D03*
X121374000Y-136774000D03*
X126454000Y-136774000D03*
%TD*%
D24*
%TO.C,C11*%
X76416000Y-133901780D03*
D25*
X76416000Y-126401780D03*
%TD*%
D18*
%TO.C,J18*%
X125418000Y-104429500D03*
D15*
X130498000Y-104429500D03*
X135578000Y-104429500D03*
%TD*%
D26*
%TO.C,J15*%
X99951500Y-96393000D03*
D15*
X99951500Y-91313000D03*
%TD*%
D10*
%TO.C,J1*%
X143345000Y-115184000D03*
D11*
X143345000Y-110104000D03*
X143345000Y-105024000D03*
X143345000Y-99944000D03*
%TD*%
D10*
%TO.C,D11*%
X131534000Y-136774000D03*
D11*
X136614000Y-136774000D03*
X141694000Y-136774000D03*
X146774000Y-136774000D03*
%TD*%
D24*
%TO.C,C8*%
X96482000Y-133901780D03*
D25*
X96482000Y-126401780D03*
%TD*%
D14*
%TO.C,J12*%
X129919000Y-45928500D03*
D15*
X124839000Y-45928500D03*
%TD*%
D26*
%TO.C,J16*%
X99951500Y-111125000D03*
D15*
X99951500Y-106045000D03*
%TD*%
D26*
%TO.C,J13*%
X100205500Y-48133000D03*
D15*
X100205500Y-43053000D03*
%TD*%
D10*
%TO.C,D1*%
X131534000Y-121534000D03*
D11*
X136614000Y-121534000D03*
X141694000Y-121534000D03*
X146774000Y-121534000D03*
%TD*%
D20*
%TO.C,C12*%
X146855677Y-65400000D03*
D21*
X141855677Y-65400000D03*
%TD*%
D16*
%TO.C,J21*%
X112460000Y-114930000D03*
D17*
X115000000Y-114930000D03*
%TD*%
D27*
%TO.C,D3*%
X73876000Y-83548000D03*
X73876000Y-78468000D03*
X66256000Y-78468000D03*
X66256000Y-83548000D03*
%TD*%
D28*
%TO.C,C10*%
X80480000Y-75387677D03*
D21*
X80480000Y-70387677D03*
%TD*%
D19*
%TO.C,J10*%
X56182500Y-126355000D03*
D15*
X56182500Y-131435000D03*
X56182500Y-136515000D03*
%TD*%
D26*
%TO.C,J14*%
X100205500Y-62352000D03*
D15*
X100205500Y-57272000D03*
%TD*%
D16*
%TO.C,J2*%
X147790000Y-111120000D03*
D17*
X147790000Y-108580000D03*
X147790000Y-106040000D03*
X147790000Y-103500000D03*
%TD*%
D20*
%TO.C,C9*%
X141521677Y-55494000D03*
D21*
X136521677Y-55494000D03*
%TD*%
D29*
%TO.C,PS1*%
X117152000Y-91634000D03*
D30*
X123152000Y-91634000D03*
X111152000Y-58034000D03*
X129152000Y-58034000D03*
%TD*%
D10*
%TO.C,D6*%
X111214000Y-126614000D03*
D11*
X116294000Y-126614000D03*
X121374000Y-126614000D03*
X126454000Y-126614000D03*
%TD*%
D31*
%TO.C,JP5*%
X80480000Y-55462000D03*
D32*
X80480000Y-51462000D03*
%TD*%
D33*
%TO.C,JP4*%
X123755000Y-64638000D03*
D34*
X119755000Y-64638000D03*
%TD*%
D31*
%TO.C,JP6*%
X81496000Y-103214000D03*
D32*
X81496000Y-99214000D03*
%TD*%
M02*
