%TF.GenerationSoftware,KiCad,Pcbnew,9.0.2*%
%TF.CreationDate,2025-06-27T09:26:43+02:00*%
%TF.ProjectId,led_driver_220v_p1,6c65645f-6472-4697-9665-725f32323076,rev?*%
%TF.SameCoordinates,Original*%
%TF.FileFunction,Legend,Top*%
%TF.FilePolarity,Positive*%
%FSLAX46Y46*%
G04 Gerber Fmt 4.6, Leading zero omitted, Abs format (unit mm)*
G04 Created by KiCad (PCBNEW 9.0.2) date 2025-06-27 09:26:43*
%MOMM*%
%LPD*%
G01*
G04 APERTURE LIST*
%ADD10C,0.150000*%
%ADD11C,0.100000*%
%ADD12C,0.120000*%
G04 APERTURE END LIST*
D10*
X59226779Y-121657819D02*
X59226779Y-120657819D01*
X59226779Y-120657819D02*
X59798207Y-121657819D01*
X59798207Y-121657819D02*
X59798207Y-120657819D01*
X64347819Y-132154285D02*
X63347819Y-132154285D01*
X63347819Y-132154285D02*
X63347819Y-131773333D01*
X63347819Y-131773333D02*
X63395438Y-131678095D01*
X63395438Y-131678095D02*
X63443057Y-131630476D01*
X63443057Y-131630476D02*
X63538295Y-131582857D01*
X63538295Y-131582857D02*
X63681152Y-131582857D01*
X63681152Y-131582857D02*
X63776390Y-131630476D01*
X63776390Y-131630476D02*
X63824009Y-131678095D01*
X63824009Y-131678095D02*
X63871628Y-131773333D01*
X63871628Y-131773333D02*
X63871628Y-132154285D01*
X63824009Y-131154285D02*
X63824009Y-130820952D01*
X64347819Y-130678095D02*
X64347819Y-131154285D01*
X64347819Y-131154285D02*
X63347819Y-131154285D01*
X63347819Y-131154285D02*
X63347819Y-130678095D01*
X51825905Y-121276866D02*
X52587810Y-121276866D01*
X52206857Y-121657819D02*
X52206857Y-120895914D01*
X53016381Y-120753057D02*
X53064000Y-120705438D01*
X53064000Y-120705438D02*
X53159238Y-120657819D01*
X53159238Y-120657819D02*
X53397333Y-120657819D01*
X53397333Y-120657819D02*
X53492571Y-120705438D01*
X53492571Y-120705438D02*
X53540190Y-120753057D01*
X53540190Y-120753057D02*
X53587809Y-120848295D01*
X53587809Y-120848295D02*
X53587809Y-120943533D01*
X53587809Y-120943533D02*
X53540190Y-121086390D01*
X53540190Y-121086390D02*
X52968762Y-121657819D01*
X52968762Y-121657819D02*
X53587809Y-121657819D01*
X53921143Y-120657819D02*
X54540190Y-120657819D01*
X54540190Y-120657819D02*
X54206857Y-121038771D01*
X54206857Y-121038771D02*
X54349714Y-121038771D01*
X54349714Y-121038771D02*
X54444952Y-121086390D01*
X54444952Y-121086390D02*
X54492571Y-121134009D01*
X54492571Y-121134009D02*
X54540190Y-121229247D01*
X54540190Y-121229247D02*
X54540190Y-121467342D01*
X54540190Y-121467342D02*
X54492571Y-121562580D01*
X54492571Y-121562580D02*
X54444952Y-121610200D01*
X54444952Y-121610200D02*
X54349714Y-121657819D01*
X54349714Y-121657819D02*
X54064000Y-121657819D01*
X54064000Y-121657819D02*
X53968762Y-121610200D01*
X53968762Y-121610200D02*
X53921143Y-121562580D01*
X55159238Y-120657819D02*
X55254476Y-120657819D01*
X55254476Y-120657819D02*
X55349714Y-120705438D01*
X55349714Y-120705438D02*
X55397333Y-120753057D01*
X55397333Y-120753057D02*
X55444952Y-120848295D01*
X55444952Y-120848295D02*
X55492571Y-121038771D01*
X55492571Y-121038771D02*
X55492571Y-121276866D01*
X55492571Y-121276866D02*
X55444952Y-121467342D01*
X55444952Y-121467342D02*
X55397333Y-121562580D01*
X55397333Y-121562580D02*
X55349714Y-121610200D01*
X55349714Y-121610200D02*
X55254476Y-121657819D01*
X55254476Y-121657819D02*
X55159238Y-121657819D01*
X55159238Y-121657819D02*
X55064000Y-121610200D01*
X55064000Y-121610200D02*
X55016381Y-121562580D01*
X55016381Y-121562580D02*
X54968762Y-121467342D01*
X54968762Y-121467342D02*
X54921143Y-121276866D01*
X54921143Y-121276866D02*
X54921143Y-121038771D01*
X54921143Y-121038771D02*
X54968762Y-120848295D01*
X54968762Y-120848295D02*
X55016381Y-120753057D01*
X55016381Y-120753057D02*
X55064000Y-120705438D01*
X55064000Y-120705438D02*
X55159238Y-120657819D01*
X55778286Y-120657819D02*
X56111619Y-121657819D01*
X56111619Y-121657819D02*
X56444952Y-120657819D01*
X126691904Y-52861895D02*
X126215714Y-52861895D01*
X126787142Y-52576180D02*
X126453809Y-53576180D01*
X126453809Y-53576180D02*
X126120476Y-52576180D01*
X125263333Y-53528561D02*
X125358571Y-53576180D01*
X125358571Y-53576180D02*
X125501428Y-53576180D01*
X125501428Y-53576180D02*
X125644285Y-53528561D01*
X125644285Y-53528561D02*
X125739523Y-53433323D01*
X125739523Y-53433323D02*
X125787142Y-53338085D01*
X125787142Y-53338085D02*
X125834761Y-53147609D01*
X125834761Y-53147609D02*
X125834761Y-53004752D01*
X125834761Y-53004752D02*
X125787142Y-52814276D01*
X125787142Y-52814276D02*
X125739523Y-52719038D01*
X125739523Y-52719038D02*
X125644285Y-52623800D01*
X125644285Y-52623800D02*
X125501428Y-52576180D01*
X125501428Y-52576180D02*
X125406190Y-52576180D01*
X125406190Y-52576180D02*
X125263333Y-52623800D01*
X125263333Y-52623800D02*
X125215714Y-52671419D01*
X125215714Y-52671419D02*
X125215714Y-53004752D01*
X125215714Y-53004752D02*
X125406190Y-53004752D01*
X124787142Y-52576180D02*
X124787142Y-53576180D01*
X124787142Y-53576180D02*
X124215714Y-52576180D01*
X124215714Y-52576180D02*
X124215714Y-53576180D01*
X123739523Y-52576180D02*
X123739523Y-53576180D01*
X123739523Y-53576180D02*
X123501428Y-53576180D01*
X123501428Y-53576180D02*
X123358571Y-53528561D01*
X123358571Y-53528561D02*
X123263333Y-53433323D01*
X123263333Y-53433323D02*
X123215714Y-53338085D01*
X123215714Y-53338085D02*
X123168095Y-53147609D01*
X123168095Y-53147609D02*
X123168095Y-53004752D01*
X123168095Y-53004752D02*
X123215714Y-52814276D01*
X123215714Y-52814276D02*
X123263333Y-52719038D01*
X123263333Y-52719038D02*
X123358571Y-52623800D01*
X123358571Y-52623800D02*
X123501428Y-52576180D01*
X123501428Y-52576180D02*
X123739523Y-52576180D01*
X64782969Y-121657819D02*
X64306779Y-121657819D01*
X64306779Y-121657819D02*
X64306779Y-120657819D01*
X110959904Y-53528561D02*
X111055142Y-53576180D01*
X111055142Y-53576180D02*
X111197999Y-53576180D01*
X111197999Y-53576180D02*
X111340856Y-53528561D01*
X111340856Y-53528561D02*
X111436094Y-53433323D01*
X111436094Y-53433323D02*
X111483713Y-53338085D01*
X111483713Y-53338085D02*
X111531332Y-53147609D01*
X111531332Y-53147609D02*
X111531332Y-53004752D01*
X111531332Y-53004752D02*
X111483713Y-52814276D01*
X111483713Y-52814276D02*
X111436094Y-52719038D01*
X111436094Y-52719038D02*
X111340856Y-52623800D01*
X111340856Y-52623800D02*
X111197999Y-52576180D01*
X111197999Y-52576180D02*
X111102761Y-52576180D01*
X111102761Y-52576180D02*
X110959904Y-52623800D01*
X110959904Y-52623800D02*
X110912285Y-52671419D01*
X110912285Y-52671419D02*
X110912285Y-53004752D01*
X110912285Y-53004752D02*
X111102761Y-53004752D01*
X110483713Y-52576180D02*
X110483713Y-53576180D01*
X110483713Y-53576180D02*
X109912285Y-52576180D01*
X109912285Y-52576180D02*
X109912285Y-53576180D01*
X109436094Y-52576180D02*
X109436094Y-53576180D01*
X109436094Y-53576180D02*
X109197999Y-53576180D01*
X109197999Y-53576180D02*
X109055142Y-53528561D01*
X109055142Y-53528561D02*
X108959904Y-53433323D01*
X108959904Y-53433323D02*
X108912285Y-53338085D01*
X108912285Y-53338085D02*
X108864666Y-53147609D01*
X108864666Y-53147609D02*
X108864666Y-53004752D01*
X108864666Y-53004752D02*
X108912285Y-52814276D01*
X108912285Y-52814276D02*
X108959904Y-52719038D01*
X108959904Y-52719038D02*
X109055142Y-52623800D01*
X109055142Y-52623800D02*
X109197999Y-52576180D01*
X109197999Y-52576180D02*
X109436094Y-52576180D01*
X132248094Y-52957133D02*
X131486190Y-52957133D01*
X131867142Y-52576180D02*
X131867142Y-53338085D01*
X131057618Y-53480942D02*
X131009999Y-53528561D01*
X131009999Y-53528561D02*
X130914761Y-53576180D01*
X130914761Y-53576180D02*
X130676666Y-53576180D01*
X130676666Y-53576180D02*
X130581428Y-53528561D01*
X130581428Y-53528561D02*
X130533809Y-53480942D01*
X130533809Y-53480942D02*
X130486190Y-53385704D01*
X130486190Y-53385704D02*
X130486190Y-53290466D01*
X130486190Y-53290466D02*
X130533809Y-53147609D01*
X130533809Y-53147609D02*
X131105237Y-52576180D01*
X131105237Y-52576180D02*
X130486190Y-52576180D01*
X130152856Y-53576180D02*
X129533809Y-53576180D01*
X129533809Y-53576180D02*
X129867142Y-53195228D01*
X129867142Y-53195228D02*
X129724285Y-53195228D01*
X129724285Y-53195228D02*
X129629047Y-53147609D01*
X129629047Y-53147609D02*
X129581428Y-53099990D01*
X129581428Y-53099990D02*
X129533809Y-53004752D01*
X129533809Y-53004752D02*
X129533809Y-52766657D01*
X129533809Y-52766657D02*
X129581428Y-52671419D01*
X129581428Y-52671419D02*
X129629047Y-52623800D01*
X129629047Y-52623800D02*
X129724285Y-52576180D01*
X129724285Y-52576180D02*
X130009999Y-52576180D01*
X130009999Y-52576180D02*
X130105237Y-52623800D01*
X130105237Y-52623800D02*
X130152856Y-52671419D01*
X128914761Y-53576180D02*
X128819523Y-53576180D01*
X128819523Y-53576180D02*
X128724285Y-53528561D01*
X128724285Y-53528561D02*
X128676666Y-53480942D01*
X128676666Y-53480942D02*
X128629047Y-53385704D01*
X128629047Y-53385704D02*
X128581428Y-53195228D01*
X128581428Y-53195228D02*
X128581428Y-52957133D01*
X128581428Y-52957133D02*
X128629047Y-52766657D01*
X128629047Y-52766657D02*
X128676666Y-52671419D01*
X128676666Y-52671419D02*
X128724285Y-52623800D01*
X128724285Y-52623800D02*
X128819523Y-52576180D01*
X128819523Y-52576180D02*
X128914761Y-52576180D01*
X128914761Y-52576180D02*
X129009999Y-52623800D01*
X129009999Y-52623800D02*
X129057618Y-52671419D01*
X129057618Y-52671419D02*
X129105237Y-52766657D01*
X129105237Y-52766657D02*
X129152856Y-52957133D01*
X129152856Y-52957133D02*
X129152856Y-53195228D01*
X129152856Y-53195228D02*
X129105237Y-53385704D01*
X129105237Y-53385704D02*
X129057618Y-53480942D01*
X129057618Y-53480942D02*
X129009999Y-53528561D01*
X129009999Y-53528561D02*
X128914761Y-53576180D01*
X128295713Y-53576180D02*
X127962380Y-52576180D01*
X127962380Y-52576180D02*
X127629047Y-53576180D01*
X136304476Y-81786180D02*
X136780666Y-81786180D01*
X136780666Y-81786180D02*
X136780666Y-82786180D01*
D11*
X65970286Y-81528419D02*
X65970286Y-80528419D01*
X65970286Y-80528419D02*
X66541714Y-81528419D01*
X66541714Y-81528419D02*
X66541714Y-80528419D01*
D10*
X147059713Y-81786180D02*
X147059713Y-82786180D01*
X147059713Y-82786180D02*
X146488285Y-81786180D01*
X146488285Y-81786180D02*
X146488285Y-82786180D01*
X63839819Y-82957713D02*
X62839819Y-82957713D01*
X62839819Y-82957713D02*
X63839819Y-82386285D01*
X63839819Y-82386285D02*
X62839819Y-82386285D01*
X92605438Y-43809904D02*
X92557819Y-43905142D01*
X92557819Y-43905142D02*
X92557819Y-44047999D01*
X92557819Y-44047999D02*
X92605438Y-44190856D01*
X92605438Y-44190856D02*
X92700676Y-44286094D01*
X92700676Y-44286094D02*
X92795914Y-44333713D01*
X92795914Y-44333713D02*
X92986390Y-44381332D01*
X92986390Y-44381332D02*
X93129247Y-44381332D01*
X93129247Y-44381332D02*
X93319723Y-44333713D01*
X93319723Y-44333713D02*
X93414961Y-44286094D01*
X93414961Y-44286094D02*
X93510200Y-44190856D01*
X93510200Y-44190856D02*
X93557819Y-44047999D01*
X93557819Y-44047999D02*
X93557819Y-43952761D01*
X93557819Y-43952761D02*
X93510200Y-43809904D01*
X93510200Y-43809904D02*
X93462580Y-43762285D01*
X93462580Y-43762285D02*
X93129247Y-43762285D01*
X93129247Y-43762285D02*
X93129247Y-43952761D01*
X93557819Y-43333713D02*
X92557819Y-43333713D01*
X92557819Y-43333713D02*
X93557819Y-42762285D01*
X93557819Y-42762285D02*
X92557819Y-42762285D01*
X93557819Y-42286094D02*
X92557819Y-42286094D01*
X92557819Y-42286094D02*
X92557819Y-42047999D01*
X92557819Y-42047999D02*
X92605438Y-41905142D01*
X92605438Y-41905142D02*
X92700676Y-41809904D01*
X92700676Y-41809904D02*
X92795914Y-41762285D01*
X92795914Y-41762285D02*
X92986390Y-41714666D01*
X92986390Y-41714666D02*
X93129247Y-41714666D01*
X93129247Y-41714666D02*
X93319723Y-41762285D01*
X93319723Y-41762285D02*
X93414961Y-41809904D01*
X93414961Y-41809904D02*
X93510200Y-41905142D01*
X93510200Y-41905142D02*
X93557819Y-42047999D01*
X93557819Y-42047999D02*
X93557819Y-42286094D01*
X142408285Y-81786180D02*
X142408285Y-82786180D01*
X142408285Y-82786180D02*
X142027333Y-82786180D01*
X142027333Y-82786180D02*
X141932095Y-82738561D01*
X141932095Y-82738561D02*
X141884476Y-82690942D01*
X141884476Y-82690942D02*
X141836857Y-82595704D01*
X141836857Y-82595704D02*
X141836857Y-82452847D01*
X141836857Y-82452847D02*
X141884476Y-82357609D01*
X141884476Y-82357609D02*
X141932095Y-82309990D01*
X141932095Y-82309990D02*
X142027333Y-82262371D01*
X142027333Y-82262371D02*
X142408285Y-82262371D01*
X141408285Y-82309990D02*
X141074952Y-82309990D01*
X140932095Y-81786180D02*
X141408285Y-81786180D01*
X141408285Y-81786180D02*
X141408285Y-82786180D01*
X141408285Y-82786180D02*
X140932095Y-82786180D01*
X64347819Y-136805713D02*
X63347819Y-136805713D01*
X63347819Y-136805713D02*
X64347819Y-136234285D01*
X64347819Y-136234285D02*
X63347819Y-136234285D01*
X92922866Y-113866094D02*
X92922866Y-113104190D01*
X93303819Y-113485142D02*
X92541914Y-113485142D01*
X92399057Y-112675618D02*
X92351438Y-112627999D01*
X92351438Y-112627999D02*
X92303819Y-112532761D01*
X92303819Y-112532761D02*
X92303819Y-112294666D01*
X92303819Y-112294666D02*
X92351438Y-112199428D01*
X92351438Y-112199428D02*
X92399057Y-112151809D01*
X92399057Y-112151809D02*
X92494295Y-112104190D01*
X92494295Y-112104190D02*
X92589533Y-112104190D01*
X92589533Y-112104190D02*
X92732390Y-112151809D01*
X92732390Y-112151809D02*
X93303819Y-112723237D01*
X93303819Y-112723237D02*
X93303819Y-112104190D01*
X92303819Y-111770856D02*
X92303819Y-111151809D01*
X92303819Y-111151809D02*
X92684771Y-111485142D01*
X92684771Y-111485142D02*
X92684771Y-111342285D01*
X92684771Y-111342285D02*
X92732390Y-111247047D01*
X92732390Y-111247047D02*
X92780009Y-111199428D01*
X92780009Y-111199428D02*
X92875247Y-111151809D01*
X92875247Y-111151809D02*
X93113342Y-111151809D01*
X93113342Y-111151809D02*
X93208580Y-111199428D01*
X93208580Y-111199428D02*
X93256200Y-111247047D01*
X93256200Y-111247047D02*
X93303819Y-111342285D01*
X93303819Y-111342285D02*
X93303819Y-111627999D01*
X93303819Y-111627999D02*
X93256200Y-111723237D01*
X93256200Y-111723237D02*
X93208580Y-111770856D01*
X92303819Y-110532761D02*
X92303819Y-110437523D01*
X92303819Y-110437523D02*
X92351438Y-110342285D01*
X92351438Y-110342285D02*
X92399057Y-110294666D01*
X92399057Y-110294666D02*
X92494295Y-110247047D01*
X92494295Y-110247047D02*
X92684771Y-110199428D01*
X92684771Y-110199428D02*
X92922866Y-110199428D01*
X92922866Y-110199428D02*
X93113342Y-110247047D01*
X93113342Y-110247047D02*
X93208580Y-110294666D01*
X93208580Y-110294666D02*
X93256200Y-110342285D01*
X93256200Y-110342285D02*
X93303819Y-110437523D01*
X93303819Y-110437523D02*
X93303819Y-110532761D01*
X93303819Y-110532761D02*
X93256200Y-110627999D01*
X93256200Y-110627999D02*
X93208580Y-110675618D01*
X93208580Y-110675618D02*
X93113342Y-110723237D01*
X93113342Y-110723237D02*
X92922866Y-110770856D01*
X92922866Y-110770856D02*
X92684771Y-110770856D01*
X92684771Y-110770856D02*
X92494295Y-110723237D01*
X92494295Y-110723237D02*
X92399057Y-110675618D01*
X92399057Y-110675618D02*
X92351438Y-110627999D01*
X92351438Y-110627999D02*
X92303819Y-110532761D01*
X92303819Y-109913713D02*
X93303819Y-109580380D01*
X93303819Y-109580380D02*
X92303819Y-109247047D01*
X64347819Y-126050476D02*
X64347819Y-126526666D01*
X64347819Y-126526666D02*
X63347819Y-126526666D01*
X93018104Y-108055904D02*
X93018104Y-107579714D01*
X93303819Y-108151142D02*
X92303819Y-107817809D01*
X92303819Y-107817809D02*
X93303819Y-107484476D01*
X92351438Y-106627333D02*
X92303819Y-106722571D01*
X92303819Y-106722571D02*
X92303819Y-106865428D01*
X92303819Y-106865428D02*
X92351438Y-107008285D01*
X92351438Y-107008285D02*
X92446676Y-107103523D01*
X92446676Y-107103523D02*
X92541914Y-107151142D01*
X92541914Y-107151142D02*
X92732390Y-107198761D01*
X92732390Y-107198761D02*
X92875247Y-107198761D01*
X92875247Y-107198761D02*
X93065723Y-107151142D01*
X93065723Y-107151142D02*
X93160961Y-107103523D01*
X93160961Y-107103523D02*
X93256200Y-107008285D01*
X93256200Y-107008285D02*
X93303819Y-106865428D01*
X93303819Y-106865428D02*
X93303819Y-106770190D01*
X93303819Y-106770190D02*
X93256200Y-106627333D01*
X93256200Y-106627333D02*
X93208580Y-106579714D01*
X93208580Y-106579714D02*
X92875247Y-106579714D01*
X92875247Y-106579714D02*
X92875247Y-106770190D01*
X93303819Y-106151142D02*
X92303819Y-106151142D01*
X92303819Y-106151142D02*
X93303819Y-105579714D01*
X93303819Y-105579714D02*
X92303819Y-105579714D01*
X93303819Y-105103523D02*
X92303819Y-105103523D01*
X92303819Y-105103523D02*
X92303819Y-104865428D01*
X92303819Y-104865428D02*
X92351438Y-104722571D01*
X92351438Y-104722571D02*
X92446676Y-104627333D01*
X92446676Y-104627333D02*
X92541914Y-104579714D01*
X92541914Y-104579714D02*
X92732390Y-104532095D01*
X92732390Y-104532095D02*
X92875247Y-104532095D01*
X92875247Y-104532095D02*
X93065723Y-104579714D01*
X93065723Y-104579714D02*
X93160961Y-104627333D01*
X93160961Y-104627333D02*
X93256200Y-104722571D01*
X93256200Y-104722571D02*
X93303819Y-104865428D01*
X93303819Y-104865428D02*
X93303819Y-105103523D01*
X63839819Y-72202476D02*
X63839819Y-72678666D01*
X63839819Y-72678666D02*
X62839819Y-72678666D01*
D11*
X66565523Y-76194419D02*
X66089333Y-76194419D01*
X66089333Y-76194419D02*
X66089333Y-75194419D01*
D10*
X63839819Y-78306285D02*
X62839819Y-78306285D01*
X62839819Y-78306285D02*
X62839819Y-77925333D01*
X62839819Y-77925333D02*
X62887438Y-77830095D01*
X62887438Y-77830095D02*
X62935057Y-77782476D01*
X62935057Y-77782476D02*
X63030295Y-77734857D01*
X63030295Y-77734857D02*
X63173152Y-77734857D01*
X63173152Y-77734857D02*
X63268390Y-77782476D01*
X63268390Y-77782476D02*
X63316009Y-77830095D01*
X63316009Y-77830095D02*
X63363628Y-77925333D01*
X63363628Y-77925333D02*
X63363628Y-78306285D01*
X63316009Y-77306285D02*
X63316009Y-76972952D01*
X63839819Y-76830095D02*
X63839819Y-77306285D01*
X63839819Y-77306285D02*
X62839819Y-77306285D01*
X62839819Y-77306285D02*
X62839819Y-76830095D01*
X92351438Y-92069904D02*
X92303819Y-92165142D01*
X92303819Y-92165142D02*
X92303819Y-92307999D01*
X92303819Y-92307999D02*
X92351438Y-92450856D01*
X92351438Y-92450856D02*
X92446676Y-92546094D01*
X92446676Y-92546094D02*
X92541914Y-92593713D01*
X92541914Y-92593713D02*
X92732390Y-92641332D01*
X92732390Y-92641332D02*
X92875247Y-92641332D01*
X92875247Y-92641332D02*
X93065723Y-92593713D01*
X93065723Y-92593713D02*
X93160961Y-92546094D01*
X93160961Y-92546094D02*
X93256200Y-92450856D01*
X93256200Y-92450856D02*
X93303819Y-92307999D01*
X93303819Y-92307999D02*
X93303819Y-92212761D01*
X93303819Y-92212761D02*
X93256200Y-92069904D01*
X93256200Y-92069904D02*
X93208580Y-92022285D01*
X93208580Y-92022285D02*
X92875247Y-92022285D01*
X92875247Y-92022285D02*
X92875247Y-92212761D01*
X93303819Y-91593713D02*
X92303819Y-91593713D01*
X92303819Y-91593713D02*
X93303819Y-91022285D01*
X93303819Y-91022285D02*
X92303819Y-91022285D01*
X93303819Y-90546094D02*
X92303819Y-90546094D01*
X92303819Y-90546094D02*
X92303819Y-90307999D01*
X92303819Y-90307999D02*
X92351438Y-90165142D01*
X92351438Y-90165142D02*
X92446676Y-90069904D01*
X92446676Y-90069904D02*
X92541914Y-90022285D01*
X92541914Y-90022285D02*
X92732390Y-89974666D01*
X92732390Y-89974666D02*
X92875247Y-89974666D01*
X92875247Y-89974666D02*
X93065723Y-90022285D01*
X93065723Y-90022285D02*
X93160961Y-90069904D01*
X93160961Y-90069904D02*
X93256200Y-90165142D01*
X93256200Y-90165142D02*
X93303819Y-90307999D01*
X93303819Y-90307999D02*
X93303819Y-90546094D01*
X92922866Y-97673713D02*
X92922866Y-96911809D01*
X93303819Y-97292761D02*
X92541914Y-97292761D01*
X92303819Y-95959428D02*
X92303819Y-96435618D01*
X92303819Y-96435618D02*
X92780009Y-96483237D01*
X92780009Y-96483237D02*
X92732390Y-96435618D01*
X92732390Y-96435618D02*
X92684771Y-96340380D01*
X92684771Y-96340380D02*
X92684771Y-96102285D01*
X92684771Y-96102285D02*
X92732390Y-96007047D01*
X92732390Y-96007047D02*
X92780009Y-95959428D01*
X92780009Y-95959428D02*
X92875247Y-95911809D01*
X92875247Y-95911809D02*
X93113342Y-95911809D01*
X93113342Y-95911809D02*
X93208580Y-95959428D01*
X93208580Y-95959428D02*
X93256200Y-96007047D01*
X93256200Y-96007047D02*
X93303819Y-96102285D01*
X93303819Y-96102285D02*
X93303819Y-96340380D01*
X93303819Y-96340380D02*
X93256200Y-96435618D01*
X93256200Y-96435618D02*
X93208580Y-96483237D01*
X92303819Y-95626094D02*
X93303819Y-95292761D01*
X93303819Y-95292761D02*
X92303819Y-94959428D01*
X93176866Y-64590094D02*
X93176866Y-63828190D01*
X93557819Y-64209142D02*
X92795914Y-64209142D01*
X92653057Y-63399618D02*
X92605438Y-63351999D01*
X92605438Y-63351999D02*
X92557819Y-63256761D01*
X92557819Y-63256761D02*
X92557819Y-63018666D01*
X92557819Y-63018666D02*
X92605438Y-62923428D01*
X92605438Y-62923428D02*
X92653057Y-62875809D01*
X92653057Y-62875809D02*
X92748295Y-62828190D01*
X92748295Y-62828190D02*
X92843533Y-62828190D01*
X92843533Y-62828190D02*
X92986390Y-62875809D01*
X92986390Y-62875809D02*
X93557819Y-63447237D01*
X93557819Y-63447237D02*
X93557819Y-62828190D01*
X92557819Y-62494856D02*
X92557819Y-61875809D01*
X92557819Y-61875809D02*
X92938771Y-62209142D01*
X92938771Y-62209142D02*
X92938771Y-62066285D01*
X92938771Y-62066285D02*
X92986390Y-61971047D01*
X92986390Y-61971047D02*
X93034009Y-61923428D01*
X93034009Y-61923428D02*
X93129247Y-61875809D01*
X93129247Y-61875809D02*
X93367342Y-61875809D01*
X93367342Y-61875809D02*
X93462580Y-61923428D01*
X93462580Y-61923428D02*
X93510200Y-61971047D01*
X93510200Y-61971047D02*
X93557819Y-62066285D01*
X93557819Y-62066285D02*
X93557819Y-62351999D01*
X93557819Y-62351999D02*
X93510200Y-62447237D01*
X93510200Y-62447237D02*
X93462580Y-62494856D01*
X92557819Y-61256761D02*
X92557819Y-61161523D01*
X92557819Y-61161523D02*
X92605438Y-61066285D01*
X92605438Y-61066285D02*
X92653057Y-61018666D01*
X92653057Y-61018666D02*
X92748295Y-60971047D01*
X92748295Y-60971047D02*
X92938771Y-60923428D01*
X92938771Y-60923428D02*
X93176866Y-60923428D01*
X93176866Y-60923428D02*
X93367342Y-60971047D01*
X93367342Y-60971047D02*
X93462580Y-61018666D01*
X93462580Y-61018666D02*
X93510200Y-61066285D01*
X93510200Y-61066285D02*
X93557819Y-61161523D01*
X93557819Y-61161523D02*
X93557819Y-61256761D01*
X93557819Y-61256761D02*
X93510200Y-61351999D01*
X93510200Y-61351999D02*
X93462580Y-61399618D01*
X93462580Y-61399618D02*
X93367342Y-61447237D01*
X93367342Y-61447237D02*
X93176866Y-61494856D01*
X93176866Y-61494856D02*
X92938771Y-61494856D01*
X92938771Y-61494856D02*
X92748295Y-61447237D01*
X92748295Y-61447237D02*
X92653057Y-61399618D01*
X92653057Y-61399618D02*
X92605438Y-61351999D01*
X92605438Y-61351999D02*
X92557819Y-61256761D01*
X92557819Y-60637713D02*
X93557819Y-60304380D01*
X93557819Y-60304380D02*
X92557819Y-59971047D01*
X67796095Y-121372104D02*
X68272285Y-121372104D01*
X67700857Y-121657819D02*
X68034190Y-120657819D01*
X68034190Y-120657819D02*
X68367523Y-121657819D01*
X69224666Y-120705438D02*
X69129428Y-120657819D01*
X69129428Y-120657819D02*
X68986571Y-120657819D01*
X68986571Y-120657819D02*
X68843714Y-120705438D01*
X68843714Y-120705438D02*
X68748476Y-120800676D01*
X68748476Y-120800676D02*
X68700857Y-120895914D01*
X68700857Y-120895914D02*
X68653238Y-121086390D01*
X68653238Y-121086390D02*
X68653238Y-121229247D01*
X68653238Y-121229247D02*
X68700857Y-121419723D01*
X68700857Y-121419723D02*
X68748476Y-121514961D01*
X68748476Y-121514961D02*
X68843714Y-121610200D01*
X68843714Y-121610200D02*
X68986571Y-121657819D01*
X68986571Y-121657819D02*
X69081809Y-121657819D01*
X69081809Y-121657819D02*
X69224666Y-121610200D01*
X69224666Y-121610200D02*
X69272285Y-121562580D01*
X69272285Y-121562580D02*
X69272285Y-121229247D01*
X69272285Y-121229247D02*
X69081809Y-121229247D01*
X69700857Y-121657819D02*
X69700857Y-120657819D01*
X69700857Y-120657819D02*
X70272285Y-121657819D01*
X70272285Y-121657819D02*
X70272285Y-120657819D01*
X70748476Y-121657819D02*
X70748476Y-120657819D01*
X70748476Y-120657819D02*
X70986571Y-120657819D01*
X70986571Y-120657819D02*
X71129428Y-120705438D01*
X71129428Y-120705438D02*
X71224666Y-120800676D01*
X71224666Y-120800676D02*
X71272285Y-120895914D01*
X71272285Y-120895914D02*
X71319904Y-121086390D01*
X71319904Y-121086390D02*
X71319904Y-121229247D01*
X71319904Y-121229247D02*
X71272285Y-121419723D01*
X71272285Y-121419723D02*
X71224666Y-121514961D01*
X71224666Y-121514961D02*
X71129428Y-121610200D01*
X71129428Y-121610200D02*
X70986571Y-121657819D01*
X70986571Y-121657819D02*
X70748476Y-121657819D01*
X116563713Y-52957133D02*
X115801809Y-52957133D01*
X116182761Y-52576180D02*
X116182761Y-53338085D01*
X114849428Y-53576180D02*
X115325618Y-53576180D01*
X115325618Y-53576180D02*
X115373237Y-53099990D01*
X115373237Y-53099990D02*
X115325618Y-53147609D01*
X115325618Y-53147609D02*
X115230380Y-53195228D01*
X115230380Y-53195228D02*
X114992285Y-53195228D01*
X114992285Y-53195228D02*
X114897047Y-53147609D01*
X114897047Y-53147609D02*
X114849428Y-53099990D01*
X114849428Y-53099990D02*
X114801809Y-53004752D01*
X114801809Y-53004752D02*
X114801809Y-52766657D01*
X114801809Y-52766657D02*
X114849428Y-52671419D01*
X114849428Y-52671419D02*
X114897047Y-52623800D01*
X114897047Y-52623800D02*
X114992285Y-52576180D01*
X114992285Y-52576180D02*
X115230380Y-52576180D01*
X115230380Y-52576180D02*
X115325618Y-52623800D01*
X115325618Y-52623800D02*
X115373237Y-52671419D01*
X114516094Y-53576180D02*
X114182761Y-52576180D01*
X114182761Y-52576180D02*
X113849428Y-53576180D01*
X93272104Y-58779904D02*
X93272104Y-58303714D01*
X93557819Y-58875142D02*
X92557819Y-58541809D01*
X92557819Y-58541809D02*
X93557819Y-58208476D01*
X92605438Y-57351333D02*
X92557819Y-57446571D01*
X92557819Y-57446571D02*
X92557819Y-57589428D01*
X92557819Y-57589428D02*
X92605438Y-57732285D01*
X92605438Y-57732285D02*
X92700676Y-57827523D01*
X92700676Y-57827523D02*
X92795914Y-57875142D01*
X92795914Y-57875142D02*
X92986390Y-57922761D01*
X92986390Y-57922761D02*
X93129247Y-57922761D01*
X93129247Y-57922761D02*
X93319723Y-57875142D01*
X93319723Y-57875142D02*
X93414961Y-57827523D01*
X93414961Y-57827523D02*
X93510200Y-57732285D01*
X93510200Y-57732285D02*
X93557819Y-57589428D01*
X93557819Y-57589428D02*
X93557819Y-57494190D01*
X93557819Y-57494190D02*
X93510200Y-57351333D01*
X93510200Y-57351333D02*
X93462580Y-57303714D01*
X93462580Y-57303714D02*
X93129247Y-57303714D01*
X93129247Y-57303714D02*
X93129247Y-57494190D01*
X93557819Y-56875142D02*
X92557819Y-56875142D01*
X92557819Y-56875142D02*
X93557819Y-56303714D01*
X93557819Y-56303714D02*
X92557819Y-56303714D01*
X93557819Y-55827523D02*
X92557819Y-55827523D01*
X92557819Y-55827523D02*
X92557819Y-55589428D01*
X92557819Y-55589428D02*
X92605438Y-55446571D01*
X92605438Y-55446571D02*
X92700676Y-55351333D01*
X92700676Y-55351333D02*
X92795914Y-55303714D01*
X92795914Y-55303714D02*
X92986390Y-55256095D01*
X92986390Y-55256095D02*
X93129247Y-55256095D01*
X93129247Y-55256095D02*
X93319723Y-55303714D01*
X93319723Y-55303714D02*
X93414961Y-55351333D01*
X93414961Y-55351333D02*
X93510200Y-55446571D01*
X93510200Y-55446571D02*
X93557819Y-55589428D01*
X93557819Y-55589428D02*
X93557819Y-55827523D01*
X93176866Y-49413713D02*
X93176866Y-48651809D01*
X93557819Y-49032761D02*
X92795914Y-49032761D01*
X92557819Y-47699428D02*
X92557819Y-48175618D01*
X92557819Y-48175618D02*
X93034009Y-48223237D01*
X93034009Y-48223237D02*
X92986390Y-48175618D01*
X92986390Y-48175618D02*
X92938771Y-48080380D01*
X92938771Y-48080380D02*
X92938771Y-47842285D01*
X92938771Y-47842285D02*
X92986390Y-47747047D01*
X92986390Y-47747047D02*
X93034009Y-47699428D01*
X93034009Y-47699428D02*
X93129247Y-47651809D01*
X93129247Y-47651809D02*
X93367342Y-47651809D01*
X93367342Y-47651809D02*
X93462580Y-47699428D01*
X93462580Y-47699428D02*
X93510200Y-47747047D01*
X93510200Y-47747047D02*
X93557819Y-47842285D01*
X93557819Y-47842285D02*
X93557819Y-48080380D01*
X93557819Y-48080380D02*
X93510200Y-48175618D01*
X93510200Y-48175618D02*
X93462580Y-48223237D01*
X92557819Y-47366094D02*
X93557819Y-47032761D01*
X93557819Y-47032761D02*
X92557819Y-46699428D01*
X66057714Y-67886819D02*
X66057714Y-66886819D01*
X66057714Y-66886819D02*
X66438666Y-66886819D01*
X66438666Y-66886819D02*
X66533904Y-66934438D01*
X66533904Y-66934438D02*
X66581523Y-66982057D01*
X66581523Y-66982057D02*
X66629142Y-67077295D01*
X66629142Y-67077295D02*
X66629142Y-67220152D01*
X66629142Y-67220152D02*
X66581523Y-67315390D01*
X66581523Y-67315390D02*
X66533904Y-67363009D01*
X66533904Y-67363009D02*
X66438666Y-67410628D01*
X66438666Y-67410628D02*
X66057714Y-67410628D01*
X67010095Y-67839200D02*
X67152952Y-67886819D01*
X67152952Y-67886819D02*
X67391047Y-67886819D01*
X67391047Y-67886819D02*
X67486285Y-67839200D01*
X67486285Y-67839200D02*
X67533904Y-67791580D01*
X67533904Y-67791580D02*
X67581523Y-67696342D01*
X67581523Y-67696342D02*
X67581523Y-67601104D01*
X67581523Y-67601104D02*
X67533904Y-67505866D01*
X67533904Y-67505866D02*
X67486285Y-67458247D01*
X67486285Y-67458247D02*
X67391047Y-67410628D01*
X67391047Y-67410628D02*
X67200571Y-67363009D01*
X67200571Y-67363009D02*
X67105333Y-67315390D01*
X67105333Y-67315390D02*
X67057714Y-67267771D01*
X67057714Y-67267771D02*
X67010095Y-67172533D01*
X67010095Y-67172533D02*
X67010095Y-67077295D01*
X67010095Y-67077295D02*
X67057714Y-66982057D01*
X67057714Y-66982057D02*
X67105333Y-66934438D01*
X67105333Y-66934438D02*
X67200571Y-66886819D01*
X67200571Y-66886819D02*
X67438666Y-66886819D01*
X67438666Y-66886819D02*
X67581523Y-66934438D01*
X67962476Y-66982057D02*
X68010095Y-66934438D01*
X68010095Y-66934438D02*
X68105333Y-66886819D01*
X68105333Y-66886819D02*
X68343428Y-66886819D01*
X68343428Y-66886819D02*
X68438666Y-66934438D01*
X68438666Y-66934438D02*
X68486285Y-66982057D01*
X68486285Y-66982057D02*
X68533904Y-67077295D01*
X68533904Y-67077295D02*
X68533904Y-67172533D01*
X68533904Y-67172533D02*
X68486285Y-67315390D01*
X68486285Y-67315390D02*
X67914857Y-67886819D01*
X67914857Y-67886819D02*
X68533904Y-67886819D01*
X66002476Y-69664819D02*
X66002476Y-68664819D01*
X66002476Y-69141009D02*
X66573904Y-69141009D01*
X66573904Y-69664819D02*
X66573904Y-68664819D01*
X67526285Y-69664819D02*
X67050095Y-69664819D01*
X67050095Y-69664819D02*
X67050095Y-68664819D01*
X67859619Y-69664819D02*
X67859619Y-68664819D01*
X68431047Y-69664819D02*
X68002476Y-69093390D01*
X68431047Y-68664819D02*
X67859619Y-69236247D01*
X68859619Y-69283866D02*
X69621524Y-69283866D01*
X70573904Y-68664819D02*
X70097714Y-68664819D01*
X70097714Y-68664819D02*
X70050095Y-69141009D01*
X70050095Y-69141009D02*
X70097714Y-69093390D01*
X70097714Y-69093390D02*
X70192952Y-69045771D01*
X70192952Y-69045771D02*
X70431047Y-69045771D01*
X70431047Y-69045771D02*
X70526285Y-69093390D01*
X70526285Y-69093390D02*
X70573904Y-69141009D01*
X70573904Y-69141009D02*
X70621523Y-69236247D01*
X70621523Y-69236247D02*
X70621523Y-69474342D01*
X70621523Y-69474342D02*
X70573904Y-69569580D01*
X70573904Y-69569580D02*
X70526285Y-69617200D01*
X70526285Y-69617200D02*
X70431047Y-69664819D01*
X70431047Y-69664819D02*
X70192952Y-69664819D01*
X70192952Y-69664819D02*
X70097714Y-69617200D01*
X70097714Y-69617200D02*
X70050095Y-69569580D01*
X71050095Y-69664819D02*
X71050095Y-68664819D01*
X71050095Y-68664819D02*
X71383428Y-69379104D01*
X71383428Y-69379104D02*
X71716761Y-68664819D01*
X71716761Y-68664819D02*
X71716761Y-69664819D01*
X72383428Y-68664819D02*
X72478666Y-68664819D01*
X72478666Y-68664819D02*
X72573904Y-68712438D01*
X72573904Y-68712438D02*
X72621523Y-68760057D01*
X72621523Y-68760057D02*
X72669142Y-68855295D01*
X72669142Y-68855295D02*
X72716761Y-69045771D01*
X72716761Y-69045771D02*
X72716761Y-69283866D01*
X72716761Y-69283866D02*
X72669142Y-69474342D01*
X72669142Y-69474342D02*
X72621523Y-69569580D01*
X72621523Y-69569580D02*
X72573904Y-69617200D01*
X72573904Y-69617200D02*
X72478666Y-69664819D01*
X72478666Y-69664819D02*
X72383428Y-69664819D01*
X72383428Y-69664819D02*
X72288190Y-69617200D01*
X72288190Y-69617200D02*
X72240571Y-69569580D01*
X72240571Y-69569580D02*
X72192952Y-69474342D01*
X72192952Y-69474342D02*
X72145333Y-69283866D01*
X72145333Y-69283866D02*
X72145333Y-69045771D01*
X72145333Y-69045771D02*
X72192952Y-68855295D01*
X72192952Y-68855295D02*
X72240571Y-68760057D01*
X72240571Y-68760057D02*
X72288190Y-68712438D01*
X72288190Y-68712438D02*
X72383428Y-68664819D01*
X73621523Y-68664819D02*
X73145333Y-68664819D01*
X73145333Y-68664819D02*
X73097714Y-69141009D01*
X73097714Y-69141009D02*
X73145333Y-69093390D01*
X73145333Y-69093390D02*
X73240571Y-69045771D01*
X73240571Y-69045771D02*
X73478666Y-69045771D01*
X73478666Y-69045771D02*
X73573904Y-69093390D01*
X73573904Y-69093390D02*
X73621523Y-69141009D01*
X73621523Y-69141009D02*
X73669142Y-69236247D01*
X73669142Y-69236247D02*
X73669142Y-69474342D01*
X73669142Y-69474342D02*
X73621523Y-69569580D01*
X73621523Y-69569580D02*
X73573904Y-69617200D01*
X73573904Y-69617200D02*
X73478666Y-69664819D01*
X73478666Y-69664819D02*
X73240571Y-69664819D01*
X73240571Y-69664819D02*
X73145333Y-69617200D01*
X73145333Y-69617200D02*
X73097714Y-69569580D01*
X119050819Y-42841523D02*
X119765104Y-42841523D01*
X119765104Y-42841523D02*
X119907961Y-42889142D01*
X119907961Y-42889142D02*
X120003200Y-42984380D01*
X120003200Y-42984380D02*
X120050819Y-43127237D01*
X120050819Y-43127237D02*
X120050819Y-43222475D01*
X120050819Y-41841523D02*
X120050819Y-42412951D01*
X120050819Y-42127237D02*
X119050819Y-42127237D01*
X119050819Y-42127237D02*
X119193676Y-42222475D01*
X119193676Y-42222475D02*
X119288914Y-42317713D01*
X119288914Y-42317713D02*
X119336533Y-42412951D01*
X120050819Y-40889142D02*
X120050819Y-41460570D01*
X120050819Y-41174856D02*
X119050819Y-41174856D01*
X119050819Y-41174856D02*
X119193676Y-41270094D01*
X119193676Y-41270094D02*
X119288914Y-41365332D01*
X119288914Y-41365332D02*
X119336533Y-41460570D01*
X148006819Y-82243333D02*
X148721104Y-82243333D01*
X148721104Y-82243333D02*
X148863961Y-82290952D01*
X148863961Y-82290952D02*
X148959200Y-82386190D01*
X148959200Y-82386190D02*
X149006819Y-82529047D01*
X149006819Y-82529047D02*
X149006819Y-82624285D01*
X148435390Y-81624285D02*
X148387771Y-81719523D01*
X148387771Y-81719523D02*
X148340152Y-81767142D01*
X148340152Y-81767142D02*
X148244914Y-81814761D01*
X148244914Y-81814761D02*
X148197295Y-81814761D01*
X148197295Y-81814761D02*
X148102057Y-81767142D01*
X148102057Y-81767142D02*
X148054438Y-81719523D01*
X148054438Y-81719523D02*
X148006819Y-81624285D01*
X148006819Y-81624285D02*
X148006819Y-81433809D01*
X148006819Y-81433809D02*
X148054438Y-81338571D01*
X148054438Y-81338571D02*
X148102057Y-81290952D01*
X148102057Y-81290952D02*
X148197295Y-81243333D01*
X148197295Y-81243333D02*
X148244914Y-81243333D01*
X148244914Y-81243333D02*
X148340152Y-81290952D01*
X148340152Y-81290952D02*
X148387771Y-81338571D01*
X148387771Y-81338571D02*
X148435390Y-81433809D01*
X148435390Y-81433809D02*
X148435390Y-81624285D01*
X148435390Y-81624285D02*
X148483009Y-81719523D01*
X148483009Y-81719523D02*
X148530628Y-81767142D01*
X148530628Y-81767142D02*
X148625866Y-81814761D01*
X148625866Y-81814761D02*
X148816342Y-81814761D01*
X148816342Y-81814761D02*
X148911580Y-81767142D01*
X148911580Y-81767142D02*
X148959200Y-81719523D01*
X148959200Y-81719523D02*
X149006819Y-81624285D01*
X149006819Y-81624285D02*
X149006819Y-81433809D01*
X149006819Y-81433809D02*
X148959200Y-81338571D01*
X148959200Y-81338571D02*
X148911580Y-81290952D01*
X148911580Y-81290952D02*
X148816342Y-81243333D01*
X148816342Y-81243333D02*
X148625866Y-81243333D01*
X148625866Y-81243333D02*
X148530628Y-81290952D01*
X148530628Y-81290952D02*
X148483009Y-81338571D01*
X148483009Y-81338571D02*
X148435390Y-81433809D01*
X51190666Y-67648819D02*
X51190666Y-68363104D01*
X51190666Y-68363104D02*
X51143047Y-68505961D01*
X51143047Y-68505961D02*
X51047809Y-68601200D01*
X51047809Y-68601200D02*
X50904952Y-68648819D01*
X50904952Y-68648819D02*
X50809714Y-68648819D01*
X51714476Y-68648819D02*
X51904952Y-68648819D01*
X51904952Y-68648819D02*
X52000190Y-68601200D01*
X52000190Y-68601200D02*
X52047809Y-68553580D01*
X52047809Y-68553580D02*
X52143047Y-68410723D01*
X52143047Y-68410723D02*
X52190666Y-68220247D01*
X52190666Y-68220247D02*
X52190666Y-67839295D01*
X52190666Y-67839295D02*
X52143047Y-67744057D01*
X52143047Y-67744057D02*
X52095428Y-67696438D01*
X52095428Y-67696438D02*
X52000190Y-67648819D01*
X52000190Y-67648819D02*
X51809714Y-67648819D01*
X51809714Y-67648819D02*
X51714476Y-67696438D01*
X51714476Y-67696438D02*
X51666857Y-67744057D01*
X51666857Y-67744057D02*
X51619238Y-67839295D01*
X51619238Y-67839295D02*
X51619238Y-68077390D01*
X51619238Y-68077390D02*
X51666857Y-68172628D01*
X51666857Y-68172628D02*
X51714476Y-68220247D01*
X51714476Y-68220247D02*
X51809714Y-68267866D01*
X51809714Y-68267866D02*
X52000190Y-68267866D01*
X52000190Y-68267866D02*
X52095428Y-68220247D01*
X52095428Y-68220247D02*
X52143047Y-68172628D01*
X52143047Y-68172628D02*
X52190666Y-68077390D01*
X144189010Y-52197580D02*
X144141391Y-52245200D01*
X144141391Y-52245200D02*
X143998534Y-52292819D01*
X143998534Y-52292819D02*
X143903296Y-52292819D01*
X143903296Y-52292819D02*
X143760439Y-52245200D01*
X143760439Y-52245200D02*
X143665201Y-52149961D01*
X143665201Y-52149961D02*
X143617582Y-52054723D01*
X143617582Y-52054723D02*
X143569963Y-51864247D01*
X143569963Y-51864247D02*
X143569963Y-51721390D01*
X143569963Y-51721390D02*
X143617582Y-51530914D01*
X143617582Y-51530914D02*
X143665201Y-51435676D01*
X143665201Y-51435676D02*
X143760439Y-51340438D01*
X143760439Y-51340438D02*
X143903296Y-51292819D01*
X143903296Y-51292819D02*
X143998534Y-51292819D01*
X143998534Y-51292819D02*
X144141391Y-51340438D01*
X144141391Y-51340438D02*
X144189010Y-51388057D01*
X145046153Y-51292819D02*
X144855677Y-51292819D01*
X144855677Y-51292819D02*
X144760439Y-51340438D01*
X144760439Y-51340438D02*
X144712820Y-51388057D01*
X144712820Y-51388057D02*
X144617582Y-51530914D01*
X144617582Y-51530914D02*
X144569963Y-51721390D01*
X144569963Y-51721390D02*
X144569963Y-52102342D01*
X144569963Y-52102342D02*
X144617582Y-52197580D01*
X144617582Y-52197580D02*
X144665201Y-52245200D01*
X144665201Y-52245200D02*
X144760439Y-52292819D01*
X144760439Y-52292819D02*
X144950915Y-52292819D01*
X144950915Y-52292819D02*
X145046153Y-52245200D01*
X145046153Y-52245200D02*
X145093772Y-52197580D01*
X145093772Y-52197580D02*
X145141391Y-52102342D01*
X145141391Y-52102342D02*
X145141391Y-51864247D01*
X145141391Y-51864247D02*
X145093772Y-51769009D01*
X145093772Y-51769009D02*
X145046153Y-51721390D01*
X145046153Y-51721390D02*
X144950915Y-51673771D01*
X144950915Y-51673771D02*
X144760439Y-51673771D01*
X144760439Y-51673771D02*
X144665201Y-51721390D01*
X144665201Y-51721390D02*
X144617582Y-51769009D01*
X144617582Y-51769009D02*
X144569963Y-51864247D01*
X74153905Y-117416819D02*
X74153905Y-116416819D01*
X74153905Y-116416819D02*
X74392000Y-116416819D01*
X74392000Y-116416819D02*
X74534857Y-116464438D01*
X74534857Y-116464438D02*
X74630095Y-116559676D01*
X74630095Y-116559676D02*
X74677714Y-116654914D01*
X74677714Y-116654914D02*
X74725333Y-116845390D01*
X74725333Y-116845390D02*
X74725333Y-116988247D01*
X74725333Y-116988247D02*
X74677714Y-117178723D01*
X74677714Y-117178723D02*
X74630095Y-117273961D01*
X74630095Y-117273961D02*
X74534857Y-117369200D01*
X74534857Y-117369200D02*
X74392000Y-117416819D01*
X74392000Y-117416819D02*
X74153905Y-117416819D01*
X75582476Y-116750152D02*
X75582476Y-117416819D01*
X75344381Y-116369200D02*
X75106286Y-117083485D01*
X75106286Y-117083485D02*
X75725333Y-117083485D01*
X74511333Y-117988438D02*
X74416095Y-117940819D01*
X74416095Y-117940819D02*
X74273238Y-117940819D01*
X74273238Y-117940819D02*
X74130381Y-117988438D01*
X74130381Y-117988438D02*
X74035143Y-118083676D01*
X74035143Y-118083676D02*
X73987524Y-118178914D01*
X73987524Y-118178914D02*
X73939905Y-118369390D01*
X73939905Y-118369390D02*
X73939905Y-118512247D01*
X73939905Y-118512247D02*
X73987524Y-118702723D01*
X73987524Y-118702723D02*
X74035143Y-118797961D01*
X74035143Y-118797961D02*
X74130381Y-118893200D01*
X74130381Y-118893200D02*
X74273238Y-118940819D01*
X74273238Y-118940819D02*
X74368476Y-118940819D01*
X74368476Y-118940819D02*
X74511333Y-118893200D01*
X74511333Y-118893200D02*
X74558952Y-118845580D01*
X74558952Y-118845580D02*
X74558952Y-118512247D01*
X74558952Y-118512247D02*
X74368476Y-118512247D01*
X75320857Y-118417009D02*
X75463714Y-118464628D01*
X75463714Y-118464628D02*
X75511333Y-118512247D01*
X75511333Y-118512247D02*
X75558952Y-118607485D01*
X75558952Y-118607485D02*
X75558952Y-118750342D01*
X75558952Y-118750342D02*
X75511333Y-118845580D01*
X75511333Y-118845580D02*
X75463714Y-118893200D01*
X75463714Y-118893200D02*
X75368476Y-118940819D01*
X75368476Y-118940819D02*
X74987524Y-118940819D01*
X74987524Y-118940819D02*
X74987524Y-117940819D01*
X74987524Y-117940819D02*
X75320857Y-117940819D01*
X75320857Y-117940819D02*
X75416095Y-117988438D01*
X75416095Y-117988438D02*
X75463714Y-118036057D01*
X75463714Y-118036057D02*
X75511333Y-118131295D01*
X75511333Y-118131295D02*
X75511333Y-118226533D01*
X75511333Y-118226533D02*
X75463714Y-118321771D01*
X75463714Y-118321771D02*
X75416095Y-118369390D01*
X75416095Y-118369390D02*
X75320857Y-118417009D01*
X75320857Y-118417009D02*
X74987524Y-118417009D01*
X75987524Y-117940819D02*
X75987524Y-118750342D01*
X75987524Y-118750342D02*
X76035143Y-118845580D01*
X76035143Y-118845580D02*
X76082762Y-118893200D01*
X76082762Y-118893200D02*
X76178000Y-118940819D01*
X76178000Y-118940819D02*
X76368476Y-118940819D01*
X76368476Y-118940819D02*
X76463714Y-118893200D01*
X76463714Y-118893200D02*
X76511333Y-118845580D01*
X76511333Y-118845580D02*
X76558952Y-118750342D01*
X76558952Y-118750342D02*
X76558952Y-117940819D01*
X77558952Y-118940819D02*
X76987524Y-118940819D01*
X77273238Y-118940819D02*
X77273238Y-117940819D01*
X77273238Y-117940819D02*
X77178000Y-118083676D01*
X77178000Y-118083676D02*
X77082762Y-118178914D01*
X77082762Y-118178914D02*
X76987524Y-118226533D01*
X78463714Y-117940819D02*
X77987524Y-117940819D01*
X77987524Y-117940819D02*
X77939905Y-118417009D01*
X77939905Y-118417009D02*
X77987524Y-118369390D01*
X77987524Y-118369390D02*
X78082762Y-118321771D01*
X78082762Y-118321771D02*
X78320857Y-118321771D01*
X78320857Y-118321771D02*
X78416095Y-118369390D01*
X78416095Y-118369390D02*
X78463714Y-118417009D01*
X78463714Y-118417009D02*
X78511333Y-118512247D01*
X78511333Y-118512247D02*
X78511333Y-118750342D01*
X78511333Y-118750342D02*
X78463714Y-118845580D01*
X78463714Y-118845580D02*
X78416095Y-118893200D01*
X78416095Y-118893200D02*
X78320857Y-118940819D01*
X78320857Y-118940819D02*
X78082762Y-118940819D01*
X78082762Y-118940819D02*
X77987524Y-118893200D01*
X77987524Y-118893200D02*
X77939905Y-118845580D01*
X79463714Y-118940819D02*
X78892286Y-118940819D01*
X79178000Y-118940819D02*
X79178000Y-117940819D01*
X79178000Y-117940819D02*
X79082762Y-118083676D01*
X79082762Y-118083676D02*
X78987524Y-118178914D01*
X78987524Y-118178914D02*
X78892286Y-118226533D01*
X80082762Y-117940819D02*
X80178000Y-117940819D01*
X80178000Y-117940819D02*
X80273238Y-117988438D01*
X80273238Y-117988438D02*
X80320857Y-118036057D01*
X80320857Y-118036057D02*
X80368476Y-118131295D01*
X80368476Y-118131295D02*
X80416095Y-118321771D01*
X80416095Y-118321771D02*
X80416095Y-118559866D01*
X80416095Y-118559866D02*
X80368476Y-118750342D01*
X80368476Y-118750342D02*
X80320857Y-118845580D01*
X80320857Y-118845580D02*
X80273238Y-118893200D01*
X80273238Y-118893200D02*
X80178000Y-118940819D01*
X80178000Y-118940819D02*
X80082762Y-118940819D01*
X80082762Y-118940819D02*
X79987524Y-118893200D01*
X79987524Y-118893200D02*
X79939905Y-118845580D01*
X79939905Y-118845580D02*
X79892286Y-118750342D01*
X79892286Y-118750342D02*
X79844667Y-118559866D01*
X79844667Y-118559866D02*
X79844667Y-118321771D01*
X79844667Y-118321771D02*
X79892286Y-118131295D01*
X79892286Y-118131295D02*
X79939905Y-118036057D01*
X79939905Y-118036057D02*
X79987524Y-117988438D01*
X79987524Y-117988438D02*
X80082762Y-117940819D01*
X103173333Y-77443580D02*
X103125714Y-77491200D01*
X103125714Y-77491200D02*
X102982857Y-77538819D01*
X102982857Y-77538819D02*
X102887619Y-77538819D01*
X102887619Y-77538819D02*
X102744762Y-77491200D01*
X102744762Y-77491200D02*
X102649524Y-77395961D01*
X102649524Y-77395961D02*
X102601905Y-77300723D01*
X102601905Y-77300723D02*
X102554286Y-77110247D01*
X102554286Y-77110247D02*
X102554286Y-76967390D01*
X102554286Y-76967390D02*
X102601905Y-76776914D01*
X102601905Y-76776914D02*
X102649524Y-76681676D01*
X102649524Y-76681676D02*
X102744762Y-76586438D01*
X102744762Y-76586438D02*
X102887619Y-76538819D01*
X102887619Y-76538819D02*
X102982857Y-76538819D01*
X102982857Y-76538819D02*
X103125714Y-76586438D01*
X103125714Y-76586438D02*
X103173333Y-76634057D01*
X103506667Y-76538819D02*
X104173333Y-76538819D01*
X104173333Y-76538819D02*
X103744762Y-77538819D01*
X89475580Y-84743666D02*
X89523200Y-84791285D01*
X89523200Y-84791285D02*
X89570819Y-84934142D01*
X89570819Y-84934142D02*
X89570819Y-85029380D01*
X89570819Y-85029380D02*
X89523200Y-85172237D01*
X89523200Y-85172237D02*
X89427961Y-85267475D01*
X89427961Y-85267475D02*
X89332723Y-85315094D01*
X89332723Y-85315094D02*
X89142247Y-85362713D01*
X89142247Y-85362713D02*
X88999390Y-85362713D01*
X88999390Y-85362713D02*
X88808914Y-85315094D01*
X88808914Y-85315094D02*
X88713676Y-85267475D01*
X88713676Y-85267475D02*
X88618438Y-85172237D01*
X88618438Y-85172237D02*
X88570819Y-85029380D01*
X88570819Y-85029380D02*
X88570819Y-84934142D01*
X88570819Y-84934142D02*
X88618438Y-84791285D01*
X88618438Y-84791285D02*
X88666057Y-84743666D01*
X88570819Y-84410332D02*
X88570819Y-83743666D01*
X88570819Y-83743666D02*
X89570819Y-84172237D01*
X89425714Y-115892819D02*
X89425714Y-114892819D01*
X89425714Y-114892819D02*
X89806666Y-114892819D01*
X89806666Y-114892819D02*
X89901904Y-114940438D01*
X89901904Y-114940438D02*
X89949523Y-114988057D01*
X89949523Y-114988057D02*
X89997142Y-115083295D01*
X89997142Y-115083295D02*
X89997142Y-115226152D01*
X89997142Y-115226152D02*
X89949523Y-115321390D01*
X89949523Y-115321390D02*
X89901904Y-115369009D01*
X89901904Y-115369009D02*
X89806666Y-115416628D01*
X89806666Y-115416628D02*
X89425714Y-115416628D01*
X90378095Y-115845200D02*
X90520952Y-115892819D01*
X90520952Y-115892819D02*
X90759047Y-115892819D01*
X90759047Y-115892819D02*
X90854285Y-115845200D01*
X90854285Y-115845200D02*
X90901904Y-115797580D01*
X90901904Y-115797580D02*
X90949523Y-115702342D01*
X90949523Y-115702342D02*
X90949523Y-115607104D01*
X90949523Y-115607104D02*
X90901904Y-115511866D01*
X90901904Y-115511866D02*
X90854285Y-115464247D01*
X90854285Y-115464247D02*
X90759047Y-115416628D01*
X90759047Y-115416628D02*
X90568571Y-115369009D01*
X90568571Y-115369009D02*
X90473333Y-115321390D01*
X90473333Y-115321390D02*
X90425714Y-115273771D01*
X90425714Y-115273771D02*
X90378095Y-115178533D01*
X90378095Y-115178533D02*
X90378095Y-115083295D01*
X90378095Y-115083295D02*
X90425714Y-114988057D01*
X90425714Y-114988057D02*
X90473333Y-114940438D01*
X90473333Y-114940438D02*
X90568571Y-114892819D01*
X90568571Y-114892819D02*
X90806666Y-114892819D01*
X90806666Y-114892819D02*
X90949523Y-114940438D01*
X91282857Y-114892819D02*
X91901904Y-114892819D01*
X91901904Y-114892819D02*
X91568571Y-115273771D01*
X91568571Y-115273771D02*
X91711428Y-115273771D01*
X91711428Y-115273771D02*
X91806666Y-115321390D01*
X91806666Y-115321390D02*
X91854285Y-115369009D01*
X91854285Y-115369009D02*
X91901904Y-115464247D01*
X91901904Y-115464247D02*
X91901904Y-115702342D01*
X91901904Y-115702342D02*
X91854285Y-115797580D01*
X91854285Y-115797580D02*
X91806666Y-115845200D01*
X91806666Y-115845200D02*
X91711428Y-115892819D01*
X91711428Y-115892819D02*
X91425714Y-115892819D01*
X91425714Y-115892819D02*
X91330476Y-115845200D01*
X91330476Y-115845200D02*
X91282857Y-115797580D01*
X84290476Y-117416819D02*
X84290476Y-116416819D01*
X84290476Y-116893009D02*
X84861904Y-116893009D01*
X84861904Y-117416819D02*
X84861904Y-116416819D01*
X85814285Y-117416819D02*
X85338095Y-117416819D01*
X85338095Y-117416819D02*
X85338095Y-116416819D01*
X86147619Y-117416819D02*
X86147619Y-116416819D01*
X86719047Y-117416819D02*
X86290476Y-116845390D01*
X86719047Y-116416819D02*
X86147619Y-116988247D01*
X87147619Y-117035866D02*
X87909524Y-117035866D01*
X88861904Y-116416819D02*
X88385714Y-116416819D01*
X88385714Y-116416819D02*
X88338095Y-116893009D01*
X88338095Y-116893009D02*
X88385714Y-116845390D01*
X88385714Y-116845390D02*
X88480952Y-116797771D01*
X88480952Y-116797771D02*
X88719047Y-116797771D01*
X88719047Y-116797771D02*
X88814285Y-116845390D01*
X88814285Y-116845390D02*
X88861904Y-116893009D01*
X88861904Y-116893009D02*
X88909523Y-116988247D01*
X88909523Y-116988247D02*
X88909523Y-117226342D01*
X88909523Y-117226342D02*
X88861904Y-117321580D01*
X88861904Y-117321580D02*
X88814285Y-117369200D01*
X88814285Y-117369200D02*
X88719047Y-117416819D01*
X88719047Y-117416819D02*
X88480952Y-117416819D01*
X88480952Y-117416819D02*
X88385714Y-117369200D01*
X88385714Y-117369200D02*
X88338095Y-117321580D01*
X89338095Y-117416819D02*
X89338095Y-116416819D01*
X89338095Y-116416819D02*
X89671428Y-117131104D01*
X89671428Y-117131104D02*
X90004761Y-116416819D01*
X90004761Y-116416819D02*
X90004761Y-117416819D01*
X90671428Y-116416819D02*
X90766666Y-116416819D01*
X90766666Y-116416819D02*
X90861904Y-116464438D01*
X90861904Y-116464438D02*
X90909523Y-116512057D01*
X90909523Y-116512057D02*
X90957142Y-116607295D01*
X90957142Y-116607295D02*
X91004761Y-116797771D01*
X91004761Y-116797771D02*
X91004761Y-117035866D01*
X91004761Y-117035866D02*
X90957142Y-117226342D01*
X90957142Y-117226342D02*
X90909523Y-117321580D01*
X90909523Y-117321580D02*
X90861904Y-117369200D01*
X90861904Y-117369200D02*
X90766666Y-117416819D01*
X90766666Y-117416819D02*
X90671428Y-117416819D01*
X90671428Y-117416819D02*
X90576190Y-117369200D01*
X90576190Y-117369200D02*
X90528571Y-117321580D01*
X90528571Y-117321580D02*
X90480952Y-117226342D01*
X90480952Y-117226342D02*
X90433333Y-117035866D01*
X90433333Y-117035866D02*
X90433333Y-116797771D01*
X90433333Y-116797771D02*
X90480952Y-116607295D01*
X90480952Y-116607295D02*
X90528571Y-116512057D01*
X90528571Y-116512057D02*
X90576190Y-116464438D01*
X90576190Y-116464438D02*
X90671428Y-116416819D01*
X91909523Y-116416819D02*
X91433333Y-116416819D01*
X91433333Y-116416819D02*
X91385714Y-116893009D01*
X91385714Y-116893009D02*
X91433333Y-116845390D01*
X91433333Y-116845390D02*
X91528571Y-116797771D01*
X91528571Y-116797771D02*
X91766666Y-116797771D01*
X91766666Y-116797771D02*
X91861904Y-116845390D01*
X91861904Y-116845390D02*
X91909523Y-116893009D01*
X91909523Y-116893009D02*
X91957142Y-116988247D01*
X91957142Y-116988247D02*
X91957142Y-117226342D01*
X91957142Y-117226342D02*
X91909523Y-117321580D01*
X91909523Y-117321580D02*
X91861904Y-117369200D01*
X91861904Y-117369200D02*
X91766666Y-117416819D01*
X91766666Y-117416819D02*
X91528571Y-117416819D01*
X91528571Y-117416819D02*
X91433333Y-117369200D01*
X91433333Y-117369200D02*
X91385714Y-117321580D01*
X68393580Y-138051857D02*
X68441200Y-138099476D01*
X68441200Y-138099476D02*
X68488819Y-138242333D01*
X68488819Y-138242333D02*
X68488819Y-138337571D01*
X68488819Y-138337571D02*
X68441200Y-138480428D01*
X68441200Y-138480428D02*
X68345961Y-138575666D01*
X68345961Y-138575666D02*
X68250723Y-138623285D01*
X68250723Y-138623285D02*
X68060247Y-138670904D01*
X68060247Y-138670904D02*
X67917390Y-138670904D01*
X67917390Y-138670904D02*
X67726914Y-138623285D01*
X67726914Y-138623285D02*
X67631676Y-138575666D01*
X67631676Y-138575666D02*
X67536438Y-138480428D01*
X67536438Y-138480428D02*
X67488819Y-138337571D01*
X67488819Y-138337571D02*
X67488819Y-138242333D01*
X67488819Y-138242333D02*
X67536438Y-138099476D01*
X67536438Y-138099476D02*
X67584057Y-138051857D01*
X68488819Y-137099476D02*
X68488819Y-137670904D01*
X68488819Y-137385190D02*
X67488819Y-137385190D01*
X67488819Y-137385190D02*
X67631676Y-137480428D01*
X67631676Y-137480428D02*
X67726914Y-137575666D01*
X67726914Y-137575666D02*
X67774533Y-137670904D01*
X68488819Y-136147095D02*
X68488819Y-136718523D01*
X68488819Y-136432809D02*
X67488819Y-136432809D01*
X67488819Y-136432809D02*
X67631676Y-136528047D01*
X67631676Y-136528047D02*
X67726914Y-136623285D01*
X67726914Y-136623285D02*
X67774533Y-136718523D01*
X103038476Y-99906819D02*
X103038476Y-100621104D01*
X103038476Y-100621104D02*
X102990857Y-100763961D01*
X102990857Y-100763961D02*
X102895619Y-100859200D01*
X102895619Y-100859200D02*
X102752762Y-100906819D01*
X102752762Y-100906819D02*
X102657524Y-100906819D01*
X104038476Y-100906819D02*
X103467048Y-100906819D01*
X103752762Y-100906819D02*
X103752762Y-99906819D01*
X103752762Y-99906819D02*
X103657524Y-100049676D01*
X103657524Y-100049676D02*
X103562286Y-100144914D01*
X103562286Y-100144914D02*
X103467048Y-100192533D01*
X104943238Y-99906819D02*
X104467048Y-99906819D01*
X104467048Y-99906819D02*
X104419429Y-100383009D01*
X104419429Y-100383009D02*
X104467048Y-100335390D01*
X104467048Y-100335390D02*
X104562286Y-100287771D01*
X104562286Y-100287771D02*
X104800381Y-100287771D01*
X104800381Y-100287771D02*
X104895619Y-100335390D01*
X104895619Y-100335390D02*
X104943238Y-100383009D01*
X104943238Y-100383009D02*
X104990857Y-100478247D01*
X104990857Y-100478247D02*
X104990857Y-100716342D01*
X104990857Y-100716342D02*
X104943238Y-100811580D01*
X104943238Y-100811580D02*
X104895619Y-100859200D01*
X104895619Y-100859200D02*
X104800381Y-100906819D01*
X104800381Y-100906819D02*
X104562286Y-100906819D01*
X104562286Y-100906819D02*
X104467048Y-100859200D01*
X104467048Y-100859200D02*
X104419429Y-100811580D01*
X145848819Y-77822094D02*
X144848819Y-77822094D01*
X144848819Y-77822094D02*
X144848819Y-77583999D01*
X144848819Y-77583999D02*
X144896438Y-77441142D01*
X144896438Y-77441142D02*
X144991676Y-77345904D01*
X144991676Y-77345904D02*
X145086914Y-77298285D01*
X145086914Y-77298285D02*
X145277390Y-77250666D01*
X145277390Y-77250666D02*
X145420247Y-77250666D01*
X145420247Y-77250666D02*
X145610723Y-77298285D01*
X145610723Y-77298285D02*
X145705961Y-77345904D01*
X145705961Y-77345904D02*
X145801200Y-77441142D01*
X145801200Y-77441142D02*
X145848819Y-77583999D01*
X145848819Y-77583999D02*
X145848819Y-77822094D01*
X144944057Y-76869713D02*
X144896438Y-76822094D01*
X144896438Y-76822094D02*
X144848819Y-76726856D01*
X144848819Y-76726856D02*
X144848819Y-76488761D01*
X144848819Y-76488761D02*
X144896438Y-76393523D01*
X144896438Y-76393523D02*
X144944057Y-76345904D01*
X144944057Y-76345904D02*
X145039295Y-76298285D01*
X145039295Y-76298285D02*
X145134533Y-76298285D01*
X145134533Y-76298285D02*
X145277390Y-76345904D01*
X145277390Y-76345904D02*
X145848819Y-76917332D01*
X145848819Y-76917332D02*
X145848819Y-76298285D01*
X138163104Y-79250666D02*
X138163104Y-78774476D01*
X138448819Y-79345904D02*
X137448819Y-79012571D01*
X137448819Y-79012571D02*
X138448819Y-78679238D01*
X137925009Y-78012571D02*
X137972628Y-77869714D01*
X137972628Y-77869714D02*
X138020247Y-77822095D01*
X138020247Y-77822095D02*
X138115485Y-77774476D01*
X138115485Y-77774476D02*
X138258342Y-77774476D01*
X138258342Y-77774476D02*
X138353580Y-77822095D01*
X138353580Y-77822095D02*
X138401200Y-77869714D01*
X138401200Y-77869714D02*
X138448819Y-77964952D01*
X138448819Y-77964952D02*
X138448819Y-78345904D01*
X138448819Y-78345904D02*
X137448819Y-78345904D01*
X137448819Y-78345904D02*
X137448819Y-78012571D01*
X137448819Y-78012571D02*
X137496438Y-77917333D01*
X137496438Y-77917333D02*
X137544057Y-77869714D01*
X137544057Y-77869714D02*
X137639295Y-77822095D01*
X137639295Y-77822095D02*
X137734533Y-77822095D01*
X137734533Y-77822095D02*
X137829771Y-77869714D01*
X137829771Y-77869714D02*
X137877390Y-77917333D01*
X137877390Y-77917333D02*
X137925009Y-78012571D01*
X137925009Y-78012571D02*
X137925009Y-78345904D01*
X138401200Y-77393523D02*
X138448819Y-77250666D01*
X138448819Y-77250666D02*
X138448819Y-77012571D01*
X138448819Y-77012571D02*
X138401200Y-76917333D01*
X138401200Y-76917333D02*
X138353580Y-76869714D01*
X138353580Y-76869714D02*
X138258342Y-76822095D01*
X138258342Y-76822095D02*
X138163104Y-76822095D01*
X138163104Y-76822095D02*
X138067866Y-76869714D01*
X138067866Y-76869714D02*
X138020247Y-76917333D01*
X138020247Y-76917333D02*
X137972628Y-77012571D01*
X137972628Y-77012571D02*
X137925009Y-77203047D01*
X137925009Y-77203047D02*
X137877390Y-77298285D01*
X137877390Y-77298285D02*
X137829771Y-77345904D01*
X137829771Y-77345904D02*
X137734533Y-77393523D01*
X137734533Y-77393523D02*
X137639295Y-77393523D01*
X137639295Y-77393523D02*
X137544057Y-77345904D01*
X137544057Y-77345904D02*
X137496438Y-77298285D01*
X137496438Y-77298285D02*
X137448819Y-77203047D01*
X137448819Y-77203047D02*
X137448819Y-76964952D01*
X137448819Y-76964952D02*
X137496438Y-76822095D01*
X138448819Y-75869714D02*
X138448819Y-76441142D01*
X138448819Y-76155428D02*
X137448819Y-76155428D01*
X137448819Y-76155428D02*
X137591676Y-76250666D01*
X137591676Y-76250666D02*
X137686914Y-76345904D01*
X137686914Y-76345904D02*
X137734533Y-76441142D01*
X137448819Y-75250666D02*
X137448819Y-75155428D01*
X137448819Y-75155428D02*
X137496438Y-75060190D01*
X137496438Y-75060190D02*
X137544057Y-75012571D01*
X137544057Y-75012571D02*
X137639295Y-74964952D01*
X137639295Y-74964952D02*
X137829771Y-74917333D01*
X137829771Y-74917333D02*
X138067866Y-74917333D01*
X138067866Y-74917333D02*
X138258342Y-74964952D01*
X138258342Y-74964952D02*
X138353580Y-75012571D01*
X138353580Y-75012571D02*
X138401200Y-75060190D01*
X138401200Y-75060190D02*
X138448819Y-75155428D01*
X138448819Y-75155428D02*
X138448819Y-75250666D01*
X138448819Y-75250666D02*
X138401200Y-75345904D01*
X138401200Y-75345904D02*
X138353580Y-75393523D01*
X138353580Y-75393523D02*
X138258342Y-75441142D01*
X138258342Y-75441142D02*
X138067866Y-75488761D01*
X138067866Y-75488761D02*
X137829771Y-75488761D01*
X137829771Y-75488761D02*
X137639295Y-75441142D01*
X137639295Y-75441142D02*
X137544057Y-75393523D01*
X137544057Y-75393523D02*
X137496438Y-75345904D01*
X137496438Y-75345904D02*
X137448819Y-75250666D01*
X88967580Y-137956666D02*
X89015200Y-138004285D01*
X89015200Y-138004285D02*
X89062819Y-138147142D01*
X89062819Y-138147142D02*
X89062819Y-138242380D01*
X89062819Y-138242380D02*
X89015200Y-138385237D01*
X89015200Y-138385237D02*
X88919961Y-138480475D01*
X88919961Y-138480475D02*
X88824723Y-138528094D01*
X88824723Y-138528094D02*
X88634247Y-138575713D01*
X88634247Y-138575713D02*
X88491390Y-138575713D01*
X88491390Y-138575713D02*
X88300914Y-138528094D01*
X88300914Y-138528094D02*
X88205676Y-138480475D01*
X88205676Y-138480475D02*
X88110438Y-138385237D01*
X88110438Y-138385237D02*
X88062819Y-138242380D01*
X88062819Y-138242380D02*
X88062819Y-138147142D01*
X88062819Y-138147142D02*
X88110438Y-138004285D01*
X88110438Y-138004285D02*
X88158057Y-137956666D01*
X88491390Y-137385237D02*
X88443771Y-137480475D01*
X88443771Y-137480475D02*
X88396152Y-137528094D01*
X88396152Y-137528094D02*
X88300914Y-137575713D01*
X88300914Y-137575713D02*
X88253295Y-137575713D01*
X88253295Y-137575713D02*
X88158057Y-137528094D01*
X88158057Y-137528094D02*
X88110438Y-137480475D01*
X88110438Y-137480475D02*
X88062819Y-137385237D01*
X88062819Y-137385237D02*
X88062819Y-137194761D01*
X88062819Y-137194761D02*
X88110438Y-137099523D01*
X88110438Y-137099523D02*
X88158057Y-137051904D01*
X88158057Y-137051904D02*
X88253295Y-137004285D01*
X88253295Y-137004285D02*
X88300914Y-137004285D01*
X88300914Y-137004285D02*
X88396152Y-137051904D01*
X88396152Y-137051904D02*
X88443771Y-137099523D01*
X88443771Y-137099523D02*
X88491390Y-137194761D01*
X88491390Y-137194761D02*
X88491390Y-137385237D01*
X88491390Y-137385237D02*
X88539009Y-137480475D01*
X88539009Y-137480475D02*
X88586628Y-137528094D01*
X88586628Y-137528094D02*
X88681866Y-137575713D01*
X88681866Y-137575713D02*
X88872342Y-137575713D01*
X88872342Y-137575713D02*
X88967580Y-137528094D01*
X88967580Y-137528094D02*
X89015200Y-137480475D01*
X89015200Y-137480475D02*
X89062819Y-137385237D01*
X89062819Y-137385237D02*
X89062819Y-137194761D01*
X89062819Y-137194761D02*
X89015200Y-137099523D01*
X89015200Y-137099523D02*
X88967580Y-137051904D01*
X88967580Y-137051904D02*
X88872342Y-137004285D01*
X88872342Y-137004285D02*
X88681866Y-137004285D01*
X88681866Y-137004285D02*
X88586628Y-137051904D01*
X88586628Y-137051904D02*
X88539009Y-137099523D01*
X88539009Y-137099523D02*
X88491390Y-137194761D01*
X133782819Y-43095523D02*
X134497104Y-43095523D01*
X134497104Y-43095523D02*
X134639961Y-43143142D01*
X134639961Y-43143142D02*
X134735200Y-43238380D01*
X134735200Y-43238380D02*
X134782819Y-43381237D01*
X134782819Y-43381237D02*
X134782819Y-43476475D01*
X134782819Y-42095523D02*
X134782819Y-42666951D01*
X134782819Y-42381237D02*
X133782819Y-42381237D01*
X133782819Y-42381237D02*
X133925676Y-42476475D01*
X133925676Y-42476475D02*
X134020914Y-42571713D01*
X134020914Y-42571713D02*
X134068533Y-42666951D01*
X133878057Y-41714570D02*
X133830438Y-41666951D01*
X133830438Y-41666951D02*
X133782819Y-41571713D01*
X133782819Y-41571713D02*
X133782819Y-41333618D01*
X133782819Y-41333618D02*
X133830438Y-41238380D01*
X133830438Y-41238380D02*
X133878057Y-41190761D01*
X133878057Y-41190761D02*
X133973295Y-41143142D01*
X133973295Y-41143142D02*
X134068533Y-41143142D01*
X134068533Y-41143142D02*
X134211390Y-41190761D01*
X134211390Y-41190761D02*
X134782819Y-41762189D01*
X134782819Y-41762189D02*
X134782819Y-41143142D01*
X103292476Y-114638819D02*
X103292476Y-115353104D01*
X103292476Y-115353104D02*
X103244857Y-115495961D01*
X103244857Y-115495961D02*
X103149619Y-115591200D01*
X103149619Y-115591200D02*
X103006762Y-115638819D01*
X103006762Y-115638819D02*
X102911524Y-115638819D01*
X104292476Y-115638819D02*
X103721048Y-115638819D01*
X104006762Y-115638819D02*
X104006762Y-114638819D01*
X104006762Y-114638819D02*
X103911524Y-114781676D01*
X103911524Y-114781676D02*
X103816286Y-114876914D01*
X103816286Y-114876914D02*
X103721048Y-114924533D01*
X105149619Y-114638819D02*
X104959143Y-114638819D01*
X104959143Y-114638819D02*
X104863905Y-114686438D01*
X104863905Y-114686438D02*
X104816286Y-114734057D01*
X104816286Y-114734057D02*
X104721048Y-114876914D01*
X104721048Y-114876914D02*
X104673429Y-115067390D01*
X104673429Y-115067390D02*
X104673429Y-115448342D01*
X104673429Y-115448342D02*
X104721048Y-115543580D01*
X104721048Y-115543580D02*
X104768667Y-115591200D01*
X104768667Y-115591200D02*
X104863905Y-115638819D01*
X104863905Y-115638819D02*
X105054381Y-115638819D01*
X105054381Y-115638819D02*
X105149619Y-115591200D01*
X105149619Y-115591200D02*
X105197238Y-115543580D01*
X105197238Y-115543580D02*
X105244857Y-115448342D01*
X105244857Y-115448342D02*
X105244857Y-115210247D01*
X105244857Y-115210247D02*
X105197238Y-115115009D01*
X105197238Y-115115009D02*
X105149619Y-115067390D01*
X105149619Y-115067390D02*
X105054381Y-115019771D01*
X105054381Y-115019771D02*
X104863905Y-115019771D01*
X104863905Y-115019771D02*
X104768667Y-115067390D01*
X104768667Y-115067390D02*
X104721048Y-115115009D01*
X104721048Y-115115009D02*
X104673429Y-115210247D01*
X103546476Y-51646819D02*
X103546476Y-52361104D01*
X103546476Y-52361104D02*
X103498857Y-52503961D01*
X103498857Y-52503961D02*
X103403619Y-52599200D01*
X103403619Y-52599200D02*
X103260762Y-52646819D01*
X103260762Y-52646819D02*
X103165524Y-52646819D01*
X104546476Y-52646819D02*
X103975048Y-52646819D01*
X104260762Y-52646819D02*
X104260762Y-51646819D01*
X104260762Y-51646819D02*
X104165524Y-51789676D01*
X104165524Y-51789676D02*
X104070286Y-51884914D01*
X104070286Y-51884914D02*
X103975048Y-51932533D01*
X104879810Y-51646819D02*
X105498857Y-51646819D01*
X105498857Y-51646819D02*
X105165524Y-52027771D01*
X105165524Y-52027771D02*
X105308381Y-52027771D01*
X105308381Y-52027771D02*
X105403619Y-52075390D01*
X105403619Y-52075390D02*
X105451238Y-52123009D01*
X105451238Y-52123009D02*
X105498857Y-52218247D01*
X105498857Y-52218247D02*
X105498857Y-52456342D01*
X105498857Y-52456342D02*
X105451238Y-52551580D01*
X105451238Y-52551580D02*
X105403619Y-52599200D01*
X105403619Y-52599200D02*
X105308381Y-52646819D01*
X105308381Y-52646819D02*
X105022667Y-52646819D01*
X105022667Y-52646819D02*
X104927429Y-52599200D01*
X104927429Y-52599200D02*
X104879810Y-52551580D01*
X143712819Y-72009580D02*
X143665200Y-72057200D01*
X143665200Y-72057200D02*
X143522343Y-72104819D01*
X143522343Y-72104819D02*
X143427105Y-72104819D01*
X143427105Y-72104819D02*
X143284248Y-72057200D01*
X143284248Y-72057200D02*
X143189010Y-71961961D01*
X143189010Y-71961961D02*
X143141391Y-71866723D01*
X143141391Y-71866723D02*
X143093772Y-71676247D01*
X143093772Y-71676247D02*
X143093772Y-71533390D01*
X143093772Y-71533390D02*
X143141391Y-71342914D01*
X143141391Y-71342914D02*
X143189010Y-71247676D01*
X143189010Y-71247676D02*
X143284248Y-71152438D01*
X143284248Y-71152438D02*
X143427105Y-71104819D01*
X143427105Y-71104819D02*
X143522343Y-71104819D01*
X143522343Y-71104819D02*
X143665200Y-71152438D01*
X143665200Y-71152438D02*
X143712819Y-71200057D01*
X144665200Y-72104819D02*
X144093772Y-72104819D01*
X144379486Y-72104819D02*
X144379486Y-71104819D01*
X144379486Y-71104819D02*
X144284248Y-71247676D01*
X144284248Y-71247676D02*
X144189010Y-71342914D01*
X144189010Y-71342914D02*
X144093772Y-71390533D01*
X145046153Y-71200057D02*
X145093772Y-71152438D01*
X145093772Y-71152438D02*
X145189010Y-71104819D01*
X145189010Y-71104819D02*
X145427105Y-71104819D01*
X145427105Y-71104819D02*
X145522343Y-71152438D01*
X145522343Y-71152438D02*
X145569962Y-71200057D01*
X145569962Y-71200057D02*
X145617581Y-71295295D01*
X145617581Y-71295295D02*
X145617581Y-71390533D01*
X145617581Y-71390533D02*
X145569962Y-71533390D01*
X145569962Y-71533390D02*
X144998534Y-72104819D01*
X144998534Y-72104819D02*
X145617581Y-72104819D01*
X69327905Y-74617819D02*
X69327905Y-73617819D01*
X69327905Y-73617819D02*
X69566000Y-73617819D01*
X69566000Y-73617819D02*
X69708857Y-73665438D01*
X69708857Y-73665438D02*
X69804095Y-73760676D01*
X69804095Y-73760676D02*
X69851714Y-73855914D01*
X69851714Y-73855914D02*
X69899333Y-74046390D01*
X69899333Y-74046390D02*
X69899333Y-74189247D01*
X69899333Y-74189247D02*
X69851714Y-74379723D01*
X69851714Y-74379723D02*
X69804095Y-74474961D01*
X69804095Y-74474961D02*
X69708857Y-74570200D01*
X69708857Y-74570200D02*
X69566000Y-74617819D01*
X69566000Y-74617819D02*
X69327905Y-74617819D01*
X70232667Y-73617819D02*
X70851714Y-73617819D01*
X70851714Y-73617819D02*
X70518381Y-73998771D01*
X70518381Y-73998771D02*
X70661238Y-73998771D01*
X70661238Y-73998771D02*
X70756476Y-74046390D01*
X70756476Y-74046390D02*
X70804095Y-74094009D01*
X70804095Y-74094009D02*
X70851714Y-74189247D01*
X70851714Y-74189247D02*
X70851714Y-74427342D01*
X70851714Y-74427342D02*
X70804095Y-74522580D01*
X70804095Y-74522580D02*
X70756476Y-74570200D01*
X70756476Y-74570200D02*
X70661238Y-74617819D01*
X70661238Y-74617819D02*
X70375524Y-74617819D01*
X70375524Y-74617819D02*
X70280286Y-74570200D01*
X70280286Y-74570200D02*
X70232667Y-74522580D01*
X67885524Y-76202819D02*
X67885524Y-75202819D01*
X67885524Y-75202819D02*
X68123619Y-75202819D01*
X68123619Y-75202819D02*
X68266476Y-75250438D01*
X68266476Y-75250438D02*
X68361714Y-75345676D01*
X68361714Y-75345676D02*
X68409333Y-75440914D01*
X68409333Y-75440914D02*
X68456952Y-75631390D01*
X68456952Y-75631390D02*
X68456952Y-75774247D01*
X68456952Y-75774247D02*
X68409333Y-75964723D01*
X68409333Y-75964723D02*
X68361714Y-76059961D01*
X68361714Y-76059961D02*
X68266476Y-76155200D01*
X68266476Y-76155200D02*
X68123619Y-76202819D01*
X68123619Y-76202819D02*
X67885524Y-76202819D01*
X69218857Y-75679009D02*
X69361714Y-75726628D01*
X69361714Y-75726628D02*
X69409333Y-75774247D01*
X69409333Y-75774247D02*
X69456952Y-75869485D01*
X69456952Y-75869485D02*
X69456952Y-76012342D01*
X69456952Y-76012342D02*
X69409333Y-76107580D01*
X69409333Y-76107580D02*
X69361714Y-76155200D01*
X69361714Y-76155200D02*
X69266476Y-76202819D01*
X69266476Y-76202819D02*
X68885524Y-76202819D01*
X68885524Y-76202819D02*
X68885524Y-75202819D01*
X68885524Y-75202819D02*
X69218857Y-75202819D01*
X69218857Y-75202819D02*
X69314095Y-75250438D01*
X69314095Y-75250438D02*
X69361714Y-75298057D01*
X69361714Y-75298057D02*
X69409333Y-75393295D01*
X69409333Y-75393295D02*
X69409333Y-75488533D01*
X69409333Y-75488533D02*
X69361714Y-75583771D01*
X69361714Y-75583771D02*
X69314095Y-75631390D01*
X69314095Y-75631390D02*
X69218857Y-75679009D01*
X69218857Y-75679009D02*
X68885524Y-75679009D01*
X69837905Y-75298057D02*
X69885524Y-75250438D01*
X69885524Y-75250438D02*
X69980762Y-75202819D01*
X69980762Y-75202819D02*
X70218857Y-75202819D01*
X70218857Y-75202819D02*
X70314095Y-75250438D01*
X70314095Y-75250438D02*
X70361714Y-75298057D01*
X70361714Y-75298057D02*
X70409333Y-75393295D01*
X70409333Y-75393295D02*
X70409333Y-75488533D01*
X70409333Y-75488533D02*
X70361714Y-75631390D01*
X70361714Y-75631390D02*
X69790286Y-76202819D01*
X69790286Y-76202819D02*
X70409333Y-76202819D01*
X71028381Y-75202819D02*
X71123619Y-75202819D01*
X71123619Y-75202819D02*
X71218857Y-75250438D01*
X71218857Y-75250438D02*
X71266476Y-75298057D01*
X71266476Y-75298057D02*
X71314095Y-75393295D01*
X71314095Y-75393295D02*
X71361714Y-75583771D01*
X71361714Y-75583771D02*
X71361714Y-75821866D01*
X71361714Y-75821866D02*
X71314095Y-76012342D01*
X71314095Y-76012342D02*
X71266476Y-76107580D01*
X71266476Y-76107580D02*
X71218857Y-76155200D01*
X71218857Y-76155200D02*
X71123619Y-76202819D01*
X71123619Y-76202819D02*
X71028381Y-76202819D01*
X71028381Y-76202819D02*
X70933143Y-76155200D01*
X70933143Y-76155200D02*
X70885524Y-76107580D01*
X70885524Y-76107580D02*
X70837905Y-76012342D01*
X70837905Y-76012342D02*
X70790286Y-75821866D01*
X70790286Y-75821866D02*
X70790286Y-75583771D01*
X70790286Y-75583771D02*
X70837905Y-75393295D01*
X70837905Y-75393295D02*
X70885524Y-75298057D01*
X70885524Y-75298057D02*
X70933143Y-75250438D01*
X70933143Y-75250438D02*
X71028381Y-75202819D01*
X71695048Y-75202819D02*
X72361714Y-75202819D01*
X72361714Y-75202819D02*
X71933143Y-76202819D01*
X77918580Y-80774857D02*
X77966200Y-80822476D01*
X77966200Y-80822476D02*
X78013819Y-80965333D01*
X78013819Y-80965333D02*
X78013819Y-81060571D01*
X78013819Y-81060571D02*
X77966200Y-81203428D01*
X77966200Y-81203428D02*
X77870961Y-81298666D01*
X77870961Y-81298666D02*
X77775723Y-81346285D01*
X77775723Y-81346285D02*
X77585247Y-81393904D01*
X77585247Y-81393904D02*
X77442390Y-81393904D01*
X77442390Y-81393904D02*
X77251914Y-81346285D01*
X77251914Y-81346285D02*
X77156676Y-81298666D01*
X77156676Y-81298666D02*
X77061438Y-81203428D01*
X77061438Y-81203428D02*
X77013819Y-81060571D01*
X77013819Y-81060571D02*
X77013819Y-80965333D01*
X77013819Y-80965333D02*
X77061438Y-80822476D01*
X77061438Y-80822476D02*
X77109057Y-80774857D01*
X78013819Y-79822476D02*
X78013819Y-80393904D01*
X78013819Y-80108190D02*
X77013819Y-80108190D01*
X77013819Y-80108190D02*
X77156676Y-80203428D01*
X77156676Y-80203428D02*
X77251914Y-80298666D01*
X77251914Y-80298666D02*
X77299533Y-80393904D01*
X77013819Y-79203428D02*
X77013819Y-79108190D01*
X77013819Y-79108190D02*
X77061438Y-79012952D01*
X77061438Y-79012952D02*
X77109057Y-78965333D01*
X77109057Y-78965333D02*
X77204295Y-78917714D01*
X77204295Y-78917714D02*
X77394771Y-78870095D01*
X77394771Y-78870095D02*
X77632866Y-78870095D01*
X77632866Y-78870095D02*
X77823342Y-78917714D01*
X77823342Y-78917714D02*
X77918580Y-78965333D01*
X77918580Y-78965333D02*
X77966200Y-79012952D01*
X77966200Y-79012952D02*
X78013819Y-79108190D01*
X78013819Y-79108190D02*
X78013819Y-79203428D01*
X78013819Y-79203428D02*
X77966200Y-79298666D01*
X77966200Y-79298666D02*
X77918580Y-79346285D01*
X77918580Y-79346285D02*
X77823342Y-79393904D01*
X77823342Y-79393904D02*
X77632866Y-79441523D01*
X77632866Y-79441523D02*
X77394771Y-79441523D01*
X77394771Y-79441523D02*
X77204295Y-79393904D01*
X77204295Y-79393904D02*
X77109057Y-79346285D01*
X77109057Y-79346285D02*
X77061438Y-79298666D01*
X77061438Y-79298666D02*
X77013819Y-79203428D01*
X50968476Y-122004819D02*
X50968476Y-122719104D01*
X50968476Y-122719104D02*
X50920857Y-122861961D01*
X50920857Y-122861961D02*
X50825619Y-122957200D01*
X50825619Y-122957200D02*
X50682762Y-123004819D01*
X50682762Y-123004819D02*
X50587524Y-123004819D01*
X51968476Y-123004819D02*
X51397048Y-123004819D01*
X51682762Y-123004819D02*
X51682762Y-122004819D01*
X51682762Y-122004819D02*
X51587524Y-122147676D01*
X51587524Y-122147676D02*
X51492286Y-122242914D01*
X51492286Y-122242914D02*
X51397048Y-122290533D01*
X52587524Y-122004819D02*
X52682762Y-122004819D01*
X52682762Y-122004819D02*
X52778000Y-122052438D01*
X52778000Y-122052438D02*
X52825619Y-122100057D01*
X52825619Y-122100057D02*
X52873238Y-122195295D01*
X52873238Y-122195295D02*
X52920857Y-122385771D01*
X52920857Y-122385771D02*
X52920857Y-122623866D01*
X52920857Y-122623866D02*
X52873238Y-122814342D01*
X52873238Y-122814342D02*
X52825619Y-122909580D01*
X52825619Y-122909580D02*
X52778000Y-122957200D01*
X52778000Y-122957200D02*
X52682762Y-123004819D01*
X52682762Y-123004819D02*
X52587524Y-123004819D01*
X52587524Y-123004819D02*
X52492286Y-122957200D01*
X52492286Y-122957200D02*
X52444667Y-122909580D01*
X52444667Y-122909580D02*
X52397048Y-122814342D01*
X52397048Y-122814342D02*
X52349429Y-122623866D01*
X52349429Y-122623866D02*
X52349429Y-122385771D01*
X52349429Y-122385771D02*
X52397048Y-122195295D01*
X52397048Y-122195295D02*
X52444667Y-122100057D01*
X52444667Y-122100057D02*
X52492286Y-122052438D01*
X52492286Y-122052438D02*
X52587524Y-122004819D01*
X103546476Y-65870819D02*
X103546476Y-66585104D01*
X103546476Y-66585104D02*
X103498857Y-66727961D01*
X103498857Y-66727961D02*
X103403619Y-66823200D01*
X103403619Y-66823200D02*
X103260762Y-66870819D01*
X103260762Y-66870819D02*
X103165524Y-66870819D01*
X104546476Y-66870819D02*
X103975048Y-66870819D01*
X104260762Y-66870819D02*
X104260762Y-65870819D01*
X104260762Y-65870819D02*
X104165524Y-66013676D01*
X104165524Y-66013676D02*
X104070286Y-66108914D01*
X104070286Y-66108914D02*
X103975048Y-66156533D01*
X105403619Y-66204152D02*
X105403619Y-66870819D01*
X105165524Y-65823200D02*
X104927429Y-66537485D01*
X104927429Y-66537485D02*
X105546476Y-66537485D01*
X138855010Y-62103580D02*
X138807391Y-62151200D01*
X138807391Y-62151200D02*
X138664534Y-62198819D01*
X138664534Y-62198819D02*
X138569296Y-62198819D01*
X138569296Y-62198819D02*
X138426439Y-62151200D01*
X138426439Y-62151200D02*
X138331201Y-62055961D01*
X138331201Y-62055961D02*
X138283582Y-61960723D01*
X138283582Y-61960723D02*
X138235963Y-61770247D01*
X138235963Y-61770247D02*
X138235963Y-61627390D01*
X138235963Y-61627390D02*
X138283582Y-61436914D01*
X138283582Y-61436914D02*
X138331201Y-61341676D01*
X138331201Y-61341676D02*
X138426439Y-61246438D01*
X138426439Y-61246438D02*
X138569296Y-61198819D01*
X138569296Y-61198819D02*
X138664534Y-61198819D01*
X138664534Y-61198819D02*
X138807391Y-61246438D01*
X138807391Y-61246438D02*
X138855010Y-61294057D01*
X139331201Y-62198819D02*
X139521677Y-62198819D01*
X139521677Y-62198819D02*
X139616915Y-62151200D01*
X139616915Y-62151200D02*
X139664534Y-62103580D01*
X139664534Y-62103580D02*
X139759772Y-61960723D01*
X139759772Y-61960723D02*
X139807391Y-61770247D01*
X139807391Y-61770247D02*
X139807391Y-61389295D01*
X139807391Y-61389295D02*
X139759772Y-61294057D01*
X139759772Y-61294057D02*
X139712153Y-61246438D01*
X139712153Y-61246438D02*
X139616915Y-61198819D01*
X139616915Y-61198819D02*
X139426439Y-61198819D01*
X139426439Y-61198819D02*
X139331201Y-61246438D01*
X139331201Y-61246438D02*
X139283582Y-61294057D01*
X139283582Y-61294057D02*
X139235963Y-61389295D01*
X139235963Y-61389295D02*
X139235963Y-61627390D01*
X139235963Y-61627390D02*
X139283582Y-61722628D01*
X139283582Y-61722628D02*
X139331201Y-61770247D01*
X139331201Y-61770247D02*
X139426439Y-61817866D01*
X139426439Y-61817866D02*
X139616915Y-61817866D01*
X139616915Y-61817866D02*
X139712153Y-61770247D01*
X139712153Y-61770247D02*
X139759772Y-61722628D01*
X139759772Y-61722628D02*
X139807391Y-61627390D01*
X134528819Y-76266285D02*
X133528819Y-76266285D01*
X133528819Y-76266285D02*
X133528819Y-75885333D01*
X133528819Y-75885333D02*
X133576438Y-75790095D01*
X133576438Y-75790095D02*
X133624057Y-75742476D01*
X133624057Y-75742476D02*
X133719295Y-75694857D01*
X133719295Y-75694857D02*
X133862152Y-75694857D01*
X133862152Y-75694857D02*
X133957390Y-75742476D01*
X133957390Y-75742476D02*
X134005009Y-75790095D01*
X134005009Y-75790095D02*
X134052628Y-75885333D01*
X134052628Y-75885333D02*
X134052628Y-76266285D01*
X134481200Y-75313904D02*
X134528819Y-75171047D01*
X134528819Y-75171047D02*
X134528819Y-74932952D01*
X134528819Y-74932952D02*
X134481200Y-74837714D01*
X134481200Y-74837714D02*
X134433580Y-74790095D01*
X134433580Y-74790095D02*
X134338342Y-74742476D01*
X134338342Y-74742476D02*
X134243104Y-74742476D01*
X134243104Y-74742476D02*
X134147866Y-74790095D01*
X134147866Y-74790095D02*
X134100247Y-74837714D01*
X134100247Y-74837714D02*
X134052628Y-74932952D01*
X134052628Y-74932952D02*
X134005009Y-75123428D01*
X134005009Y-75123428D02*
X133957390Y-75218666D01*
X133957390Y-75218666D02*
X133909771Y-75266285D01*
X133909771Y-75266285D02*
X133814533Y-75313904D01*
X133814533Y-75313904D02*
X133719295Y-75313904D01*
X133719295Y-75313904D02*
X133624057Y-75266285D01*
X133624057Y-75266285D02*
X133576438Y-75218666D01*
X133576438Y-75218666D02*
X133528819Y-75123428D01*
X133528819Y-75123428D02*
X133528819Y-74885333D01*
X133528819Y-74885333D02*
X133576438Y-74742476D01*
X134528819Y-73790095D02*
X134528819Y-74361523D01*
X134528819Y-74075809D02*
X133528819Y-74075809D01*
X133528819Y-74075809D02*
X133671676Y-74171047D01*
X133671676Y-74171047D02*
X133766914Y-74266285D01*
X133766914Y-74266285D02*
X133814533Y-74361523D01*
X134528819Y-71495523D02*
X133528819Y-71495523D01*
X134005009Y-71495523D02*
X134005009Y-70924095D01*
X134528819Y-70924095D02*
X133528819Y-70924095D01*
X134528819Y-69971714D02*
X134528819Y-70447904D01*
X134528819Y-70447904D02*
X133528819Y-70447904D01*
X134528819Y-69638380D02*
X133528819Y-69638380D01*
X134528819Y-69066952D02*
X133957390Y-69495523D01*
X133528819Y-69066952D02*
X134100247Y-69638380D01*
X134147866Y-68638380D02*
X134147866Y-67876476D01*
X133528819Y-66924095D02*
X133528819Y-67400285D01*
X133528819Y-67400285D02*
X134005009Y-67447904D01*
X134005009Y-67447904D02*
X133957390Y-67400285D01*
X133957390Y-67400285D02*
X133909771Y-67305047D01*
X133909771Y-67305047D02*
X133909771Y-67066952D01*
X133909771Y-67066952D02*
X133957390Y-66971714D01*
X133957390Y-66971714D02*
X134005009Y-66924095D01*
X134005009Y-66924095D02*
X134100247Y-66876476D01*
X134100247Y-66876476D02*
X134338342Y-66876476D01*
X134338342Y-66876476D02*
X134433580Y-66924095D01*
X134433580Y-66924095D02*
X134481200Y-66971714D01*
X134481200Y-66971714D02*
X134528819Y-67066952D01*
X134528819Y-67066952D02*
X134528819Y-67305047D01*
X134528819Y-67305047D02*
X134481200Y-67400285D01*
X134481200Y-67400285D02*
X134433580Y-67447904D01*
X134528819Y-66447904D02*
X133528819Y-66447904D01*
X133528819Y-66447904D02*
X134243104Y-66114571D01*
X134243104Y-66114571D02*
X133528819Y-65781238D01*
X133528819Y-65781238D02*
X134528819Y-65781238D01*
X133528819Y-65114571D02*
X133528819Y-65019333D01*
X133528819Y-65019333D02*
X133576438Y-64924095D01*
X133576438Y-64924095D02*
X133624057Y-64876476D01*
X133624057Y-64876476D02*
X133719295Y-64828857D01*
X133719295Y-64828857D02*
X133909771Y-64781238D01*
X133909771Y-64781238D02*
X134147866Y-64781238D01*
X134147866Y-64781238D02*
X134338342Y-64828857D01*
X134338342Y-64828857D02*
X134433580Y-64876476D01*
X134433580Y-64876476D02*
X134481200Y-64924095D01*
X134481200Y-64924095D02*
X134528819Y-65019333D01*
X134528819Y-65019333D02*
X134528819Y-65114571D01*
X134528819Y-65114571D02*
X134481200Y-65209809D01*
X134481200Y-65209809D02*
X134433580Y-65257428D01*
X134433580Y-65257428D02*
X134338342Y-65305047D01*
X134338342Y-65305047D02*
X134147866Y-65352666D01*
X134147866Y-65352666D02*
X133909771Y-65352666D01*
X133909771Y-65352666D02*
X133719295Y-65305047D01*
X133719295Y-65305047D02*
X133624057Y-65257428D01*
X133624057Y-65257428D02*
X133576438Y-65209809D01*
X133576438Y-65209809D02*
X133528819Y-65114571D01*
X133528819Y-63876476D02*
X133528819Y-64352666D01*
X133528819Y-64352666D02*
X134005009Y-64400285D01*
X134005009Y-64400285D02*
X133957390Y-64352666D01*
X133957390Y-64352666D02*
X133909771Y-64257428D01*
X133909771Y-64257428D02*
X133909771Y-64019333D01*
X133909771Y-64019333D02*
X133957390Y-63924095D01*
X133957390Y-63924095D02*
X134005009Y-63876476D01*
X134005009Y-63876476D02*
X134100247Y-63828857D01*
X134100247Y-63828857D02*
X134338342Y-63828857D01*
X134338342Y-63828857D02*
X134433580Y-63876476D01*
X134433580Y-63876476D02*
X134481200Y-63924095D01*
X134481200Y-63924095D02*
X134528819Y-64019333D01*
X134528819Y-64019333D02*
X134528819Y-64257428D01*
X134528819Y-64257428D02*
X134481200Y-64352666D01*
X134481200Y-64352666D02*
X134433580Y-64400285D01*
D12*
%TO.C,PS2*%
X50319500Y-40195500D02*
X53319500Y-40195500D01*
X50319500Y-43195500D02*
X50319500Y-40195500D01*
X50559500Y-40435500D02*
X50559500Y-66055500D01*
X50559500Y-40435500D02*
X91679500Y-40435500D01*
X50559500Y-66055500D02*
X91679500Y-66055500D01*
X91679500Y-40435500D02*
X91679500Y-66055500D01*
%TO.C,J11*%
X107442000Y-51862000D02*
X107442000Y-40422000D01*
X114882000Y-40422000D02*
X107442000Y-40422000D01*
X117842000Y-40422000D02*
X115482000Y-40422000D01*
X117842000Y-41042000D02*
X107442000Y-41042000D01*
X117842000Y-43542000D02*
X107442000Y-43542000D01*
X117842000Y-49742000D02*
X107442000Y-49742000D01*
X117842000Y-51862000D02*
X107442000Y-51862000D01*
X117842000Y-51862000D02*
X117842000Y-40422000D01*
X115182000Y-40422000D02*
X114742000Y-39812000D01*
X115622000Y-39812000D01*
X115182000Y-40422000D01*
G36*
X115182000Y-40422000D02*
G01*
X114742000Y-39812000D01*
X115622000Y-39812000D01*
X115182000Y-40422000D01*
G37*
%TO.C,J20*%
X126598000Y-116310000D02*
X126598000Y-114930000D01*
X127978000Y-116310000D02*
X126598000Y-116310000D01*
X129248000Y-113550000D02*
X134438000Y-113550000D01*
X129248000Y-116310000D02*
X129248000Y-113550000D01*
X129248000Y-116310000D02*
X134438000Y-116310000D01*
X134438000Y-116310000D02*
X134438000Y-113550000D01*
%TO.C,J8*%
X133954000Y-83764000D02*
X133954000Y-95204000D01*
X133954000Y-83764000D02*
X149434000Y-83764000D01*
X133954000Y-85884000D02*
X149434000Y-85884000D01*
X133954000Y-92084000D02*
X149434000Y-92084000D01*
X133954000Y-94584000D02*
X149434000Y-94584000D01*
X133954000Y-95204000D02*
X136314000Y-95204000D01*
X136914000Y-95204000D02*
X149434000Y-95204000D01*
X149434000Y-83764000D02*
X149434000Y-95204000D01*
X137054000Y-95814000D02*
X136174000Y-95814000D01*
X136614000Y-95204000D01*
X137054000Y-95814000D01*
G36*
X137054000Y-95814000D02*
G01*
X136174000Y-95814000D01*
X136614000Y-95204000D01*
X137054000Y-95814000D01*
G37*
%TO.C,J9*%
X50508500Y-69847000D02*
X50508500Y-72207000D01*
X50508500Y-72807000D02*
X50508500Y-85327000D01*
X51128500Y-69847000D02*
X51128500Y-85327000D01*
X53628500Y-69847000D02*
X53628500Y-85327000D01*
X59828500Y-69847000D02*
X59828500Y-85327000D01*
X61948500Y-69847000D02*
X50508500Y-69847000D01*
X61948500Y-69847000D02*
X61948500Y-85327000D01*
X61948500Y-85327000D02*
X50508500Y-85327000D01*
X50508500Y-72507000D02*
X49898500Y-72947000D01*
X49898500Y-72067000D01*
X50508500Y-72507000D01*
G36*
X50508500Y-72507000D02*
G01*
X49898500Y-72947000D01*
X49898500Y-72067000D01*
X50508500Y-72507000D01*
G37*
%TO.C,C6*%
X139275677Y-46187000D02*
X139275677Y-44989000D01*
X139315677Y-46450000D02*
X139315677Y-44726000D01*
X139355677Y-46650000D02*
X139355677Y-44526000D01*
X139395677Y-46818000D02*
X139395677Y-44358000D01*
X139435677Y-46965000D02*
X139435677Y-44211000D01*
X139475677Y-47097000D02*
X139475677Y-44079000D01*
X139515677Y-47218000D02*
X139515677Y-43958000D01*
X139555677Y-47330000D02*
X139555677Y-43846000D01*
X139595677Y-47434000D02*
X139595677Y-43742000D01*
X139635677Y-47532000D02*
X139635677Y-43644000D01*
X139675677Y-47625000D02*
X139675677Y-43551000D01*
X139715677Y-47712000D02*
X139715677Y-43464000D01*
X139755677Y-47796000D02*
X139755677Y-43380000D01*
X139795677Y-47876000D02*
X139795677Y-43300000D01*
X139835677Y-47953000D02*
X139835677Y-43223000D01*
X139875677Y-48027000D02*
X139875677Y-43149000D01*
X139915677Y-48098000D02*
X139915677Y-43078000D01*
X139955677Y-48166000D02*
X139955677Y-43010000D01*
X139995677Y-48232000D02*
X139995677Y-42944000D01*
X140035677Y-48296000D02*
X140035677Y-42880000D01*
X140075677Y-48358000D02*
X140075677Y-42818000D01*
X140115677Y-48418000D02*
X140115677Y-42758000D01*
X140155677Y-48476000D02*
X140155677Y-42700000D01*
X140195677Y-48533000D02*
X140195677Y-42643000D01*
X140235677Y-48588000D02*
X140235677Y-42588000D01*
X140275677Y-48641000D02*
X140275677Y-42535000D01*
X140315677Y-48693000D02*
X140315677Y-42483000D01*
X140355677Y-48744000D02*
X140355677Y-42432000D01*
X140395677Y-48793000D02*
X140395677Y-42383000D01*
X140435677Y-48842000D02*
X140435677Y-42334000D01*
X140475677Y-48889000D02*
X140475677Y-42287000D01*
X140515677Y-48935000D02*
X140515677Y-42241000D01*
X140555677Y-48979000D02*
X140555677Y-42197000D01*
X140595677Y-49023000D02*
X140595677Y-42153000D01*
X140635677Y-44348000D02*
X140635677Y-42110000D01*
X140635677Y-49066000D02*
X140635677Y-46828000D01*
X140675677Y-44348000D02*
X140675677Y-42068000D01*
X140675677Y-49108000D02*
X140675677Y-46828000D01*
X140715677Y-44348000D02*
X140715677Y-42027000D01*
X140715677Y-49149000D02*
X140715677Y-46828000D01*
X140755677Y-44348000D02*
X140755677Y-41987000D01*
X140755677Y-49189000D02*
X140755677Y-46828000D01*
X140795677Y-44348000D02*
X140795677Y-41948000D01*
X140795677Y-49228000D02*
X140795677Y-46828000D01*
X140835677Y-44348000D02*
X140835677Y-41910000D01*
X140835677Y-49266000D02*
X140835677Y-46828000D01*
X140875677Y-44348000D02*
X140875677Y-41872000D01*
X140875677Y-49304000D02*
X140875677Y-46828000D01*
X140915677Y-44348000D02*
X140915677Y-41836000D01*
X140915677Y-49340000D02*
X140915677Y-46828000D01*
X140955677Y-44348000D02*
X140955677Y-41800000D01*
X140955677Y-49376000D02*
X140955677Y-46828000D01*
X140995677Y-44348000D02*
X140995677Y-41765000D01*
X140995677Y-49411000D02*
X140995677Y-46828000D01*
X141035677Y-44348000D02*
X141035677Y-41730000D01*
X141035677Y-49446000D02*
X141035677Y-46828000D01*
X141075677Y-44348000D02*
X141075677Y-41697000D01*
X141075677Y-49479000D02*
X141075677Y-46828000D01*
X141115677Y-44348000D02*
X141115677Y-41664000D01*
X141115677Y-49512000D02*
X141115677Y-46828000D01*
X141155677Y-44348000D02*
X141155677Y-41631000D01*
X141155677Y-49545000D02*
X141155677Y-46828000D01*
X141195677Y-44348000D02*
X141195677Y-41600000D01*
X141195677Y-49576000D02*
X141195677Y-46828000D01*
X141235677Y-44348000D02*
X141235677Y-41568000D01*
X141235677Y-49608000D02*
X141235677Y-46828000D01*
X141275677Y-44348000D02*
X141275677Y-41538000D01*
X141275677Y-49638000D02*
X141275677Y-46828000D01*
X141315677Y-44348000D02*
X141315677Y-41508000D01*
X141315677Y-49668000D02*
X141315677Y-46828000D01*
X141355677Y-44348000D02*
X141355677Y-41479000D01*
X141355677Y-49697000D02*
X141355677Y-46828000D01*
X141395677Y-44348000D02*
X141395677Y-41450000D01*
X141395677Y-49726000D02*
X141395677Y-46828000D01*
X141435677Y-44348000D02*
X141435677Y-41422000D01*
X141435677Y-49754000D02*
X141435677Y-46828000D01*
X141475677Y-44348000D02*
X141475677Y-41395000D01*
X141475677Y-49781000D02*
X141475677Y-46828000D01*
X141515677Y-44348000D02*
X141515677Y-41368000D01*
X141515677Y-49808000D02*
X141515677Y-46828000D01*
X141555677Y-44348000D02*
X141555677Y-41341000D01*
X141555677Y-49835000D02*
X141555677Y-46828000D01*
X141595677Y-44348000D02*
X141595677Y-41316000D01*
X141595677Y-49860000D02*
X141595677Y-46828000D01*
X141635677Y-44348000D02*
X141635677Y-41290000D01*
X141635677Y-49886000D02*
X141635677Y-46828000D01*
X141675677Y-44348000D02*
X141675677Y-41265000D01*
X141675677Y-49911000D02*
X141675677Y-46828000D01*
X141715677Y-44348000D02*
X141715677Y-41241000D01*
X141715677Y-49935000D02*
X141715677Y-46828000D01*
X141755677Y-44348000D02*
X141755677Y-41217000D01*
X141755677Y-49959000D02*
X141755677Y-46828000D01*
X141795677Y-44348000D02*
X141795677Y-41194000D01*
X141795677Y-49982000D02*
X141795677Y-46828000D01*
X141835677Y-44348000D02*
X141835677Y-41171000D01*
X141835677Y-50005000D02*
X141835677Y-46828000D01*
X141875677Y-44348000D02*
X141875677Y-41149000D01*
X141875677Y-50027000D02*
X141875677Y-46828000D01*
X141915677Y-44348000D02*
X141915677Y-41127000D01*
X141915677Y-50049000D02*
X141915677Y-46828000D01*
X141955677Y-44348000D02*
X141955677Y-41105000D01*
X141955677Y-50071000D02*
X141955677Y-46828000D01*
X141995677Y-44348000D02*
X141995677Y-41084000D01*
X141995677Y-50092000D02*
X141995677Y-46828000D01*
X142035677Y-44348000D02*
X142035677Y-41064000D01*
X142035677Y-50112000D02*
X142035677Y-46828000D01*
X142075677Y-44348000D02*
X142075677Y-41044000D01*
X142075677Y-50132000D02*
X142075677Y-46828000D01*
X142115677Y-44348000D02*
X142115677Y-41024000D01*
X142115677Y-50152000D02*
X142115677Y-46828000D01*
X142155677Y-44348000D02*
X142155677Y-41005000D01*
X142155677Y-50171000D02*
X142155677Y-46828000D01*
X142195677Y-44348000D02*
X142195677Y-40986000D01*
X142195677Y-50190000D02*
X142195677Y-46828000D01*
X142235677Y-44348000D02*
X142235677Y-40968000D01*
X142235677Y-50208000D02*
X142235677Y-46828000D01*
X142275677Y-44348000D02*
X142275677Y-40950000D01*
X142275677Y-50226000D02*
X142275677Y-46828000D01*
X142315677Y-44348000D02*
X142315677Y-40932000D01*
X142315677Y-50244000D02*
X142315677Y-46828000D01*
X142355677Y-44348000D02*
X142355677Y-40915000D01*
X142355677Y-50261000D02*
X142355677Y-46828000D01*
X142395677Y-44348000D02*
X142395677Y-40898000D01*
X142395677Y-50278000D02*
X142395677Y-46828000D01*
X142435677Y-44348000D02*
X142435677Y-40882000D01*
X142435677Y-50294000D02*
X142435677Y-46828000D01*
X142475677Y-44348000D02*
X142475677Y-40866000D01*
X142475677Y-50310000D02*
X142475677Y-46828000D01*
X142515677Y-44348000D02*
X142515677Y-40850000D01*
X142515677Y-50326000D02*
X142515677Y-46828000D01*
X142555677Y-44348000D02*
X142555677Y-40835000D01*
X142555677Y-50341000D02*
X142555677Y-46828000D01*
X142595677Y-44348000D02*
X142595677Y-40820000D01*
X142595677Y-50356000D02*
X142595677Y-46828000D01*
X142635677Y-44348000D02*
X142635677Y-40806000D01*
X142635677Y-50370000D02*
X142635677Y-46828000D01*
X142675677Y-44348000D02*
X142675677Y-40791000D01*
X142675677Y-50385000D02*
X142675677Y-46828000D01*
X142715677Y-44348000D02*
X142715677Y-40778000D01*
X142715677Y-50398000D02*
X142715677Y-46828000D01*
X142755677Y-44348000D02*
X142755677Y-40764000D01*
X142755677Y-50412000D02*
X142755677Y-46828000D01*
X142795677Y-44348000D02*
X142795677Y-40751000D01*
X142795677Y-50425000D02*
X142795677Y-46828000D01*
X142835677Y-44348000D02*
X142835677Y-40739000D01*
X142835677Y-50437000D02*
X142835677Y-46828000D01*
X142875677Y-44348000D02*
X142875677Y-40727000D01*
X142875677Y-50449000D02*
X142875677Y-46828000D01*
X142915677Y-44348000D02*
X142915677Y-40715000D01*
X142915677Y-50461000D02*
X142915677Y-46828000D01*
X142955677Y-44348000D02*
X142955677Y-40703000D01*
X142955677Y-50473000D02*
X142955677Y-46828000D01*
X142995677Y-44348000D02*
X142995677Y-40692000D01*
X142995677Y-50484000D02*
X142995677Y-46828000D01*
X143035677Y-44348000D02*
X143035677Y-40681000D01*
X143035677Y-50495000D02*
X143035677Y-46828000D01*
X143075677Y-44348000D02*
X143075677Y-40671000D01*
X143075677Y-50505000D02*
X143075677Y-46828000D01*
X143115677Y-50516000D02*
X143115677Y-40660000D01*
X143155677Y-50525000D02*
X143155677Y-40651000D01*
X143195677Y-50535000D02*
X143195677Y-40641000D01*
X143235677Y-50544000D02*
X143235677Y-40632000D01*
X143275677Y-50553000D02*
X143275677Y-40623000D01*
X143315677Y-50561000D02*
X143315677Y-40615000D01*
X143355677Y-50569000D02*
X143355677Y-40607000D01*
X143395677Y-50577000D02*
X143395677Y-40599000D01*
X143435677Y-50585000D02*
X143435677Y-40591000D01*
X143475677Y-50592000D02*
X143475677Y-40584000D01*
X143515677Y-50599000D02*
X143515677Y-40577000D01*
X143555677Y-50605000D02*
X143555677Y-40571000D01*
X143595677Y-50611000D02*
X143595677Y-40565000D01*
X143635677Y-50617000D02*
X143635677Y-40559000D01*
X143675677Y-50623000D02*
X143675677Y-40553000D01*
X143715677Y-50628000D02*
X143715677Y-40548000D01*
X143755677Y-50633000D02*
X143755677Y-40543000D01*
X143795677Y-50637000D02*
X143795677Y-40539000D01*
X143835677Y-50642000D02*
X143835677Y-40534000D01*
X143875677Y-50645000D02*
X143875677Y-40531000D01*
X143915677Y-50649000D02*
X143915677Y-40527000D01*
X143955677Y-50652000D02*
X143955677Y-40524000D01*
X143995677Y-50655000D02*
X143995677Y-40521000D01*
X144035677Y-50658000D02*
X144035677Y-40518000D01*
X144075677Y-50660000D02*
X144075677Y-40516000D01*
X144115677Y-50662000D02*
X144115677Y-40514000D01*
X144155677Y-50664000D02*
X144155677Y-40512000D01*
X144195677Y-50665000D02*
X144195677Y-40511000D01*
X144235677Y-50667000D02*
X144235677Y-40509000D01*
X144275677Y-50667000D02*
X144275677Y-40509000D01*
X144315677Y-50668000D02*
X144315677Y-40508000D01*
X144355677Y-50668000D02*
X144355677Y-40508000D01*
X149335323Y-48963000D02*
X149335323Y-47963000D01*
X149835323Y-48463000D02*
X148835323Y-48463000D01*
X149475677Y-45588000D02*
G75*
G02*
X139235677Y-45588000I-5120000J0D01*
G01*
X139235677Y-45588000D02*
G75*
G02*
X149475677Y-45588000I5120000J0D01*
G01*
%TO.C,J19*%
X108808000Y-98369000D02*
X108808000Y-109809000D01*
X108808000Y-98369000D02*
X119208000Y-98369000D01*
X108808000Y-100489000D02*
X119208000Y-100489000D01*
X108808000Y-106689000D02*
X119208000Y-106689000D01*
X108808000Y-109189000D02*
X119208000Y-109189000D01*
X108808000Y-109809000D02*
X111168000Y-109809000D01*
X111768000Y-109809000D02*
X119208000Y-109809000D01*
X119208000Y-98369000D02*
X119208000Y-109809000D01*
X111908000Y-110419000D02*
X111028000Y-110419000D01*
X111468000Y-109809000D01*
X111908000Y-110419000D01*
G36*
X111908000Y-110419000D02*
G01*
X111028000Y-110419000D01*
X111468000Y-109809000D01*
X111908000Y-110419000D01*
G37*
%TO.C,D4*%
X50818000Y-116524000D02*
X52318000Y-116524000D01*
X50818000Y-120124000D02*
X50818000Y-116524000D01*
X54018000Y-120124000D02*
X54018000Y-119624000D01*
X56318000Y-116524000D02*
X57818000Y-116524000D01*
X61018000Y-116524000D02*
X62918000Y-116524000D01*
X66018000Y-116524000D02*
X68018000Y-116524000D01*
X71118000Y-116524000D02*
X73118000Y-116524000D01*
X73118000Y-116524000D02*
X73118000Y-120124000D01*
X73118000Y-120124000D02*
X50818000Y-120124000D01*
%TO.C,C7*%
X87402000Y-75847780D02*
X105562000Y-75847780D01*
X87402000Y-75887780D02*
X105562000Y-75887780D01*
X87402000Y-75927780D02*
X105562000Y-75927780D01*
X87403000Y-75767780D02*
X105561000Y-75767780D01*
X87403000Y-75807780D02*
X105561000Y-75807780D01*
X87404000Y-75727780D02*
X105560000Y-75727780D01*
X87405000Y-75687780D02*
X105559000Y-75687780D01*
X87406000Y-75647780D02*
X105558000Y-75647780D01*
X87408000Y-75607780D02*
X105556000Y-75607780D01*
X87409000Y-75567780D02*
X105555000Y-75567780D01*
X87411000Y-75527780D02*
X105553000Y-75527780D01*
X87413000Y-75487780D02*
X105551000Y-75487780D01*
X87415000Y-75447780D02*
X105549000Y-75447780D01*
X87417000Y-75407780D02*
X105547000Y-75407780D01*
X87419000Y-75367780D02*
X105545000Y-75367780D01*
X87422000Y-75327780D02*
X105542000Y-75327780D01*
X87424000Y-75287780D02*
X105540000Y-75287780D01*
X87427000Y-75247780D02*
X105537000Y-75247780D01*
X87430000Y-75207780D02*
X105534000Y-75207780D01*
X87434000Y-75167780D02*
X105530000Y-75167780D01*
X87437000Y-75127780D02*
X105527000Y-75127780D01*
X87441000Y-75087780D02*
X105523000Y-75087780D01*
X87445000Y-75047780D02*
X105519000Y-75047780D01*
X87449000Y-75007780D02*
X105515000Y-75007780D01*
X87453000Y-74967780D02*
X105511000Y-74967780D01*
X87457000Y-74927780D02*
X105507000Y-74927780D01*
X87461000Y-74887780D02*
X105503000Y-74887780D01*
X87466000Y-74847780D02*
X105498000Y-74847780D01*
X87471000Y-74807780D02*
X105493000Y-74807780D01*
X87476000Y-74767780D02*
X105488000Y-74767780D01*
X87481000Y-74727780D02*
X105483000Y-74727780D01*
X87487000Y-74687780D02*
X105477000Y-74687780D01*
X87492000Y-74647780D02*
X105472000Y-74647780D01*
X87498000Y-74607780D02*
X105466000Y-74607780D01*
X87504000Y-74567780D02*
X105460000Y-74567780D01*
X87510000Y-74527780D02*
X105454000Y-74527780D01*
X87516000Y-74487780D02*
X105448000Y-74487780D01*
X87523000Y-74447780D02*
X105441000Y-74447780D01*
X87530000Y-74407780D02*
X105434000Y-74407780D01*
X87536000Y-74367780D02*
X105428000Y-74367780D01*
X87543000Y-74327780D02*
X105421000Y-74327780D01*
X87551000Y-74287780D02*
X105413000Y-74287780D01*
X87558000Y-74247780D02*
X105406000Y-74247780D01*
X87566000Y-74207780D02*
X105398000Y-74207780D01*
X87573000Y-74167780D02*
X105391000Y-74167780D01*
X87581000Y-74127780D02*
X105383000Y-74127780D01*
X87590000Y-74087780D02*
X105374000Y-74087780D01*
X87598000Y-74047780D02*
X105366000Y-74047780D01*
X87606000Y-74007780D02*
X105358000Y-74007780D01*
X87615000Y-73967780D02*
X105349000Y-73967780D01*
X87624000Y-73927780D02*
X105340000Y-73927780D01*
X87633000Y-73887780D02*
X105331000Y-73887780D01*
X87642000Y-73847780D02*
X105322000Y-73847780D01*
X87652000Y-73807780D02*
X105312000Y-73807780D01*
X87661000Y-73767780D02*
X105303000Y-73767780D01*
X87671000Y-73727780D02*
X105293000Y-73727780D01*
X87681000Y-73687780D02*
X105283000Y-73687780D01*
X87692000Y-73647780D02*
X105272000Y-73647780D01*
X87702000Y-73607780D02*
X95042000Y-73607780D01*
X87713000Y-73567780D02*
X95042000Y-73567780D01*
X87723000Y-73527780D02*
X95042000Y-73527780D01*
X87734000Y-73487780D02*
X95042000Y-73487780D01*
X87746000Y-73447780D02*
X95042000Y-73447780D01*
X87757000Y-73407780D02*
X95042000Y-73407780D01*
X87769000Y-73367780D02*
X95042000Y-73367780D01*
X87780000Y-73327780D02*
X95042000Y-73327780D01*
X87792000Y-73287780D02*
X95042000Y-73287780D01*
X87805000Y-73247780D02*
X95042000Y-73247780D01*
X87817000Y-73207780D02*
X95042000Y-73207780D01*
X87830000Y-73167780D02*
X95042000Y-73167780D01*
X87842000Y-73127780D02*
X95042000Y-73127780D01*
X87855000Y-73087780D02*
X95042000Y-73087780D01*
X87869000Y-73047780D02*
X95042000Y-73047780D01*
X87882000Y-73007780D02*
X95042000Y-73007780D01*
X87896000Y-72967780D02*
X95042000Y-72967780D01*
X87910000Y-72927780D02*
X95042000Y-72927780D01*
X87924000Y-72887780D02*
X95042000Y-72887780D01*
X87938000Y-72847780D02*
X95042000Y-72847780D01*
X87952000Y-72807780D02*
X95042000Y-72807780D01*
X87967000Y-72767780D02*
X95042000Y-72767780D01*
X87982000Y-72727780D02*
X95042000Y-72727780D01*
X87997000Y-72687780D02*
X95042000Y-72687780D01*
X88012000Y-72647780D02*
X95042000Y-72647780D01*
X88028000Y-72607780D02*
X95042000Y-72607780D01*
X88044000Y-72567780D02*
X95042000Y-72567780D01*
X88059000Y-72527780D02*
X95042000Y-72527780D01*
X88076000Y-72487780D02*
X95042000Y-72487780D01*
X88092000Y-72447780D02*
X95042000Y-72447780D01*
X88109000Y-72407780D02*
X95042000Y-72407780D01*
X88126000Y-72367780D02*
X95042000Y-72367780D01*
X88143000Y-72327780D02*
X95042000Y-72327780D01*
X88160000Y-72287780D02*
X95042000Y-72287780D01*
X88177000Y-72247780D02*
X95042000Y-72247780D01*
X88195000Y-72207780D02*
X95042000Y-72207780D01*
X88213000Y-72167780D02*
X95042000Y-72167780D01*
X88231000Y-72127780D02*
X95042000Y-72127780D01*
X88250000Y-72087780D02*
X95042000Y-72087780D01*
X88269000Y-72047780D02*
X95042000Y-72047780D01*
X88287000Y-72007780D02*
X95042000Y-72007780D01*
X88307000Y-71967780D02*
X95042000Y-71967780D01*
X88326000Y-71927780D02*
X95042000Y-71927780D01*
X88346000Y-71887780D02*
X95042000Y-71887780D01*
X88366000Y-71847780D02*
X95042000Y-71847780D01*
X88386000Y-71807780D02*
X95042000Y-71807780D01*
X88406000Y-71767780D02*
X95042000Y-71767780D01*
X88427000Y-71727780D02*
X95042000Y-71727780D01*
X88448000Y-71687780D02*
X95042000Y-71687780D01*
X88469000Y-71647780D02*
X95042000Y-71647780D01*
X88490000Y-71607780D02*
X95042000Y-71607780D01*
X88512000Y-71567780D02*
X95042000Y-71567780D01*
X88534000Y-71527780D02*
X95042000Y-71527780D01*
X88556000Y-71487780D02*
X95042000Y-71487780D01*
X88578000Y-71447780D02*
X95042000Y-71447780D01*
X88601000Y-71407780D02*
X95042000Y-71407780D01*
X88624000Y-71367780D02*
X95042000Y-71367780D01*
X88647000Y-71327780D02*
X95042000Y-71327780D01*
X88671000Y-71287780D02*
X95042000Y-71287780D01*
X88694000Y-71247780D02*
X95042000Y-71247780D01*
X88718000Y-71207780D02*
X95042000Y-71207780D01*
X88743000Y-71167780D02*
X95042000Y-71167780D01*
X88767000Y-71127780D02*
X95042000Y-71127780D01*
X88792000Y-71087780D02*
X95042000Y-71087780D01*
X88817000Y-71047780D02*
X95042000Y-71047780D01*
X88843000Y-71007780D02*
X95042000Y-71007780D01*
X88869000Y-70967780D02*
X95042000Y-70967780D01*
X88895000Y-70927780D02*
X95042000Y-70927780D01*
X88921000Y-70887780D02*
X95042000Y-70887780D01*
X88948000Y-70847780D02*
X95042000Y-70847780D01*
X88975000Y-70807780D02*
X95042000Y-70807780D01*
X89002000Y-70767780D02*
X95042000Y-70767780D01*
X89030000Y-70727780D02*
X103934000Y-70727780D01*
X89058000Y-70687780D02*
X103906000Y-70687780D01*
X89086000Y-70647780D02*
X103878000Y-70647780D01*
X89114000Y-70607780D02*
X103850000Y-70607780D01*
X89143000Y-70567780D02*
X103821000Y-70567780D01*
X89173000Y-70527780D02*
X103791000Y-70527780D01*
X89202000Y-70487780D02*
X103762000Y-70487780D01*
X89232000Y-70447780D02*
X103732000Y-70447780D01*
X89262000Y-70407780D02*
X103702000Y-70407780D01*
X89293000Y-70367780D02*
X103671000Y-70367780D01*
X89324000Y-70327780D02*
X103640000Y-70327780D01*
X89355000Y-70287780D02*
X103609000Y-70287780D01*
X89387000Y-70247780D02*
X103577000Y-70247780D01*
X89419000Y-70207780D02*
X103545000Y-70207780D01*
X89451000Y-70167780D02*
X103513000Y-70167780D01*
X89484000Y-70127780D02*
X103480000Y-70127780D01*
X89517000Y-70087780D02*
X103447000Y-70087780D01*
X89551000Y-70047780D02*
X103413000Y-70047780D01*
X89585000Y-70007780D02*
X103379000Y-70007780D01*
X89619000Y-69967780D02*
X103345000Y-69967780D01*
X89654000Y-69927780D02*
X103310000Y-69927780D01*
X89689000Y-69887780D02*
X103275000Y-69887780D01*
X89724000Y-69847780D02*
X103240000Y-69847780D01*
X89760000Y-69807780D02*
X103204000Y-69807780D01*
X89797000Y-69767780D02*
X103167000Y-69767780D01*
X89834000Y-69727780D02*
X103130000Y-69727780D01*
X89871000Y-69687780D02*
X103093000Y-69687780D01*
X89909000Y-69647780D02*
X103055000Y-69647780D01*
X89947000Y-69607780D02*
X103017000Y-69607780D01*
X89986000Y-69567780D02*
X102978000Y-69567780D01*
X90025000Y-69527780D02*
X102939000Y-69527780D01*
X90064000Y-69487780D02*
X102900000Y-69487780D01*
X90105000Y-69447780D02*
X102859000Y-69447780D01*
X90145000Y-69407780D02*
X102819000Y-69407780D01*
X90186000Y-69367780D02*
X102778000Y-69367780D01*
X90228000Y-69327780D02*
X102736000Y-69327780D01*
X90270000Y-69287780D02*
X102694000Y-69287780D01*
X90313000Y-69247780D02*
X102651000Y-69247780D01*
X90356000Y-69207780D02*
X102608000Y-69207780D01*
X90400000Y-69167780D02*
X102564000Y-69167780D01*
X90445000Y-69127780D02*
X102519000Y-69127780D01*
X90467000Y-84787220D02*
X92267000Y-84787220D01*
X90490000Y-69087780D02*
X102474000Y-69087780D01*
X90535000Y-69047780D02*
X102429000Y-69047780D01*
X90582000Y-69007780D02*
X102382000Y-69007780D01*
X90629000Y-68967780D02*
X102335000Y-68967780D01*
X90676000Y-68927780D02*
X102288000Y-68927780D01*
X90724000Y-68887780D02*
X102240000Y-68887780D01*
X90773000Y-68847780D02*
X102191000Y-68847780D01*
X90823000Y-68807780D02*
X102141000Y-68807780D01*
X90873000Y-68767780D02*
X102091000Y-68767780D01*
X90924000Y-68727780D02*
X102040000Y-68727780D01*
X90976000Y-68687780D02*
X101988000Y-68687780D01*
X91029000Y-68647780D02*
X101935000Y-68647780D01*
X91082000Y-68607780D02*
X101882000Y-68607780D01*
X91136000Y-68567780D02*
X101828000Y-68567780D01*
X91191000Y-68527780D02*
X101773000Y-68527780D01*
X91247000Y-68487780D02*
X101717000Y-68487780D01*
X91304000Y-68447780D02*
X101660000Y-68447780D01*
X91362000Y-68407780D02*
X101602000Y-68407780D01*
X91367000Y-85687220D02*
X91367000Y-83887220D01*
X91421000Y-68367780D02*
X101543000Y-68367780D01*
X91481000Y-68327780D02*
X101483000Y-68327780D01*
X91542000Y-68287780D02*
X101422000Y-68287780D01*
X91603000Y-68247780D02*
X101361000Y-68247780D01*
X91666000Y-68207780D02*
X101298000Y-68207780D01*
X91731000Y-68167780D02*
X101233000Y-68167780D01*
X91796000Y-68127780D02*
X101168000Y-68127780D01*
X91863000Y-68087780D02*
X101101000Y-68087780D01*
X91931000Y-68047780D02*
X101033000Y-68047780D01*
X92000000Y-68007780D02*
X100964000Y-68007780D01*
X92071000Y-67967780D02*
X100893000Y-67967780D01*
X92143000Y-67927780D02*
X100821000Y-67927780D01*
X92217000Y-67887780D02*
X100747000Y-67887780D01*
X92293000Y-67847780D02*
X100671000Y-67847780D01*
X92370000Y-67807780D02*
X100594000Y-67807780D01*
X92449000Y-67767780D02*
X100515000Y-67767780D01*
X92530000Y-67727780D02*
X100434000Y-67727780D01*
X92613000Y-67687780D02*
X100351000Y-67687780D01*
X92699000Y-67647780D02*
X100265000Y-67647780D01*
X92787000Y-67607780D02*
X100177000Y-67607780D01*
X92877000Y-67567780D02*
X100087000Y-67567780D01*
X92970000Y-67527780D02*
X99994000Y-67527780D01*
X93066000Y-67487780D02*
X99898000Y-67487780D01*
X93166000Y-67447780D02*
X99798000Y-67447780D01*
X93269000Y-67407780D02*
X99695000Y-67407780D01*
X93375000Y-67367780D02*
X99589000Y-67367780D01*
X93486000Y-67327780D02*
X99478000Y-67327780D01*
X93602000Y-67287780D02*
X99362000Y-67287780D01*
X93723000Y-67247780D02*
X99241000Y-67247780D01*
X93851000Y-67207780D02*
X99113000Y-67207780D01*
X93985000Y-67167780D02*
X98979000Y-67167780D01*
X94127000Y-67127780D02*
X98837000Y-67127780D01*
X94280000Y-67087780D02*
X98684000Y-67087780D01*
X94444000Y-67047780D02*
X98520000Y-67047780D01*
X94623000Y-67007780D02*
X98341000Y-67007780D01*
X94821000Y-66967780D02*
X98143000Y-66967780D01*
X95047000Y-66927780D02*
X97917000Y-66927780D01*
X95317000Y-66887780D02*
X97647000Y-66887780D01*
X95669000Y-66847780D02*
X97295000Y-66847780D01*
X96522000Y-66807780D02*
X96442000Y-66807780D01*
X97922000Y-70767780D02*
X103962000Y-70767780D01*
X97922000Y-70807780D02*
X103989000Y-70807780D01*
X97922000Y-70847780D02*
X104016000Y-70847780D01*
X97922000Y-70887780D02*
X104043000Y-70887780D01*
X97922000Y-70927780D02*
X104069000Y-70927780D01*
X97922000Y-70967780D02*
X104095000Y-70967780D01*
X97922000Y-71007780D02*
X104121000Y-71007780D01*
X97922000Y-71047780D02*
X104147000Y-71047780D01*
X97922000Y-71087780D02*
X104172000Y-71087780D01*
X97922000Y-71127780D02*
X104197000Y-71127780D01*
X97922000Y-71167780D02*
X104221000Y-71167780D01*
X97922000Y-71207780D02*
X104246000Y-71207780D01*
X97922000Y-71247780D02*
X104270000Y-71247780D01*
X97922000Y-71287780D02*
X104293000Y-71287780D01*
X97922000Y-71327780D02*
X104317000Y-71327780D01*
X97922000Y-71367780D02*
X104340000Y-71367780D01*
X97922000Y-71407780D02*
X104363000Y-71407780D01*
X97922000Y-71447780D02*
X104386000Y-71447780D01*
X97922000Y-71487780D02*
X104408000Y-71487780D01*
X97922000Y-71527780D02*
X104430000Y-71527780D01*
X97922000Y-71567780D02*
X104452000Y-71567780D01*
X97922000Y-71607780D02*
X104474000Y-71607780D01*
X97922000Y-71647780D02*
X104495000Y-71647780D01*
X97922000Y-71687780D02*
X104516000Y-71687780D01*
X97922000Y-71727780D02*
X104537000Y-71727780D01*
X97922000Y-71767780D02*
X104558000Y-71767780D01*
X97922000Y-71807780D02*
X104578000Y-71807780D01*
X97922000Y-71847780D02*
X104598000Y-71847780D01*
X97922000Y-71887780D02*
X104618000Y-71887780D01*
X97922000Y-71927780D02*
X104638000Y-71927780D01*
X97922000Y-71967780D02*
X104657000Y-71967780D01*
X97922000Y-72007780D02*
X104677000Y-72007780D01*
X97922000Y-72047780D02*
X104695000Y-72047780D01*
X97922000Y-72087780D02*
X104714000Y-72087780D01*
X97922000Y-72127780D02*
X104733000Y-72127780D01*
X97922000Y-72167780D02*
X104751000Y-72167780D01*
X97922000Y-72207780D02*
X104769000Y-72207780D01*
X97922000Y-72247780D02*
X104787000Y-72247780D01*
X97922000Y-72287780D02*
X104804000Y-72287780D01*
X97922000Y-72327780D02*
X104821000Y-72327780D01*
X97922000Y-72367780D02*
X104838000Y-72367780D01*
X97922000Y-72407780D02*
X104855000Y-72407780D01*
X97922000Y-72447780D02*
X104872000Y-72447780D01*
X97922000Y-72487780D02*
X104888000Y-72487780D01*
X97922000Y-72527780D02*
X104905000Y-72527780D01*
X97922000Y-72567780D02*
X104920000Y-72567780D01*
X97922000Y-72607780D02*
X104936000Y-72607780D01*
X97922000Y-72647780D02*
X104952000Y-72647780D01*
X97922000Y-72687780D02*
X104967000Y-72687780D01*
X97922000Y-72727780D02*
X104982000Y-72727780D01*
X97922000Y-72767780D02*
X104997000Y-72767780D01*
X97922000Y-72807780D02*
X105012000Y-72807780D01*
X97922000Y-72847780D02*
X105026000Y-72847780D01*
X97922000Y-72887780D02*
X105040000Y-72887780D01*
X97922000Y-72927780D02*
X105054000Y-72927780D01*
X97922000Y-72967780D02*
X105068000Y-72967780D01*
X97922000Y-73007780D02*
X105082000Y-73007780D01*
X97922000Y-73047780D02*
X105095000Y-73047780D01*
X97922000Y-73087780D02*
X105109000Y-73087780D01*
X97922000Y-73127780D02*
X105122000Y-73127780D01*
X97922000Y-73167780D02*
X105134000Y-73167780D01*
X97922000Y-73207780D02*
X105147000Y-73207780D01*
X97922000Y-73247780D02*
X105159000Y-73247780D01*
X97922000Y-73287780D02*
X105172000Y-73287780D01*
X97922000Y-73327780D02*
X105184000Y-73327780D01*
X97922000Y-73367780D02*
X105195000Y-73367780D01*
X97922000Y-73407780D02*
X105207000Y-73407780D01*
X97922000Y-73447780D02*
X105218000Y-73447780D01*
X97922000Y-73487780D02*
X105230000Y-73487780D01*
X97922000Y-73527780D02*
X105241000Y-73527780D01*
X97922000Y-73567780D02*
X105251000Y-73567780D01*
X97922000Y-73607780D02*
X105262000Y-73607780D01*
X105602000Y-75927780D02*
G75*
G02*
X87362000Y-75927780I-9120000J0D01*
G01*
X87362000Y-75927780D02*
G75*
G02*
X105602000Y-75927780I9120000J0D01*
G01*
%TO.C,PS3*%
X50319500Y-88195500D02*
X53319500Y-88195500D01*
X50319500Y-91195500D02*
X50319500Y-88195500D01*
X50559500Y-88435500D02*
X50559500Y-114055500D01*
X50559500Y-88435500D02*
X91679500Y-88435500D01*
X50559500Y-114055500D02*
X91679500Y-114055500D01*
X91679500Y-88435500D02*
X91679500Y-114055500D01*
%TO.C,C11*%
X67336000Y-130071780D02*
X85496000Y-130071780D01*
X67336000Y-130111780D02*
X85496000Y-130111780D01*
X67336000Y-130151780D02*
X85496000Y-130151780D01*
X67337000Y-129991780D02*
X85495000Y-129991780D01*
X67337000Y-130031780D02*
X85495000Y-130031780D01*
X67338000Y-129951780D02*
X85494000Y-129951780D01*
X67339000Y-129911780D02*
X85493000Y-129911780D01*
X67340000Y-129871780D02*
X85492000Y-129871780D01*
X67342000Y-129831780D02*
X85490000Y-129831780D01*
X67343000Y-129791780D02*
X85489000Y-129791780D01*
X67345000Y-129751780D02*
X85487000Y-129751780D01*
X67347000Y-129711780D02*
X85485000Y-129711780D01*
X67349000Y-129671780D02*
X85483000Y-129671780D01*
X67351000Y-129631780D02*
X85481000Y-129631780D01*
X67353000Y-129591780D02*
X85479000Y-129591780D01*
X67356000Y-129551780D02*
X85476000Y-129551780D01*
X67358000Y-129511780D02*
X85474000Y-129511780D01*
X67361000Y-129471780D02*
X85471000Y-129471780D01*
X67364000Y-129431780D02*
X85468000Y-129431780D01*
X67368000Y-129391780D02*
X85464000Y-129391780D01*
X67371000Y-129351780D02*
X85461000Y-129351780D01*
X67375000Y-129311780D02*
X85457000Y-129311780D01*
X67379000Y-129271780D02*
X85453000Y-129271780D01*
X67383000Y-129231780D02*
X85449000Y-129231780D01*
X67387000Y-129191780D02*
X85445000Y-129191780D01*
X67391000Y-129151780D02*
X85441000Y-129151780D01*
X67395000Y-129111780D02*
X85437000Y-129111780D01*
X67400000Y-129071780D02*
X85432000Y-129071780D01*
X67405000Y-129031780D02*
X85427000Y-129031780D01*
X67410000Y-128991780D02*
X85422000Y-128991780D01*
X67415000Y-128951780D02*
X85417000Y-128951780D01*
X67421000Y-128911780D02*
X85411000Y-128911780D01*
X67426000Y-128871780D02*
X85406000Y-128871780D01*
X67432000Y-128831780D02*
X85400000Y-128831780D01*
X67438000Y-128791780D02*
X85394000Y-128791780D01*
X67444000Y-128751780D02*
X85388000Y-128751780D01*
X67450000Y-128711780D02*
X85382000Y-128711780D01*
X67457000Y-128671780D02*
X85375000Y-128671780D01*
X67464000Y-128631780D02*
X85368000Y-128631780D01*
X67470000Y-128591780D02*
X85362000Y-128591780D01*
X67477000Y-128551780D02*
X85355000Y-128551780D01*
X67485000Y-128511780D02*
X85347000Y-128511780D01*
X67492000Y-128471780D02*
X85340000Y-128471780D01*
X67500000Y-128431780D02*
X85332000Y-128431780D01*
X67507000Y-128391780D02*
X85325000Y-128391780D01*
X67515000Y-128351780D02*
X85317000Y-128351780D01*
X67524000Y-128311780D02*
X85308000Y-128311780D01*
X67532000Y-128271780D02*
X85300000Y-128271780D01*
X67540000Y-128231780D02*
X85292000Y-128231780D01*
X67549000Y-128191780D02*
X85283000Y-128191780D01*
X67558000Y-128151780D02*
X85274000Y-128151780D01*
X67567000Y-128111780D02*
X85265000Y-128111780D01*
X67576000Y-128071780D02*
X85256000Y-128071780D01*
X67586000Y-128031780D02*
X85246000Y-128031780D01*
X67595000Y-127991780D02*
X85237000Y-127991780D01*
X67605000Y-127951780D02*
X85227000Y-127951780D01*
X67615000Y-127911780D02*
X85217000Y-127911780D01*
X67626000Y-127871780D02*
X85206000Y-127871780D01*
X67636000Y-127831780D02*
X74976000Y-127831780D01*
X67647000Y-127791780D02*
X74976000Y-127791780D01*
X67657000Y-127751780D02*
X74976000Y-127751780D01*
X67668000Y-127711780D02*
X74976000Y-127711780D01*
X67680000Y-127671780D02*
X74976000Y-127671780D01*
X67691000Y-127631780D02*
X74976000Y-127631780D01*
X67703000Y-127591780D02*
X74976000Y-127591780D01*
X67714000Y-127551780D02*
X74976000Y-127551780D01*
X67726000Y-127511780D02*
X74976000Y-127511780D01*
X67739000Y-127471780D02*
X74976000Y-127471780D01*
X67751000Y-127431780D02*
X74976000Y-127431780D01*
X67764000Y-127391780D02*
X74976000Y-127391780D01*
X67776000Y-127351780D02*
X74976000Y-127351780D01*
X67789000Y-127311780D02*
X74976000Y-127311780D01*
X67803000Y-127271780D02*
X74976000Y-127271780D01*
X67816000Y-127231780D02*
X74976000Y-127231780D01*
X67830000Y-127191780D02*
X74976000Y-127191780D01*
X67844000Y-127151780D02*
X74976000Y-127151780D01*
X67858000Y-127111780D02*
X74976000Y-127111780D01*
X67872000Y-127071780D02*
X74976000Y-127071780D01*
X67886000Y-127031780D02*
X74976000Y-127031780D01*
X67901000Y-126991780D02*
X74976000Y-126991780D01*
X67916000Y-126951780D02*
X74976000Y-126951780D01*
X67931000Y-126911780D02*
X74976000Y-126911780D01*
X67946000Y-126871780D02*
X74976000Y-126871780D01*
X67962000Y-126831780D02*
X74976000Y-126831780D01*
X67978000Y-126791780D02*
X74976000Y-126791780D01*
X67993000Y-126751780D02*
X74976000Y-126751780D01*
X68010000Y-126711780D02*
X74976000Y-126711780D01*
X68026000Y-126671780D02*
X74976000Y-126671780D01*
X68043000Y-126631780D02*
X74976000Y-126631780D01*
X68060000Y-126591780D02*
X74976000Y-126591780D01*
X68077000Y-126551780D02*
X74976000Y-126551780D01*
X68094000Y-126511780D02*
X74976000Y-126511780D01*
X68111000Y-126471780D02*
X74976000Y-126471780D01*
X68129000Y-126431780D02*
X74976000Y-126431780D01*
X68147000Y-126391780D02*
X74976000Y-126391780D01*
X68165000Y-126351780D02*
X74976000Y-126351780D01*
X68184000Y-126311780D02*
X74976000Y-126311780D01*
X68203000Y-126271780D02*
X74976000Y-126271780D01*
X68221000Y-126231780D02*
X74976000Y-126231780D01*
X68241000Y-126191780D02*
X74976000Y-126191780D01*
X68260000Y-126151780D02*
X74976000Y-126151780D01*
X68280000Y-126111780D02*
X74976000Y-126111780D01*
X68300000Y-126071780D02*
X74976000Y-126071780D01*
X68320000Y-126031780D02*
X74976000Y-126031780D01*
X68340000Y-125991780D02*
X74976000Y-125991780D01*
X68361000Y-125951780D02*
X74976000Y-125951780D01*
X68382000Y-125911780D02*
X74976000Y-125911780D01*
X68403000Y-125871780D02*
X74976000Y-125871780D01*
X68424000Y-125831780D02*
X74976000Y-125831780D01*
X68446000Y-125791780D02*
X74976000Y-125791780D01*
X68468000Y-125751780D02*
X74976000Y-125751780D01*
X68490000Y-125711780D02*
X74976000Y-125711780D01*
X68512000Y-125671780D02*
X74976000Y-125671780D01*
X68535000Y-125631780D02*
X74976000Y-125631780D01*
X68558000Y-125591780D02*
X74976000Y-125591780D01*
X68581000Y-125551780D02*
X74976000Y-125551780D01*
X68605000Y-125511780D02*
X74976000Y-125511780D01*
X68628000Y-125471780D02*
X74976000Y-125471780D01*
X68652000Y-125431780D02*
X74976000Y-125431780D01*
X68677000Y-125391780D02*
X74976000Y-125391780D01*
X68701000Y-125351780D02*
X74976000Y-125351780D01*
X68726000Y-125311780D02*
X74976000Y-125311780D01*
X68751000Y-125271780D02*
X74976000Y-125271780D01*
X68777000Y-125231780D02*
X74976000Y-125231780D01*
X68803000Y-125191780D02*
X74976000Y-125191780D01*
X68829000Y-125151780D02*
X74976000Y-125151780D01*
X68855000Y-125111780D02*
X74976000Y-125111780D01*
X68882000Y-125071780D02*
X74976000Y-125071780D01*
X68909000Y-125031780D02*
X74976000Y-125031780D01*
X68936000Y-124991780D02*
X74976000Y-124991780D01*
X68964000Y-124951780D02*
X83868000Y-124951780D01*
X68992000Y-124911780D02*
X83840000Y-124911780D01*
X69020000Y-124871780D02*
X83812000Y-124871780D01*
X69048000Y-124831780D02*
X83784000Y-124831780D01*
X69077000Y-124791780D02*
X83755000Y-124791780D01*
X69107000Y-124751780D02*
X83725000Y-124751780D01*
X69136000Y-124711780D02*
X83696000Y-124711780D01*
X69166000Y-124671780D02*
X83666000Y-124671780D01*
X69196000Y-124631780D02*
X83636000Y-124631780D01*
X69227000Y-124591780D02*
X83605000Y-124591780D01*
X69258000Y-124551780D02*
X83574000Y-124551780D01*
X69289000Y-124511780D02*
X83543000Y-124511780D01*
X69321000Y-124471780D02*
X83511000Y-124471780D01*
X69353000Y-124431780D02*
X83479000Y-124431780D01*
X69385000Y-124391780D02*
X83447000Y-124391780D01*
X69418000Y-124351780D02*
X83414000Y-124351780D01*
X69451000Y-124311780D02*
X83381000Y-124311780D01*
X69485000Y-124271780D02*
X83347000Y-124271780D01*
X69519000Y-124231780D02*
X83313000Y-124231780D01*
X69553000Y-124191780D02*
X83279000Y-124191780D01*
X69588000Y-124151780D02*
X83244000Y-124151780D01*
X69623000Y-124111780D02*
X83209000Y-124111780D01*
X69658000Y-124071780D02*
X83174000Y-124071780D01*
X69694000Y-124031780D02*
X83138000Y-124031780D01*
X69731000Y-123991780D02*
X83101000Y-123991780D01*
X69768000Y-123951780D02*
X83064000Y-123951780D01*
X69805000Y-123911780D02*
X83027000Y-123911780D01*
X69843000Y-123871780D02*
X82989000Y-123871780D01*
X69881000Y-123831780D02*
X82951000Y-123831780D01*
X69920000Y-123791780D02*
X82912000Y-123791780D01*
X69959000Y-123751780D02*
X82873000Y-123751780D01*
X69998000Y-123711780D02*
X82834000Y-123711780D01*
X70039000Y-123671780D02*
X82793000Y-123671780D01*
X70079000Y-123631780D02*
X82753000Y-123631780D01*
X70120000Y-123591780D02*
X82712000Y-123591780D01*
X70162000Y-123551780D02*
X82670000Y-123551780D01*
X70204000Y-123511780D02*
X82628000Y-123511780D01*
X70247000Y-123471780D02*
X82585000Y-123471780D01*
X70290000Y-123431780D02*
X82542000Y-123431780D01*
X70334000Y-123391780D02*
X82498000Y-123391780D01*
X70379000Y-123351780D02*
X82453000Y-123351780D01*
X70401000Y-139011220D02*
X72201000Y-139011220D01*
X70424000Y-123311780D02*
X82408000Y-123311780D01*
X70469000Y-123271780D02*
X82363000Y-123271780D01*
X70516000Y-123231780D02*
X82316000Y-123231780D01*
X70563000Y-123191780D02*
X82269000Y-123191780D01*
X70610000Y-123151780D02*
X82222000Y-123151780D01*
X70658000Y-123111780D02*
X82174000Y-123111780D01*
X70707000Y-123071780D02*
X82125000Y-123071780D01*
X70757000Y-123031780D02*
X82075000Y-123031780D01*
X70807000Y-122991780D02*
X82025000Y-122991780D01*
X70858000Y-122951780D02*
X81974000Y-122951780D01*
X70910000Y-122911780D02*
X81922000Y-122911780D01*
X70963000Y-122871780D02*
X81869000Y-122871780D01*
X71016000Y-122831780D02*
X81816000Y-122831780D01*
X71070000Y-122791780D02*
X81762000Y-122791780D01*
X71125000Y-122751780D02*
X81707000Y-122751780D01*
X71181000Y-122711780D02*
X81651000Y-122711780D01*
X71238000Y-122671780D02*
X81594000Y-122671780D01*
X71296000Y-122631780D02*
X81536000Y-122631780D01*
X71301000Y-139911220D02*
X71301000Y-138111220D01*
X71355000Y-122591780D02*
X81477000Y-122591780D01*
X71415000Y-122551780D02*
X81417000Y-122551780D01*
X71476000Y-122511780D02*
X81356000Y-122511780D01*
X71537000Y-122471780D02*
X81295000Y-122471780D01*
X71600000Y-122431780D02*
X81232000Y-122431780D01*
X71665000Y-122391780D02*
X81167000Y-122391780D01*
X71730000Y-122351780D02*
X81102000Y-122351780D01*
X71797000Y-122311780D02*
X81035000Y-122311780D01*
X71865000Y-122271780D02*
X80967000Y-122271780D01*
X71934000Y-122231780D02*
X80898000Y-122231780D01*
X72005000Y-122191780D02*
X80827000Y-122191780D01*
X72077000Y-122151780D02*
X80755000Y-122151780D01*
X72151000Y-122111780D02*
X80681000Y-122111780D01*
X72227000Y-122071780D02*
X80605000Y-122071780D01*
X72304000Y-122031780D02*
X80528000Y-122031780D01*
X72383000Y-121991780D02*
X80449000Y-121991780D01*
X72464000Y-121951780D02*
X80368000Y-121951780D01*
X72547000Y-121911780D02*
X80285000Y-121911780D01*
X72633000Y-121871780D02*
X80199000Y-121871780D01*
X72721000Y-121831780D02*
X80111000Y-121831780D01*
X72811000Y-121791780D02*
X80021000Y-121791780D01*
X72904000Y-121751780D02*
X79928000Y-121751780D01*
X73000000Y-121711780D02*
X79832000Y-121711780D01*
X73100000Y-121671780D02*
X79732000Y-121671780D01*
X73203000Y-121631780D02*
X79629000Y-121631780D01*
X73309000Y-121591780D02*
X79523000Y-121591780D01*
X73420000Y-121551780D02*
X79412000Y-121551780D01*
X73536000Y-121511780D02*
X79296000Y-121511780D01*
X73657000Y-121471780D02*
X79175000Y-121471780D01*
X73785000Y-121431780D02*
X79047000Y-121431780D01*
X73919000Y-121391780D02*
X78913000Y-121391780D01*
X74061000Y-121351780D02*
X78771000Y-121351780D01*
X74214000Y-121311780D02*
X78618000Y-121311780D01*
X74378000Y-121271780D02*
X78454000Y-121271780D01*
X74557000Y-121231780D02*
X78275000Y-121231780D01*
X74755000Y-121191780D02*
X78077000Y-121191780D01*
X74981000Y-121151780D02*
X77851000Y-121151780D01*
X75251000Y-121111780D02*
X77581000Y-121111780D01*
X75603000Y-121071780D02*
X77229000Y-121071780D01*
X76456000Y-121031780D02*
X76376000Y-121031780D01*
X77856000Y-124991780D02*
X83896000Y-124991780D01*
X77856000Y-125031780D02*
X83923000Y-125031780D01*
X77856000Y-125071780D02*
X83950000Y-125071780D01*
X77856000Y-125111780D02*
X83977000Y-125111780D01*
X77856000Y-125151780D02*
X84003000Y-125151780D01*
X77856000Y-125191780D02*
X84029000Y-125191780D01*
X77856000Y-125231780D02*
X84055000Y-125231780D01*
X77856000Y-125271780D02*
X84081000Y-125271780D01*
X77856000Y-125311780D02*
X84106000Y-125311780D01*
X77856000Y-125351780D02*
X84131000Y-125351780D01*
X77856000Y-125391780D02*
X84155000Y-125391780D01*
X77856000Y-125431780D02*
X84180000Y-125431780D01*
X77856000Y-125471780D02*
X84204000Y-125471780D01*
X77856000Y-125511780D02*
X84227000Y-125511780D01*
X77856000Y-125551780D02*
X84251000Y-125551780D01*
X77856000Y-125591780D02*
X84274000Y-125591780D01*
X77856000Y-125631780D02*
X84297000Y-125631780D01*
X77856000Y-125671780D02*
X84320000Y-125671780D01*
X77856000Y-125711780D02*
X84342000Y-125711780D01*
X77856000Y-125751780D02*
X84364000Y-125751780D01*
X77856000Y-125791780D02*
X84386000Y-125791780D01*
X77856000Y-125831780D02*
X84408000Y-125831780D01*
X77856000Y-125871780D02*
X84429000Y-125871780D01*
X77856000Y-125911780D02*
X84450000Y-125911780D01*
X77856000Y-125951780D02*
X84471000Y-125951780D01*
X77856000Y-125991780D02*
X84492000Y-125991780D01*
X77856000Y-126031780D02*
X84512000Y-126031780D01*
X77856000Y-126071780D02*
X84532000Y-126071780D01*
X77856000Y-126111780D02*
X84552000Y-126111780D01*
X77856000Y-126151780D02*
X84572000Y-126151780D01*
X77856000Y-126191780D02*
X84591000Y-126191780D01*
X77856000Y-126231780D02*
X84611000Y-126231780D01*
X77856000Y-126271780D02*
X84629000Y-126271780D01*
X77856000Y-126311780D02*
X84648000Y-126311780D01*
X77856000Y-126351780D02*
X84667000Y-126351780D01*
X77856000Y-126391780D02*
X84685000Y-126391780D01*
X77856000Y-126431780D02*
X84703000Y-126431780D01*
X77856000Y-126471780D02*
X84721000Y-126471780D01*
X77856000Y-126511780D02*
X84738000Y-126511780D01*
X77856000Y-126551780D02*
X84755000Y-126551780D01*
X77856000Y-126591780D02*
X84772000Y-126591780D01*
X77856000Y-126631780D02*
X84789000Y-126631780D01*
X77856000Y-126671780D02*
X84806000Y-126671780D01*
X77856000Y-126711780D02*
X84822000Y-126711780D01*
X77856000Y-126751780D02*
X84839000Y-126751780D01*
X77856000Y-126791780D02*
X84854000Y-126791780D01*
X77856000Y-126831780D02*
X84870000Y-126831780D01*
X77856000Y-126871780D02*
X84886000Y-126871780D01*
X77856000Y-126911780D02*
X84901000Y-126911780D01*
X77856000Y-126951780D02*
X84916000Y-126951780D01*
X77856000Y-126991780D02*
X84931000Y-126991780D01*
X77856000Y-127031780D02*
X84946000Y-127031780D01*
X77856000Y-127071780D02*
X84960000Y-127071780D01*
X77856000Y-127111780D02*
X84974000Y-127111780D01*
X77856000Y-127151780D02*
X84988000Y-127151780D01*
X77856000Y-127191780D02*
X85002000Y-127191780D01*
X77856000Y-127231780D02*
X85016000Y-127231780D01*
X77856000Y-127271780D02*
X85029000Y-127271780D01*
X77856000Y-127311780D02*
X85043000Y-127311780D01*
X77856000Y-127351780D02*
X85056000Y-127351780D01*
X77856000Y-127391780D02*
X85068000Y-127391780D01*
X77856000Y-127431780D02*
X85081000Y-127431780D01*
X77856000Y-127471780D02*
X85093000Y-127471780D01*
X77856000Y-127511780D02*
X85106000Y-127511780D01*
X77856000Y-127551780D02*
X85118000Y-127551780D01*
X77856000Y-127591780D02*
X85129000Y-127591780D01*
X77856000Y-127631780D02*
X85141000Y-127631780D01*
X77856000Y-127671780D02*
X85152000Y-127671780D01*
X77856000Y-127711780D02*
X85164000Y-127711780D01*
X77856000Y-127751780D02*
X85175000Y-127751780D01*
X77856000Y-127791780D02*
X85185000Y-127791780D01*
X77856000Y-127831780D02*
X85196000Y-127831780D01*
X85536000Y-130151780D02*
G75*
G02*
X67296000Y-130151780I-9120000J0D01*
G01*
X67296000Y-130151780D02*
G75*
G02*
X85536000Y-130151780I9120000J0D01*
G01*
%TO.C,J18*%
X122758000Y-98409500D02*
X122758000Y-109849500D01*
X122758000Y-98409500D02*
X138238000Y-98409500D01*
X122758000Y-100529500D02*
X138238000Y-100529500D01*
X122758000Y-106729500D02*
X138238000Y-106729500D01*
X122758000Y-109229500D02*
X138238000Y-109229500D01*
X122758000Y-109849500D02*
X125118000Y-109849500D01*
X125718000Y-109849500D02*
X138238000Y-109849500D01*
X138238000Y-98409500D02*
X138238000Y-109849500D01*
X125858000Y-110459500D02*
X124978000Y-110459500D01*
X125418000Y-109849500D01*
X125858000Y-110459500D01*
G36*
X125858000Y-110459500D02*
G01*
X124978000Y-110459500D01*
X125418000Y-109849500D01*
X125858000Y-110459500D01*
G37*
%TO.C,J15*%
X93931500Y-88653000D02*
X105371500Y-88653000D01*
X93931500Y-99053000D02*
X93931500Y-88653000D01*
X93931500Y-99053000D02*
X105371500Y-99053000D01*
X96051500Y-99053000D02*
X96051500Y-88653000D01*
X102251500Y-99053000D02*
X102251500Y-88653000D01*
X104751500Y-99053000D02*
X104751500Y-88653000D01*
X105371500Y-96093000D02*
X105371500Y-88653000D01*
X105371500Y-99053000D02*
X105371500Y-96693000D01*
X105981500Y-96833000D02*
X105371500Y-96393000D01*
X105981500Y-95953000D01*
X105981500Y-96833000D01*
G36*
X105981500Y-96833000D02*
G01*
X105371500Y-96393000D01*
X105981500Y-95953000D01*
X105981500Y-96833000D01*
G37*
%TO.C,D2*%
X139094000Y-79384000D02*
X139094000Y-74784000D01*
X144304000Y-79384000D02*
X144304000Y-74084000D01*
X144584000Y-73584000D02*
X144304000Y-73584000D01*
X144304000Y-73304000D01*
X144584000Y-73584000D01*
G36*
X144584000Y-73584000D02*
G01*
X144304000Y-73584000D01*
X144304000Y-73304000D01*
X144584000Y-73584000D01*
G37*
%TO.C,C8*%
X87402000Y-130071780D02*
X105562000Y-130071780D01*
X87402000Y-130111780D02*
X105562000Y-130111780D01*
X87402000Y-130151780D02*
X105562000Y-130151780D01*
X87403000Y-129991780D02*
X105561000Y-129991780D01*
X87403000Y-130031780D02*
X105561000Y-130031780D01*
X87404000Y-129951780D02*
X105560000Y-129951780D01*
X87405000Y-129911780D02*
X105559000Y-129911780D01*
X87406000Y-129871780D02*
X105558000Y-129871780D01*
X87408000Y-129831780D02*
X105556000Y-129831780D01*
X87409000Y-129791780D02*
X105555000Y-129791780D01*
X87411000Y-129751780D02*
X105553000Y-129751780D01*
X87413000Y-129711780D02*
X105551000Y-129711780D01*
X87415000Y-129671780D02*
X105549000Y-129671780D01*
X87417000Y-129631780D02*
X105547000Y-129631780D01*
X87419000Y-129591780D02*
X105545000Y-129591780D01*
X87422000Y-129551780D02*
X105542000Y-129551780D01*
X87424000Y-129511780D02*
X105540000Y-129511780D01*
X87427000Y-129471780D02*
X105537000Y-129471780D01*
X87430000Y-129431780D02*
X105534000Y-129431780D01*
X87434000Y-129391780D02*
X105530000Y-129391780D01*
X87437000Y-129351780D02*
X105527000Y-129351780D01*
X87441000Y-129311780D02*
X105523000Y-129311780D01*
X87445000Y-129271780D02*
X105519000Y-129271780D01*
X87449000Y-129231780D02*
X105515000Y-129231780D01*
X87453000Y-129191780D02*
X105511000Y-129191780D01*
X87457000Y-129151780D02*
X105507000Y-129151780D01*
X87461000Y-129111780D02*
X105503000Y-129111780D01*
X87466000Y-129071780D02*
X105498000Y-129071780D01*
X87471000Y-129031780D02*
X105493000Y-129031780D01*
X87476000Y-128991780D02*
X105488000Y-128991780D01*
X87481000Y-128951780D02*
X105483000Y-128951780D01*
X87487000Y-128911780D02*
X105477000Y-128911780D01*
X87492000Y-128871780D02*
X105472000Y-128871780D01*
X87498000Y-128831780D02*
X105466000Y-128831780D01*
X87504000Y-128791780D02*
X105460000Y-128791780D01*
X87510000Y-128751780D02*
X105454000Y-128751780D01*
X87516000Y-128711780D02*
X105448000Y-128711780D01*
X87523000Y-128671780D02*
X105441000Y-128671780D01*
X87530000Y-128631780D02*
X105434000Y-128631780D01*
X87536000Y-128591780D02*
X105428000Y-128591780D01*
X87543000Y-128551780D02*
X105421000Y-128551780D01*
X87551000Y-128511780D02*
X105413000Y-128511780D01*
X87558000Y-128471780D02*
X105406000Y-128471780D01*
X87566000Y-128431780D02*
X105398000Y-128431780D01*
X87573000Y-128391780D02*
X105391000Y-128391780D01*
X87581000Y-128351780D02*
X105383000Y-128351780D01*
X87590000Y-128311780D02*
X105374000Y-128311780D01*
X87598000Y-128271780D02*
X105366000Y-128271780D01*
X87606000Y-128231780D02*
X105358000Y-128231780D01*
X87615000Y-128191780D02*
X105349000Y-128191780D01*
X87624000Y-128151780D02*
X105340000Y-128151780D01*
X87633000Y-128111780D02*
X105331000Y-128111780D01*
X87642000Y-128071780D02*
X105322000Y-128071780D01*
X87652000Y-128031780D02*
X105312000Y-128031780D01*
X87661000Y-127991780D02*
X105303000Y-127991780D01*
X87671000Y-127951780D02*
X105293000Y-127951780D01*
X87681000Y-127911780D02*
X105283000Y-127911780D01*
X87692000Y-127871780D02*
X105272000Y-127871780D01*
X87702000Y-127831780D02*
X95042000Y-127831780D01*
X87713000Y-127791780D02*
X95042000Y-127791780D01*
X87723000Y-127751780D02*
X95042000Y-127751780D01*
X87734000Y-127711780D02*
X95042000Y-127711780D01*
X87746000Y-127671780D02*
X95042000Y-127671780D01*
X87757000Y-127631780D02*
X95042000Y-127631780D01*
X87769000Y-127591780D02*
X95042000Y-127591780D01*
X87780000Y-127551780D02*
X95042000Y-127551780D01*
X87792000Y-127511780D02*
X95042000Y-127511780D01*
X87805000Y-127471780D02*
X95042000Y-127471780D01*
X87817000Y-127431780D02*
X95042000Y-127431780D01*
X87830000Y-127391780D02*
X95042000Y-127391780D01*
X87842000Y-127351780D02*
X95042000Y-127351780D01*
X87855000Y-127311780D02*
X95042000Y-127311780D01*
X87869000Y-127271780D02*
X95042000Y-127271780D01*
X87882000Y-127231780D02*
X95042000Y-127231780D01*
X87896000Y-127191780D02*
X95042000Y-127191780D01*
X87910000Y-127151780D02*
X95042000Y-127151780D01*
X87924000Y-127111780D02*
X95042000Y-127111780D01*
X87938000Y-127071780D02*
X95042000Y-127071780D01*
X87952000Y-127031780D02*
X95042000Y-127031780D01*
X87967000Y-126991780D02*
X95042000Y-126991780D01*
X87982000Y-126951780D02*
X95042000Y-126951780D01*
X87997000Y-126911780D02*
X95042000Y-126911780D01*
X88012000Y-126871780D02*
X95042000Y-126871780D01*
X88028000Y-126831780D02*
X95042000Y-126831780D01*
X88044000Y-126791780D02*
X95042000Y-126791780D01*
X88059000Y-126751780D02*
X95042000Y-126751780D01*
X88076000Y-126711780D02*
X95042000Y-126711780D01*
X88092000Y-126671780D02*
X95042000Y-126671780D01*
X88109000Y-126631780D02*
X95042000Y-126631780D01*
X88126000Y-126591780D02*
X95042000Y-126591780D01*
X88143000Y-126551780D02*
X95042000Y-126551780D01*
X88160000Y-126511780D02*
X95042000Y-126511780D01*
X88177000Y-126471780D02*
X95042000Y-126471780D01*
X88195000Y-126431780D02*
X95042000Y-126431780D01*
X88213000Y-126391780D02*
X95042000Y-126391780D01*
X88231000Y-126351780D02*
X95042000Y-126351780D01*
X88250000Y-126311780D02*
X95042000Y-126311780D01*
X88269000Y-126271780D02*
X95042000Y-126271780D01*
X88287000Y-126231780D02*
X95042000Y-126231780D01*
X88307000Y-126191780D02*
X95042000Y-126191780D01*
X88326000Y-126151780D02*
X95042000Y-126151780D01*
X88346000Y-126111780D02*
X95042000Y-126111780D01*
X88366000Y-126071780D02*
X95042000Y-126071780D01*
X88386000Y-126031780D02*
X95042000Y-126031780D01*
X88406000Y-125991780D02*
X95042000Y-125991780D01*
X88427000Y-125951780D02*
X95042000Y-125951780D01*
X88448000Y-125911780D02*
X95042000Y-125911780D01*
X88469000Y-125871780D02*
X95042000Y-125871780D01*
X88490000Y-125831780D02*
X95042000Y-125831780D01*
X88512000Y-125791780D02*
X95042000Y-125791780D01*
X88534000Y-125751780D02*
X95042000Y-125751780D01*
X88556000Y-125711780D02*
X95042000Y-125711780D01*
X88578000Y-125671780D02*
X95042000Y-125671780D01*
X88601000Y-125631780D02*
X95042000Y-125631780D01*
X88624000Y-125591780D02*
X95042000Y-125591780D01*
X88647000Y-125551780D02*
X95042000Y-125551780D01*
X88671000Y-125511780D02*
X95042000Y-125511780D01*
X88694000Y-125471780D02*
X95042000Y-125471780D01*
X88718000Y-125431780D02*
X95042000Y-125431780D01*
X88743000Y-125391780D02*
X95042000Y-125391780D01*
X88767000Y-125351780D02*
X95042000Y-125351780D01*
X88792000Y-125311780D02*
X95042000Y-125311780D01*
X88817000Y-125271780D02*
X95042000Y-125271780D01*
X88843000Y-125231780D02*
X95042000Y-125231780D01*
X88869000Y-125191780D02*
X95042000Y-125191780D01*
X88895000Y-125151780D02*
X95042000Y-125151780D01*
X88921000Y-125111780D02*
X95042000Y-125111780D01*
X88948000Y-125071780D02*
X95042000Y-125071780D01*
X88975000Y-125031780D02*
X95042000Y-125031780D01*
X89002000Y-124991780D02*
X95042000Y-124991780D01*
X89030000Y-124951780D02*
X103934000Y-124951780D01*
X89058000Y-124911780D02*
X103906000Y-124911780D01*
X89086000Y-124871780D02*
X103878000Y-124871780D01*
X89114000Y-124831780D02*
X103850000Y-124831780D01*
X89143000Y-124791780D02*
X103821000Y-124791780D01*
X89173000Y-124751780D02*
X103791000Y-124751780D01*
X89202000Y-124711780D02*
X103762000Y-124711780D01*
X89232000Y-124671780D02*
X103732000Y-124671780D01*
X89262000Y-124631780D02*
X103702000Y-124631780D01*
X89293000Y-124591780D02*
X103671000Y-124591780D01*
X89324000Y-124551780D02*
X103640000Y-124551780D01*
X89355000Y-124511780D02*
X103609000Y-124511780D01*
X89387000Y-124471780D02*
X103577000Y-124471780D01*
X89419000Y-124431780D02*
X103545000Y-124431780D01*
X89451000Y-124391780D02*
X103513000Y-124391780D01*
X89484000Y-124351780D02*
X103480000Y-124351780D01*
X89517000Y-124311780D02*
X103447000Y-124311780D01*
X89551000Y-124271780D02*
X103413000Y-124271780D01*
X89585000Y-124231780D02*
X103379000Y-124231780D01*
X89619000Y-124191780D02*
X103345000Y-124191780D01*
X89654000Y-124151780D02*
X103310000Y-124151780D01*
X89689000Y-124111780D02*
X103275000Y-124111780D01*
X89724000Y-124071780D02*
X103240000Y-124071780D01*
X89760000Y-124031780D02*
X103204000Y-124031780D01*
X89797000Y-123991780D02*
X103167000Y-123991780D01*
X89834000Y-123951780D02*
X103130000Y-123951780D01*
X89871000Y-123911780D02*
X103093000Y-123911780D01*
X89909000Y-123871780D02*
X103055000Y-123871780D01*
X89947000Y-123831780D02*
X103017000Y-123831780D01*
X89986000Y-123791780D02*
X102978000Y-123791780D01*
X90025000Y-123751780D02*
X102939000Y-123751780D01*
X90064000Y-123711780D02*
X102900000Y-123711780D01*
X90105000Y-123671780D02*
X102859000Y-123671780D01*
X90145000Y-123631780D02*
X102819000Y-123631780D01*
X90186000Y-123591780D02*
X102778000Y-123591780D01*
X90228000Y-123551780D02*
X102736000Y-123551780D01*
X90270000Y-123511780D02*
X102694000Y-123511780D01*
X90313000Y-123471780D02*
X102651000Y-123471780D01*
X90356000Y-123431780D02*
X102608000Y-123431780D01*
X90400000Y-123391780D02*
X102564000Y-123391780D01*
X90445000Y-123351780D02*
X102519000Y-123351780D01*
X90467000Y-139011220D02*
X92267000Y-139011220D01*
X90490000Y-123311780D02*
X102474000Y-123311780D01*
X90535000Y-123271780D02*
X102429000Y-123271780D01*
X90582000Y-123231780D02*
X102382000Y-123231780D01*
X90629000Y-123191780D02*
X102335000Y-123191780D01*
X90676000Y-123151780D02*
X102288000Y-123151780D01*
X90724000Y-123111780D02*
X102240000Y-123111780D01*
X90773000Y-123071780D02*
X102191000Y-123071780D01*
X90823000Y-123031780D02*
X102141000Y-123031780D01*
X90873000Y-122991780D02*
X102091000Y-122991780D01*
X90924000Y-122951780D02*
X102040000Y-122951780D01*
X90976000Y-122911780D02*
X101988000Y-122911780D01*
X91029000Y-122871780D02*
X101935000Y-122871780D01*
X91082000Y-122831780D02*
X101882000Y-122831780D01*
X91136000Y-122791780D02*
X101828000Y-122791780D01*
X91191000Y-122751780D02*
X101773000Y-122751780D01*
X91247000Y-122711780D02*
X101717000Y-122711780D01*
X91304000Y-122671780D02*
X101660000Y-122671780D01*
X91362000Y-122631780D02*
X101602000Y-122631780D01*
X91367000Y-139911220D02*
X91367000Y-138111220D01*
X91421000Y-122591780D02*
X101543000Y-122591780D01*
X91481000Y-122551780D02*
X101483000Y-122551780D01*
X91542000Y-122511780D02*
X101422000Y-122511780D01*
X91603000Y-122471780D02*
X101361000Y-122471780D01*
X91666000Y-122431780D02*
X101298000Y-122431780D01*
X91731000Y-122391780D02*
X101233000Y-122391780D01*
X91796000Y-122351780D02*
X101168000Y-122351780D01*
X91863000Y-122311780D02*
X101101000Y-122311780D01*
X91931000Y-122271780D02*
X101033000Y-122271780D01*
X92000000Y-122231780D02*
X100964000Y-122231780D01*
X92071000Y-122191780D02*
X100893000Y-122191780D01*
X92143000Y-122151780D02*
X100821000Y-122151780D01*
X92217000Y-122111780D02*
X100747000Y-122111780D01*
X92293000Y-122071780D02*
X100671000Y-122071780D01*
X92370000Y-122031780D02*
X100594000Y-122031780D01*
X92449000Y-121991780D02*
X100515000Y-121991780D01*
X92530000Y-121951780D02*
X100434000Y-121951780D01*
X92613000Y-121911780D02*
X100351000Y-121911780D01*
X92699000Y-121871780D02*
X100265000Y-121871780D01*
X92787000Y-121831780D02*
X100177000Y-121831780D01*
X92877000Y-121791780D02*
X100087000Y-121791780D01*
X92970000Y-121751780D02*
X99994000Y-121751780D01*
X93066000Y-121711780D02*
X99898000Y-121711780D01*
X93166000Y-121671780D02*
X99798000Y-121671780D01*
X93269000Y-121631780D02*
X99695000Y-121631780D01*
X93375000Y-121591780D02*
X99589000Y-121591780D01*
X93486000Y-121551780D02*
X99478000Y-121551780D01*
X93602000Y-121511780D02*
X99362000Y-121511780D01*
X93723000Y-121471780D02*
X99241000Y-121471780D01*
X93851000Y-121431780D02*
X99113000Y-121431780D01*
X93985000Y-121391780D02*
X98979000Y-121391780D01*
X94127000Y-121351780D02*
X98837000Y-121351780D01*
X94280000Y-121311780D02*
X98684000Y-121311780D01*
X94444000Y-121271780D02*
X98520000Y-121271780D01*
X94623000Y-121231780D02*
X98341000Y-121231780D01*
X94821000Y-121191780D02*
X98143000Y-121191780D01*
X95047000Y-121151780D02*
X97917000Y-121151780D01*
X95317000Y-121111780D02*
X97647000Y-121111780D01*
X95669000Y-121071780D02*
X97295000Y-121071780D01*
X96522000Y-121031780D02*
X96442000Y-121031780D01*
X97922000Y-124991780D02*
X103962000Y-124991780D01*
X97922000Y-125031780D02*
X103989000Y-125031780D01*
X97922000Y-125071780D02*
X104016000Y-125071780D01*
X97922000Y-125111780D02*
X104043000Y-125111780D01*
X97922000Y-125151780D02*
X104069000Y-125151780D01*
X97922000Y-125191780D02*
X104095000Y-125191780D01*
X97922000Y-125231780D02*
X104121000Y-125231780D01*
X97922000Y-125271780D02*
X104147000Y-125271780D01*
X97922000Y-125311780D02*
X104172000Y-125311780D01*
X97922000Y-125351780D02*
X104197000Y-125351780D01*
X97922000Y-125391780D02*
X104221000Y-125391780D01*
X97922000Y-125431780D02*
X104246000Y-125431780D01*
X97922000Y-125471780D02*
X104270000Y-125471780D01*
X97922000Y-125511780D02*
X104293000Y-125511780D01*
X97922000Y-125551780D02*
X104317000Y-125551780D01*
X97922000Y-125591780D02*
X104340000Y-125591780D01*
X97922000Y-125631780D02*
X104363000Y-125631780D01*
X97922000Y-125671780D02*
X104386000Y-125671780D01*
X97922000Y-125711780D02*
X104408000Y-125711780D01*
X97922000Y-125751780D02*
X104430000Y-125751780D01*
X97922000Y-125791780D02*
X104452000Y-125791780D01*
X97922000Y-125831780D02*
X104474000Y-125831780D01*
X97922000Y-125871780D02*
X104495000Y-125871780D01*
X97922000Y-125911780D02*
X104516000Y-125911780D01*
X97922000Y-125951780D02*
X104537000Y-125951780D01*
X97922000Y-125991780D02*
X104558000Y-125991780D01*
X97922000Y-126031780D02*
X104578000Y-126031780D01*
X97922000Y-126071780D02*
X104598000Y-126071780D01*
X97922000Y-126111780D02*
X104618000Y-126111780D01*
X97922000Y-126151780D02*
X104638000Y-126151780D01*
X97922000Y-126191780D02*
X104657000Y-126191780D01*
X97922000Y-126231780D02*
X104677000Y-126231780D01*
X97922000Y-126271780D02*
X104695000Y-126271780D01*
X97922000Y-126311780D02*
X104714000Y-126311780D01*
X97922000Y-126351780D02*
X104733000Y-126351780D01*
X97922000Y-126391780D02*
X104751000Y-126391780D01*
X97922000Y-126431780D02*
X104769000Y-126431780D01*
X97922000Y-126471780D02*
X104787000Y-126471780D01*
X97922000Y-126511780D02*
X104804000Y-126511780D01*
X97922000Y-126551780D02*
X104821000Y-126551780D01*
X97922000Y-126591780D02*
X104838000Y-126591780D01*
X97922000Y-126631780D02*
X104855000Y-126631780D01*
X97922000Y-126671780D02*
X104872000Y-126671780D01*
X97922000Y-126711780D02*
X104888000Y-126711780D01*
X97922000Y-126751780D02*
X104905000Y-126751780D01*
X97922000Y-126791780D02*
X104920000Y-126791780D01*
X97922000Y-126831780D02*
X104936000Y-126831780D01*
X97922000Y-126871780D02*
X104952000Y-126871780D01*
X97922000Y-126911780D02*
X104967000Y-126911780D01*
X97922000Y-126951780D02*
X104982000Y-126951780D01*
X97922000Y-126991780D02*
X104997000Y-126991780D01*
X97922000Y-127031780D02*
X105012000Y-127031780D01*
X97922000Y-127071780D02*
X105026000Y-127071780D01*
X97922000Y-127111780D02*
X105040000Y-127111780D01*
X97922000Y-127151780D02*
X105054000Y-127151780D01*
X97922000Y-127191780D02*
X105068000Y-127191780D01*
X97922000Y-127231780D02*
X105082000Y-127231780D01*
X97922000Y-127271780D02*
X105095000Y-127271780D01*
X97922000Y-127311780D02*
X105109000Y-127311780D01*
X97922000Y-127351780D02*
X105122000Y-127351780D01*
X97922000Y-127391780D02*
X105134000Y-127391780D01*
X97922000Y-127431780D02*
X105147000Y-127431780D01*
X97922000Y-127471780D02*
X105159000Y-127471780D01*
X97922000Y-127511780D02*
X105172000Y-127511780D01*
X97922000Y-127551780D02*
X105184000Y-127551780D01*
X97922000Y-127591780D02*
X105195000Y-127591780D01*
X97922000Y-127631780D02*
X105207000Y-127631780D01*
X97922000Y-127671780D02*
X105218000Y-127671780D01*
X97922000Y-127711780D02*
X105230000Y-127711780D01*
X97922000Y-127751780D02*
X105241000Y-127751780D01*
X97922000Y-127791780D02*
X105251000Y-127791780D01*
X97922000Y-127831780D02*
X105262000Y-127831780D01*
X105602000Y-130151780D02*
G75*
G02*
X87362000Y-130151780I-9120000J0D01*
G01*
X87362000Y-130151780D02*
G75*
G02*
X105602000Y-130151780I9120000J0D01*
G01*
%TO.C,J12*%
X122179000Y-51948500D02*
X122179000Y-40508500D01*
X129619000Y-40508500D02*
X122179000Y-40508500D01*
X132579000Y-40508500D02*
X130219000Y-40508500D01*
X132579000Y-41128500D02*
X122179000Y-41128500D01*
X132579000Y-43628500D02*
X122179000Y-43628500D01*
X132579000Y-49828500D02*
X122179000Y-49828500D01*
X132579000Y-51948500D02*
X122179000Y-51948500D01*
X132579000Y-51948500D02*
X132579000Y-40508500D01*
X129919000Y-40508500D02*
X129479000Y-39898500D01*
X130359000Y-39898500D01*
X129919000Y-40508500D01*
G36*
X129919000Y-40508500D02*
G01*
X129479000Y-39898500D01*
X130359000Y-39898500D01*
X129919000Y-40508500D01*
G37*
%TO.C,J16*%
X93931500Y-103385000D02*
X105371500Y-103385000D01*
X93931500Y-113785000D02*
X93931500Y-103385000D01*
X93931500Y-113785000D02*
X105371500Y-113785000D01*
X96051500Y-113785000D02*
X96051500Y-103385000D01*
X102251500Y-113785000D02*
X102251500Y-103385000D01*
X104751500Y-113785000D02*
X104751500Y-103385000D01*
X105371500Y-110825000D02*
X105371500Y-103385000D01*
X105371500Y-113785000D02*
X105371500Y-111425000D01*
X105981500Y-111565000D02*
X105371500Y-111125000D01*
X105981500Y-110685000D01*
X105981500Y-111565000D01*
G36*
X105981500Y-111565000D02*
G01*
X105371500Y-111125000D01*
X105981500Y-110685000D01*
X105981500Y-111565000D01*
G37*
%TO.C,J13*%
X94185500Y-40393000D02*
X105625500Y-40393000D01*
X94185500Y-50793000D02*
X94185500Y-40393000D01*
X94185500Y-50793000D02*
X105625500Y-50793000D01*
X96305500Y-50793000D02*
X96305500Y-40393000D01*
X102505500Y-50793000D02*
X102505500Y-40393000D01*
X105005500Y-50793000D02*
X105005500Y-40393000D01*
X105625500Y-47833000D02*
X105625500Y-40393000D01*
X105625500Y-50793000D02*
X105625500Y-48433000D01*
X106235500Y-48573000D02*
X105625500Y-48133000D01*
X106235500Y-47693000D01*
X106235500Y-48573000D01*
G36*
X106235500Y-48573000D02*
G01*
X105625500Y-48133000D01*
X106235500Y-47693000D01*
X106235500Y-48573000D01*
G37*
%TO.C,C12*%
X139275677Y-65999000D02*
X139275677Y-64801000D01*
X139315677Y-66262000D02*
X139315677Y-64538000D01*
X139355677Y-66462000D02*
X139355677Y-64338000D01*
X139395677Y-66630000D02*
X139395677Y-64170000D01*
X139435677Y-66777000D02*
X139435677Y-64023000D01*
X139475677Y-66909000D02*
X139475677Y-63891000D01*
X139515677Y-67030000D02*
X139515677Y-63770000D01*
X139555677Y-67142000D02*
X139555677Y-63658000D01*
X139595677Y-67246000D02*
X139595677Y-63554000D01*
X139635677Y-67344000D02*
X139635677Y-63456000D01*
X139675677Y-67437000D02*
X139675677Y-63363000D01*
X139715677Y-67524000D02*
X139715677Y-63276000D01*
X139755677Y-67608000D02*
X139755677Y-63192000D01*
X139795677Y-67688000D02*
X139795677Y-63112000D01*
X139835677Y-67765000D02*
X139835677Y-63035000D01*
X139875677Y-67839000D02*
X139875677Y-62961000D01*
X139915677Y-67910000D02*
X139915677Y-62890000D01*
X139955677Y-67978000D02*
X139955677Y-62822000D01*
X139995677Y-68044000D02*
X139995677Y-62756000D01*
X140035677Y-68108000D02*
X140035677Y-62692000D01*
X140075677Y-68170000D02*
X140075677Y-62630000D01*
X140115677Y-68230000D02*
X140115677Y-62570000D01*
X140155677Y-68288000D02*
X140155677Y-62512000D01*
X140195677Y-68345000D02*
X140195677Y-62455000D01*
X140235677Y-68400000D02*
X140235677Y-62400000D01*
X140275677Y-68453000D02*
X140275677Y-62347000D01*
X140315677Y-68505000D02*
X140315677Y-62295000D01*
X140355677Y-68556000D02*
X140355677Y-62244000D01*
X140395677Y-68605000D02*
X140395677Y-62195000D01*
X140435677Y-68654000D02*
X140435677Y-62146000D01*
X140475677Y-68701000D02*
X140475677Y-62099000D01*
X140515677Y-68747000D02*
X140515677Y-62053000D01*
X140555677Y-68791000D02*
X140555677Y-62009000D01*
X140595677Y-68835000D02*
X140595677Y-61965000D01*
X140635677Y-64160000D02*
X140635677Y-61922000D01*
X140635677Y-68878000D02*
X140635677Y-66640000D01*
X140675677Y-64160000D02*
X140675677Y-61880000D01*
X140675677Y-68920000D02*
X140675677Y-66640000D01*
X140715677Y-64160000D02*
X140715677Y-61839000D01*
X140715677Y-68961000D02*
X140715677Y-66640000D01*
X140755677Y-64160000D02*
X140755677Y-61799000D01*
X140755677Y-69001000D02*
X140755677Y-66640000D01*
X140795677Y-64160000D02*
X140795677Y-61760000D01*
X140795677Y-69040000D02*
X140795677Y-66640000D01*
X140835677Y-64160000D02*
X140835677Y-61722000D01*
X140835677Y-69078000D02*
X140835677Y-66640000D01*
X140875677Y-64160000D02*
X140875677Y-61684000D01*
X140875677Y-69116000D02*
X140875677Y-66640000D01*
X140915677Y-64160000D02*
X140915677Y-61648000D01*
X140915677Y-69152000D02*
X140915677Y-66640000D01*
X140955677Y-64160000D02*
X140955677Y-61612000D01*
X140955677Y-69188000D02*
X140955677Y-66640000D01*
X140995677Y-64160000D02*
X140995677Y-61577000D01*
X140995677Y-69223000D02*
X140995677Y-66640000D01*
X141035677Y-64160000D02*
X141035677Y-61542000D01*
X141035677Y-69258000D02*
X141035677Y-66640000D01*
X141075677Y-64160000D02*
X141075677Y-61509000D01*
X141075677Y-69291000D02*
X141075677Y-66640000D01*
X141115677Y-64160000D02*
X141115677Y-61476000D01*
X141115677Y-69324000D02*
X141115677Y-66640000D01*
X141155677Y-64160000D02*
X141155677Y-61443000D01*
X141155677Y-69357000D02*
X141155677Y-66640000D01*
X141195677Y-64160000D02*
X141195677Y-61412000D01*
X141195677Y-69388000D02*
X141195677Y-66640000D01*
X141235677Y-64160000D02*
X141235677Y-61380000D01*
X141235677Y-69420000D02*
X141235677Y-66640000D01*
X141275677Y-64160000D02*
X141275677Y-61350000D01*
X141275677Y-69450000D02*
X141275677Y-66640000D01*
X141315677Y-64160000D02*
X141315677Y-61320000D01*
X141315677Y-69480000D02*
X141315677Y-66640000D01*
X141355677Y-64160000D02*
X141355677Y-61291000D01*
X141355677Y-69509000D02*
X141355677Y-66640000D01*
X141395677Y-64160000D02*
X141395677Y-61262000D01*
X141395677Y-69538000D02*
X141395677Y-66640000D01*
X141435677Y-64160000D02*
X141435677Y-61234000D01*
X141435677Y-69566000D02*
X141435677Y-66640000D01*
X141475677Y-64160000D02*
X141475677Y-61207000D01*
X141475677Y-69593000D02*
X141475677Y-66640000D01*
X141515677Y-64160000D02*
X141515677Y-61180000D01*
X141515677Y-69620000D02*
X141515677Y-66640000D01*
X141555677Y-64160000D02*
X141555677Y-61153000D01*
X141555677Y-69647000D02*
X141555677Y-66640000D01*
X141595677Y-64160000D02*
X141595677Y-61128000D01*
X141595677Y-69672000D02*
X141595677Y-66640000D01*
X141635677Y-64160000D02*
X141635677Y-61102000D01*
X141635677Y-69698000D02*
X141635677Y-66640000D01*
X141675677Y-64160000D02*
X141675677Y-61077000D01*
X141675677Y-69723000D02*
X141675677Y-66640000D01*
X141715677Y-64160000D02*
X141715677Y-61053000D01*
X141715677Y-69747000D02*
X141715677Y-66640000D01*
X141755677Y-64160000D02*
X141755677Y-61029000D01*
X141755677Y-69771000D02*
X141755677Y-66640000D01*
X141795677Y-64160000D02*
X141795677Y-61006000D01*
X141795677Y-69794000D02*
X141795677Y-66640000D01*
X141835677Y-64160000D02*
X141835677Y-60983000D01*
X141835677Y-69817000D02*
X141835677Y-66640000D01*
X141875677Y-64160000D02*
X141875677Y-60961000D01*
X141875677Y-69839000D02*
X141875677Y-66640000D01*
X141915677Y-64160000D02*
X141915677Y-60939000D01*
X141915677Y-69861000D02*
X141915677Y-66640000D01*
X141955677Y-64160000D02*
X141955677Y-60917000D01*
X141955677Y-69883000D02*
X141955677Y-66640000D01*
X141995677Y-64160000D02*
X141995677Y-60896000D01*
X141995677Y-69904000D02*
X141995677Y-66640000D01*
X142035677Y-64160000D02*
X142035677Y-60876000D01*
X142035677Y-69924000D02*
X142035677Y-66640000D01*
X142075677Y-64160000D02*
X142075677Y-60856000D01*
X142075677Y-69944000D02*
X142075677Y-66640000D01*
X142115677Y-64160000D02*
X142115677Y-60836000D01*
X142115677Y-69964000D02*
X142115677Y-66640000D01*
X142155677Y-64160000D02*
X142155677Y-60817000D01*
X142155677Y-69983000D02*
X142155677Y-66640000D01*
X142195677Y-64160000D02*
X142195677Y-60798000D01*
X142195677Y-70002000D02*
X142195677Y-66640000D01*
X142235677Y-64160000D02*
X142235677Y-60780000D01*
X142235677Y-70020000D02*
X142235677Y-66640000D01*
X142275677Y-64160000D02*
X142275677Y-60762000D01*
X142275677Y-70038000D02*
X142275677Y-66640000D01*
X142315677Y-64160000D02*
X142315677Y-60744000D01*
X142315677Y-70056000D02*
X142315677Y-66640000D01*
X142355677Y-64160000D02*
X142355677Y-60727000D01*
X142355677Y-70073000D02*
X142355677Y-66640000D01*
X142395677Y-64160000D02*
X142395677Y-60710000D01*
X142395677Y-70090000D02*
X142395677Y-66640000D01*
X142435677Y-64160000D02*
X142435677Y-60694000D01*
X142435677Y-70106000D02*
X142435677Y-66640000D01*
X142475677Y-64160000D02*
X142475677Y-60678000D01*
X142475677Y-70122000D02*
X142475677Y-66640000D01*
X142515677Y-64160000D02*
X142515677Y-60662000D01*
X142515677Y-70138000D02*
X142515677Y-66640000D01*
X142555677Y-64160000D02*
X142555677Y-60647000D01*
X142555677Y-70153000D02*
X142555677Y-66640000D01*
X142595677Y-64160000D02*
X142595677Y-60632000D01*
X142595677Y-70168000D02*
X142595677Y-66640000D01*
X142635677Y-64160000D02*
X142635677Y-60618000D01*
X142635677Y-70182000D02*
X142635677Y-66640000D01*
X142675677Y-64160000D02*
X142675677Y-60603000D01*
X142675677Y-70197000D02*
X142675677Y-66640000D01*
X142715677Y-64160000D02*
X142715677Y-60590000D01*
X142715677Y-70210000D02*
X142715677Y-66640000D01*
X142755677Y-64160000D02*
X142755677Y-60576000D01*
X142755677Y-70224000D02*
X142755677Y-66640000D01*
X142795677Y-64160000D02*
X142795677Y-60563000D01*
X142795677Y-70237000D02*
X142795677Y-66640000D01*
X142835677Y-64160000D02*
X142835677Y-60551000D01*
X142835677Y-70249000D02*
X142835677Y-66640000D01*
X142875677Y-64160000D02*
X142875677Y-60539000D01*
X142875677Y-70261000D02*
X142875677Y-66640000D01*
X142915677Y-64160000D02*
X142915677Y-60527000D01*
X142915677Y-70273000D02*
X142915677Y-66640000D01*
X142955677Y-64160000D02*
X142955677Y-60515000D01*
X142955677Y-70285000D02*
X142955677Y-66640000D01*
X142995677Y-64160000D02*
X142995677Y-60504000D01*
X142995677Y-70296000D02*
X142995677Y-66640000D01*
X143035677Y-64160000D02*
X143035677Y-60493000D01*
X143035677Y-70307000D02*
X143035677Y-66640000D01*
X143075677Y-64160000D02*
X143075677Y-60483000D01*
X143075677Y-70317000D02*
X143075677Y-66640000D01*
X143115677Y-70328000D02*
X143115677Y-60472000D01*
X143155677Y-70337000D02*
X143155677Y-60463000D01*
X143195677Y-70347000D02*
X143195677Y-60453000D01*
X143235677Y-70356000D02*
X143235677Y-60444000D01*
X143275677Y-70365000D02*
X143275677Y-60435000D01*
X143315677Y-70373000D02*
X143315677Y-60427000D01*
X143355677Y-70381000D02*
X143355677Y-60419000D01*
X143395677Y-70389000D02*
X143395677Y-60411000D01*
X143435677Y-70397000D02*
X143435677Y-60403000D01*
X143475677Y-70404000D02*
X143475677Y-60396000D01*
X143515677Y-70411000D02*
X143515677Y-60389000D01*
X143555677Y-70417000D02*
X143555677Y-60383000D01*
X143595677Y-70423000D02*
X143595677Y-60377000D01*
X143635677Y-70429000D02*
X143635677Y-60371000D01*
X143675677Y-70435000D02*
X143675677Y-60365000D01*
X143715677Y-70440000D02*
X143715677Y-60360000D01*
X143755677Y-70445000D02*
X143755677Y-60355000D01*
X143795677Y-70449000D02*
X143795677Y-60351000D01*
X143835677Y-70454000D02*
X143835677Y-60346000D01*
X143875677Y-70457000D02*
X143875677Y-60343000D01*
X143915677Y-70461000D02*
X143915677Y-60339000D01*
X143955677Y-70464000D02*
X143955677Y-60336000D01*
X143995677Y-70467000D02*
X143995677Y-60333000D01*
X144035677Y-70470000D02*
X144035677Y-60330000D01*
X144075677Y-70472000D02*
X144075677Y-60328000D01*
X144115677Y-70474000D02*
X144115677Y-60326000D01*
X144155677Y-70476000D02*
X144155677Y-60324000D01*
X144195677Y-70477000D02*
X144195677Y-60323000D01*
X144235677Y-70479000D02*
X144235677Y-60321000D01*
X144275677Y-70479000D02*
X144275677Y-60321000D01*
X144315677Y-70480000D02*
X144315677Y-60320000D01*
X144355677Y-70480000D02*
X144355677Y-60320000D01*
X149335323Y-68775000D02*
X149335323Y-67775000D01*
X149835323Y-68275000D02*
X148835323Y-68275000D01*
X149475677Y-65400000D02*
G75*
G02*
X139235677Y-65400000I-5120000J0D01*
G01*
X139235677Y-65400000D02*
G75*
G02*
X149475677Y-65400000I5120000J0D01*
G01*
%TO.C,J21*%
X111080000Y-116310000D02*
X111080000Y-114930000D01*
X112460000Y-116310000D02*
X111080000Y-116310000D01*
X113730000Y-113550000D02*
X116380000Y-113550000D01*
X113730000Y-116310000D02*
X113730000Y-113550000D01*
X113730000Y-116310000D02*
X116380000Y-116310000D01*
X116380000Y-116310000D02*
X116380000Y-113550000D01*
%TO.C,D3*%
X67296000Y-76848000D02*
X67296000Y-85448000D01*
X67296000Y-85448000D02*
X69066000Y-85448000D01*
X71066000Y-85448000D02*
X72836000Y-85448000D01*
X72836000Y-76848000D02*
X67296000Y-76848000D01*
X72836000Y-85448000D02*
X72836000Y-76848000D01*
X69066000Y-85448000D02*
G75*
G02*
X71066000Y-85448000I1000000J0D01*
G01*
%TO.C,C10*%
X75400000Y-72847677D02*
X85560000Y-72847677D01*
X75400000Y-72887677D02*
X85560000Y-72887677D01*
X75401000Y-72767677D02*
X85559000Y-72767677D01*
X75401000Y-72807677D02*
X85559000Y-72807677D01*
X75403000Y-72727677D02*
X85557000Y-72727677D01*
X75404000Y-72687677D02*
X85556000Y-72687677D01*
X75406000Y-72647677D02*
X85554000Y-72647677D01*
X75408000Y-72607677D02*
X85552000Y-72607677D01*
X75410000Y-72567677D02*
X85550000Y-72567677D01*
X75413000Y-72527677D02*
X85547000Y-72527677D01*
X75416000Y-72487677D02*
X85544000Y-72487677D01*
X75419000Y-72447677D02*
X85541000Y-72447677D01*
X75423000Y-72407677D02*
X85537000Y-72407677D01*
X75426000Y-72367677D02*
X85534000Y-72367677D01*
X75431000Y-72327677D02*
X85529000Y-72327677D01*
X75435000Y-72287677D02*
X85525000Y-72287677D01*
X75440000Y-72247677D02*
X85520000Y-72247677D01*
X75445000Y-72207677D02*
X85515000Y-72207677D01*
X75451000Y-72167677D02*
X85509000Y-72167677D01*
X75457000Y-72127677D02*
X85503000Y-72127677D01*
X75463000Y-72087677D02*
X85497000Y-72087677D01*
X75469000Y-72047677D02*
X85491000Y-72047677D01*
X75476000Y-72007677D02*
X85484000Y-72007677D01*
X75483000Y-71967677D02*
X85477000Y-71967677D01*
X75491000Y-71927677D02*
X85469000Y-71927677D01*
X75499000Y-71887677D02*
X85461000Y-71887677D01*
X75507000Y-71847677D02*
X85453000Y-71847677D01*
X75515000Y-71807677D02*
X85445000Y-71807677D01*
X75524000Y-71767677D02*
X85436000Y-71767677D01*
X75533000Y-71727677D02*
X85427000Y-71727677D01*
X75543000Y-71687677D02*
X85417000Y-71687677D01*
X75552000Y-71647677D02*
X85408000Y-71647677D01*
X75563000Y-71607677D02*
X79240000Y-71607677D01*
X75573000Y-71567677D02*
X79240000Y-71567677D01*
X75584000Y-71527677D02*
X79240000Y-71527677D01*
X75595000Y-71487677D02*
X79240000Y-71487677D01*
X75607000Y-71447677D02*
X79240000Y-71447677D01*
X75619000Y-71407677D02*
X79240000Y-71407677D01*
X75631000Y-71367677D02*
X79240000Y-71367677D01*
X75643000Y-71327677D02*
X79240000Y-71327677D01*
X75656000Y-71287677D02*
X79240000Y-71287677D01*
X75670000Y-71247677D02*
X79240000Y-71247677D01*
X75683000Y-71207677D02*
X79240000Y-71207677D01*
X75698000Y-71167677D02*
X79240000Y-71167677D01*
X75712000Y-71127677D02*
X79240000Y-71127677D01*
X75727000Y-71087677D02*
X79240000Y-71087677D01*
X75742000Y-71047677D02*
X79240000Y-71047677D01*
X75758000Y-71007677D02*
X79240000Y-71007677D01*
X75774000Y-70967677D02*
X79240000Y-70967677D01*
X75790000Y-70927677D02*
X79240000Y-70927677D01*
X75807000Y-70887677D02*
X79240000Y-70887677D01*
X75824000Y-70847677D02*
X79240000Y-70847677D01*
X75842000Y-70807677D02*
X79240000Y-70807677D01*
X75860000Y-70767677D02*
X79240000Y-70767677D01*
X75878000Y-70727677D02*
X79240000Y-70727677D01*
X75897000Y-70687677D02*
X79240000Y-70687677D01*
X75916000Y-70647677D02*
X79240000Y-70647677D01*
X75936000Y-70607677D02*
X79240000Y-70607677D01*
X75956000Y-70567677D02*
X79240000Y-70567677D01*
X75976000Y-70527677D02*
X79240000Y-70527677D01*
X75997000Y-70487677D02*
X79240000Y-70487677D01*
X76019000Y-70447677D02*
X79240000Y-70447677D01*
X76041000Y-70407677D02*
X79240000Y-70407677D01*
X76063000Y-70367677D02*
X79240000Y-70367677D01*
X76086000Y-70327677D02*
X79240000Y-70327677D01*
X76109000Y-70287677D02*
X79240000Y-70287677D01*
X76133000Y-70247677D02*
X79240000Y-70247677D01*
X76157000Y-70207677D02*
X79240000Y-70207677D01*
X76182000Y-70167677D02*
X79240000Y-70167677D01*
X76208000Y-70127677D02*
X79240000Y-70127677D01*
X76233000Y-70087677D02*
X79240000Y-70087677D01*
X76260000Y-70047677D02*
X79240000Y-70047677D01*
X76287000Y-70007677D02*
X79240000Y-70007677D01*
X76314000Y-69967677D02*
X79240000Y-69967677D01*
X76342000Y-69927677D02*
X79240000Y-69927677D01*
X76371000Y-69887677D02*
X79240000Y-69887677D01*
X76400000Y-69847677D02*
X79240000Y-69847677D01*
X76430000Y-69807677D02*
X79240000Y-69807677D01*
X76460000Y-69767677D02*
X79240000Y-69767677D01*
X76492000Y-69727677D02*
X79240000Y-69727677D01*
X76523000Y-69687677D02*
X79240000Y-69687677D01*
X76556000Y-69647677D02*
X79240000Y-69647677D01*
X76589000Y-69607677D02*
X79240000Y-69607677D01*
X76622000Y-69567677D02*
X79240000Y-69567677D01*
X76657000Y-69527677D02*
X79240000Y-69527677D01*
X76692000Y-69487677D02*
X79240000Y-69487677D01*
X76728000Y-69447677D02*
X79240000Y-69447677D01*
X76764000Y-69407677D02*
X79240000Y-69407677D01*
X76802000Y-69367677D02*
X79240000Y-69367677D01*
X76840000Y-69327677D02*
X79240000Y-69327677D01*
X76879000Y-69287677D02*
X79240000Y-69287677D01*
X76919000Y-69247677D02*
X79240000Y-69247677D01*
X76960000Y-69207677D02*
X79240000Y-69207677D01*
X77002000Y-69167677D02*
X79240000Y-69167677D01*
X77045000Y-69127677D02*
X83915000Y-69127677D01*
X77089000Y-69087677D02*
X83871000Y-69087677D01*
X77105000Y-77867323D02*
X78105000Y-77867323D01*
X77133000Y-69047677D02*
X83827000Y-69047677D01*
X77179000Y-69007677D02*
X83781000Y-69007677D01*
X77226000Y-68967677D02*
X83734000Y-68967677D01*
X77275000Y-68927677D02*
X83685000Y-68927677D01*
X77324000Y-68887677D02*
X83636000Y-68887677D01*
X77375000Y-68847677D02*
X83585000Y-68847677D01*
X77427000Y-68807677D02*
X83533000Y-68807677D01*
X77480000Y-68767677D02*
X83480000Y-68767677D01*
X77535000Y-68727677D02*
X83425000Y-68727677D01*
X77592000Y-68687677D02*
X83368000Y-68687677D01*
X77605000Y-78367323D02*
X77605000Y-77367323D01*
X77650000Y-68647677D02*
X83310000Y-68647677D01*
X77710000Y-68607677D02*
X83250000Y-68607677D01*
X77772000Y-68567677D02*
X83188000Y-68567677D01*
X77836000Y-68527677D02*
X83124000Y-68527677D01*
X77902000Y-68487677D02*
X83058000Y-68487677D01*
X77970000Y-68447677D02*
X82990000Y-68447677D01*
X78041000Y-68407677D02*
X82919000Y-68407677D01*
X78115000Y-68367677D02*
X82845000Y-68367677D01*
X78192000Y-68327677D02*
X82768000Y-68327677D01*
X78272000Y-68287677D02*
X82688000Y-68287677D01*
X78356000Y-68247677D02*
X82604000Y-68247677D01*
X78443000Y-68207677D02*
X82517000Y-68207677D01*
X78536000Y-68167677D02*
X82424000Y-68167677D01*
X78634000Y-68127677D02*
X82326000Y-68127677D01*
X78738000Y-68087677D02*
X82222000Y-68087677D01*
X78850000Y-68047677D02*
X82110000Y-68047677D01*
X78971000Y-68007677D02*
X81989000Y-68007677D01*
X79103000Y-67967677D02*
X81857000Y-67967677D01*
X79250000Y-67927677D02*
X81710000Y-67927677D01*
X79418000Y-67887677D02*
X81542000Y-67887677D01*
X79618000Y-67847677D02*
X81342000Y-67847677D01*
X79881000Y-67807677D02*
X81079000Y-67807677D01*
X81720000Y-69167677D02*
X83958000Y-69167677D01*
X81720000Y-69207677D02*
X84000000Y-69207677D01*
X81720000Y-69247677D02*
X84041000Y-69247677D01*
X81720000Y-69287677D02*
X84081000Y-69287677D01*
X81720000Y-69327677D02*
X84120000Y-69327677D01*
X81720000Y-69367677D02*
X84158000Y-69367677D01*
X81720000Y-69407677D02*
X84196000Y-69407677D01*
X81720000Y-69447677D02*
X84232000Y-69447677D01*
X81720000Y-69487677D02*
X84268000Y-69487677D01*
X81720000Y-69527677D02*
X84303000Y-69527677D01*
X81720000Y-69567677D02*
X84338000Y-69567677D01*
X81720000Y-69607677D02*
X84371000Y-69607677D01*
X81720000Y-69647677D02*
X84404000Y-69647677D01*
X81720000Y-69687677D02*
X84437000Y-69687677D01*
X81720000Y-69727677D02*
X84468000Y-69727677D01*
X81720000Y-69767677D02*
X84500000Y-69767677D01*
X81720000Y-69807677D02*
X84530000Y-69807677D01*
X81720000Y-69847677D02*
X84560000Y-69847677D01*
X81720000Y-69887677D02*
X84589000Y-69887677D01*
X81720000Y-69927677D02*
X84618000Y-69927677D01*
X81720000Y-69967677D02*
X84646000Y-69967677D01*
X81720000Y-70007677D02*
X84673000Y-70007677D01*
X81720000Y-70047677D02*
X84700000Y-70047677D01*
X81720000Y-70087677D02*
X84727000Y-70087677D01*
X81720000Y-70127677D02*
X84752000Y-70127677D01*
X81720000Y-70167677D02*
X84778000Y-70167677D01*
X81720000Y-70207677D02*
X84803000Y-70207677D01*
X81720000Y-70247677D02*
X84827000Y-70247677D01*
X81720000Y-70287677D02*
X84851000Y-70287677D01*
X81720000Y-70327677D02*
X84874000Y-70327677D01*
X81720000Y-70367677D02*
X84897000Y-70367677D01*
X81720000Y-70407677D02*
X84919000Y-70407677D01*
X81720000Y-70447677D02*
X84941000Y-70447677D01*
X81720000Y-70487677D02*
X84963000Y-70487677D01*
X81720000Y-70527677D02*
X84984000Y-70527677D01*
X81720000Y-70567677D02*
X85004000Y-70567677D01*
X81720000Y-70607677D02*
X85024000Y-70607677D01*
X81720000Y-70647677D02*
X85044000Y-70647677D01*
X81720000Y-70687677D02*
X85063000Y-70687677D01*
X81720000Y-70727677D02*
X85082000Y-70727677D01*
X81720000Y-70767677D02*
X85100000Y-70767677D01*
X81720000Y-70807677D02*
X85118000Y-70807677D01*
X81720000Y-70847677D02*
X85136000Y-70847677D01*
X81720000Y-70887677D02*
X85153000Y-70887677D01*
X81720000Y-70927677D02*
X85170000Y-70927677D01*
X81720000Y-70967677D02*
X85186000Y-70967677D01*
X81720000Y-71007677D02*
X85202000Y-71007677D01*
X81720000Y-71047677D02*
X85218000Y-71047677D01*
X81720000Y-71087677D02*
X85233000Y-71087677D01*
X81720000Y-71127677D02*
X85248000Y-71127677D01*
X81720000Y-71167677D02*
X85262000Y-71167677D01*
X81720000Y-71207677D02*
X85277000Y-71207677D01*
X81720000Y-71247677D02*
X85290000Y-71247677D01*
X81720000Y-71287677D02*
X85304000Y-71287677D01*
X81720000Y-71327677D02*
X85317000Y-71327677D01*
X81720000Y-71367677D02*
X85329000Y-71367677D01*
X81720000Y-71407677D02*
X85341000Y-71407677D01*
X81720000Y-71447677D02*
X85353000Y-71447677D01*
X81720000Y-71487677D02*
X85365000Y-71487677D01*
X81720000Y-71527677D02*
X85376000Y-71527677D01*
X81720000Y-71567677D02*
X85387000Y-71567677D01*
X81720000Y-71607677D02*
X85397000Y-71607677D01*
X85600000Y-72887677D02*
G75*
G02*
X75360000Y-72887677I-5120000J0D01*
G01*
X75360000Y-72887677D02*
G75*
G02*
X85600000Y-72887677I5120000J0D01*
G01*
%TO.C,J10*%
X50762500Y-123695000D02*
X50762500Y-126055000D01*
X50762500Y-126655000D02*
X50762500Y-139175000D01*
X51382500Y-123695000D02*
X51382500Y-139175000D01*
X53882500Y-123695000D02*
X53882500Y-139175000D01*
X60082500Y-123695000D02*
X60082500Y-139175000D01*
X62202500Y-123695000D02*
X50762500Y-123695000D01*
X62202500Y-123695000D02*
X62202500Y-139175000D01*
X62202500Y-139175000D02*
X50762500Y-139175000D01*
X50762500Y-126355000D02*
X50152500Y-126795000D01*
X50152500Y-125915000D01*
X50762500Y-126355000D01*
G36*
X50762500Y-126355000D02*
G01*
X50152500Y-126795000D01*
X50152500Y-125915000D01*
X50762500Y-126355000D01*
G37*
%TO.C,J14*%
X94185500Y-54612000D02*
X105625500Y-54612000D01*
X94185500Y-65012000D02*
X94185500Y-54612000D01*
X94185500Y-65012000D02*
X105625500Y-65012000D01*
X96305500Y-65012000D02*
X96305500Y-54612000D01*
X102505500Y-65012000D02*
X102505500Y-54612000D01*
X105005500Y-65012000D02*
X105005500Y-54612000D01*
X105625500Y-62052000D02*
X105625500Y-54612000D01*
X105625500Y-65012000D02*
X105625500Y-62652000D01*
X106235500Y-62792000D02*
X105625500Y-62352000D01*
X106235500Y-61912000D01*
X106235500Y-62792000D01*
G36*
X106235500Y-62792000D02*
G01*
X105625500Y-62352000D01*
X106235500Y-61912000D01*
X106235500Y-62792000D01*
G37*
%TO.C,J2*%
X146410000Y-109850000D02*
X146410000Y-102120000D01*
X149170000Y-102120000D02*
X146410000Y-102120000D01*
X149170000Y-109850000D02*
X146410000Y-109850000D01*
X149170000Y-109850000D02*
X149170000Y-102120000D01*
X149170000Y-111120000D02*
X149170000Y-112500000D01*
X149170000Y-112500000D02*
X147790000Y-112500000D01*
%TO.C,C9*%
X133941677Y-56093000D02*
X133941677Y-54895000D01*
X133981677Y-56356000D02*
X133981677Y-54632000D01*
X134021677Y-56556000D02*
X134021677Y-54432000D01*
X134061677Y-56724000D02*
X134061677Y-54264000D01*
X134101677Y-56871000D02*
X134101677Y-54117000D01*
X134141677Y-57003000D02*
X134141677Y-53985000D01*
X134181677Y-57124000D02*
X134181677Y-53864000D01*
X134221677Y-57236000D02*
X134221677Y-53752000D01*
X134261677Y-57340000D02*
X134261677Y-53648000D01*
X134301677Y-57438000D02*
X134301677Y-53550000D01*
X134341677Y-57531000D02*
X134341677Y-53457000D01*
X134381677Y-57618000D02*
X134381677Y-53370000D01*
X134421677Y-57702000D02*
X134421677Y-53286000D01*
X134461677Y-57782000D02*
X134461677Y-53206000D01*
X134501677Y-57859000D02*
X134501677Y-53129000D01*
X134541677Y-57933000D02*
X134541677Y-53055000D01*
X134581677Y-58004000D02*
X134581677Y-52984000D01*
X134621677Y-58072000D02*
X134621677Y-52916000D01*
X134661677Y-58138000D02*
X134661677Y-52850000D01*
X134701677Y-58202000D02*
X134701677Y-52786000D01*
X134741677Y-58264000D02*
X134741677Y-52724000D01*
X134781677Y-58324000D02*
X134781677Y-52664000D01*
X134821677Y-58382000D02*
X134821677Y-52606000D01*
X134861677Y-58439000D02*
X134861677Y-52549000D01*
X134901677Y-58494000D02*
X134901677Y-52494000D01*
X134941677Y-58547000D02*
X134941677Y-52441000D01*
X134981677Y-58599000D02*
X134981677Y-52389000D01*
X135021677Y-58650000D02*
X135021677Y-52338000D01*
X135061677Y-58699000D02*
X135061677Y-52289000D01*
X135101677Y-58748000D02*
X135101677Y-52240000D01*
X135141677Y-58795000D02*
X135141677Y-52193000D01*
X135181677Y-58841000D02*
X135181677Y-52147000D01*
X135221677Y-58885000D02*
X135221677Y-52103000D01*
X135261677Y-58929000D02*
X135261677Y-52059000D01*
X135301677Y-54254000D02*
X135301677Y-52016000D01*
X135301677Y-58972000D02*
X135301677Y-56734000D01*
X135341677Y-54254000D02*
X135341677Y-51974000D01*
X135341677Y-59014000D02*
X135341677Y-56734000D01*
X135381677Y-54254000D02*
X135381677Y-51933000D01*
X135381677Y-59055000D02*
X135381677Y-56734000D01*
X135421677Y-54254000D02*
X135421677Y-51893000D01*
X135421677Y-59095000D02*
X135421677Y-56734000D01*
X135461677Y-54254000D02*
X135461677Y-51854000D01*
X135461677Y-59134000D02*
X135461677Y-56734000D01*
X135501677Y-54254000D02*
X135501677Y-51816000D01*
X135501677Y-59172000D02*
X135501677Y-56734000D01*
X135541677Y-54254000D02*
X135541677Y-51778000D01*
X135541677Y-59210000D02*
X135541677Y-56734000D01*
X135581677Y-54254000D02*
X135581677Y-51742000D01*
X135581677Y-59246000D02*
X135581677Y-56734000D01*
X135621677Y-54254000D02*
X135621677Y-51706000D01*
X135621677Y-59282000D02*
X135621677Y-56734000D01*
X135661677Y-54254000D02*
X135661677Y-51671000D01*
X135661677Y-59317000D02*
X135661677Y-56734000D01*
X135701677Y-54254000D02*
X135701677Y-51636000D01*
X135701677Y-59352000D02*
X135701677Y-56734000D01*
X135741677Y-54254000D02*
X135741677Y-51603000D01*
X135741677Y-59385000D02*
X135741677Y-56734000D01*
X135781677Y-54254000D02*
X135781677Y-51570000D01*
X135781677Y-59418000D02*
X135781677Y-56734000D01*
X135821677Y-54254000D02*
X135821677Y-51537000D01*
X135821677Y-59451000D02*
X135821677Y-56734000D01*
X135861677Y-54254000D02*
X135861677Y-51506000D01*
X135861677Y-59482000D02*
X135861677Y-56734000D01*
X135901677Y-54254000D02*
X135901677Y-51474000D01*
X135901677Y-59514000D02*
X135901677Y-56734000D01*
X135941677Y-54254000D02*
X135941677Y-51444000D01*
X135941677Y-59544000D02*
X135941677Y-56734000D01*
X135981677Y-54254000D02*
X135981677Y-51414000D01*
X135981677Y-59574000D02*
X135981677Y-56734000D01*
X136021677Y-54254000D02*
X136021677Y-51385000D01*
X136021677Y-59603000D02*
X136021677Y-56734000D01*
X136061677Y-54254000D02*
X136061677Y-51356000D01*
X136061677Y-59632000D02*
X136061677Y-56734000D01*
X136101677Y-54254000D02*
X136101677Y-51328000D01*
X136101677Y-59660000D02*
X136101677Y-56734000D01*
X136141677Y-54254000D02*
X136141677Y-51301000D01*
X136141677Y-59687000D02*
X136141677Y-56734000D01*
X136181677Y-54254000D02*
X136181677Y-51274000D01*
X136181677Y-59714000D02*
X136181677Y-56734000D01*
X136221677Y-54254000D02*
X136221677Y-51247000D01*
X136221677Y-59741000D02*
X136221677Y-56734000D01*
X136261677Y-54254000D02*
X136261677Y-51222000D01*
X136261677Y-59766000D02*
X136261677Y-56734000D01*
X136301677Y-54254000D02*
X136301677Y-51196000D01*
X136301677Y-59792000D02*
X136301677Y-56734000D01*
X136341677Y-54254000D02*
X136341677Y-51171000D01*
X136341677Y-59817000D02*
X136341677Y-56734000D01*
X136381677Y-54254000D02*
X136381677Y-51147000D01*
X136381677Y-59841000D02*
X136381677Y-56734000D01*
X136421677Y-54254000D02*
X136421677Y-51123000D01*
X136421677Y-59865000D02*
X136421677Y-56734000D01*
X136461677Y-54254000D02*
X136461677Y-51100000D01*
X136461677Y-59888000D02*
X136461677Y-56734000D01*
X136501677Y-54254000D02*
X136501677Y-51077000D01*
X136501677Y-59911000D02*
X136501677Y-56734000D01*
X136541677Y-54254000D02*
X136541677Y-51055000D01*
X136541677Y-59933000D02*
X136541677Y-56734000D01*
X136581677Y-54254000D02*
X136581677Y-51033000D01*
X136581677Y-59955000D02*
X136581677Y-56734000D01*
X136621677Y-54254000D02*
X136621677Y-51011000D01*
X136621677Y-59977000D02*
X136621677Y-56734000D01*
X136661677Y-54254000D02*
X136661677Y-50990000D01*
X136661677Y-59998000D02*
X136661677Y-56734000D01*
X136701677Y-54254000D02*
X136701677Y-50970000D01*
X136701677Y-60018000D02*
X136701677Y-56734000D01*
X136741677Y-54254000D02*
X136741677Y-50950000D01*
X136741677Y-60038000D02*
X136741677Y-56734000D01*
X136781677Y-54254000D02*
X136781677Y-50930000D01*
X136781677Y-60058000D02*
X136781677Y-56734000D01*
X136821677Y-54254000D02*
X136821677Y-50911000D01*
X136821677Y-60077000D02*
X136821677Y-56734000D01*
X136861677Y-54254000D02*
X136861677Y-50892000D01*
X136861677Y-60096000D02*
X136861677Y-56734000D01*
X136901677Y-54254000D02*
X136901677Y-50874000D01*
X136901677Y-60114000D02*
X136901677Y-56734000D01*
X136941677Y-54254000D02*
X136941677Y-50856000D01*
X136941677Y-60132000D02*
X136941677Y-56734000D01*
X136981677Y-54254000D02*
X136981677Y-50838000D01*
X136981677Y-60150000D02*
X136981677Y-56734000D01*
X137021677Y-54254000D02*
X137021677Y-50821000D01*
X137021677Y-60167000D02*
X137021677Y-56734000D01*
X137061677Y-54254000D02*
X137061677Y-50804000D01*
X137061677Y-60184000D02*
X137061677Y-56734000D01*
X137101677Y-54254000D02*
X137101677Y-50788000D01*
X137101677Y-60200000D02*
X137101677Y-56734000D01*
X137141677Y-54254000D02*
X137141677Y-50772000D01*
X137141677Y-60216000D02*
X137141677Y-56734000D01*
X137181677Y-54254000D02*
X137181677Y-50756000D01*
X137181677Y-60232000D02*
X137181677Y-56734000D01*
X137221677Y-54254000D02*
X137221677Y-50741000D01*
X137221677Y-60247000D02*
X137221677Y-56734000D01*
X137261677Y-54254000D02*
X137261677Y-50726000D01*
X137261677Y-60262000D02*
X137261677Y-56734000D01*
X137301677Y-54254000D02*
X137301677Y-50712000D01*
X137301677Y-60276000D02*
X137301677Y-56734000D01*
X137341677Y-54254000D02*
X137341677Y-50697000D01*
X137341677Y-60291000D02*
X137341677Y-56734000D01*
X137381677Y-54254000D02*
X137381677Y-50684000D01*
X137381677Y-60304000D02*
X137381677Y-56734000D01*
X137421677Y-54254000D02*
X137421677Y-50670000D01*
X137421677Y-60318000D02*
X137421677Y-56734000D01*
X137461677Y-54254000D02*
X137461677Y-50657000D01*
X137461677Y-60331000D02*
X137461677Y-56734000D01*
X137501677Y-54254000D02*
X137501677Y-50645000D01*
X137501677Y-60343000D02*
X137501677Y-56734000D01*
X137541677Y-54254000D02*
X137541677Y-50633000D01*
X137541677Y-60355000D02*
X137541677Y-56734000D01*
X137581677Y-54254000D02*
X137581677Y-50621000D01*
X137581677Y-60367000D02*
X137581677Y-56734000D01*
X137621677Y-54254000D02*
X137621677Y-50609000D01*
X137621677Y-60379000D02*
X137621677Y-56734000D01*
X137661677Y-54254000D02*
X137661677Y-50598000D01*
X137661677Y-60390000D02*
X137661677Y-56734000D01*
X137701677Y-54254000D02*
X137701677Y-50587000D01*
X137701677Y-60401000D02*
X137701677Y-56734000D01*
X137741677Y-54254000D02*
X137741677Y-50577000D01*
X137741677Y-60411000D02*
X137741677Y-56734000D01*
X137781677Y-60422000D02*
X137781677Y-50566000D01*
X137821677Y-60431000D02*
X137821677Y-50557000D01*
X137861677Y-60441000D02*
X137861677Y-50547000D01*
X137901677Y-60450000D02*
X137901677Y-50538000D01*
X137941677Y-60459000D02*
X137941677Y-50529000D01*
X137981677Y-60467000D02*
X137981677Y-50521000D01*
X138021677Y-60475000D02*
X138021677Y-50513000D01*
X138061677Y-60483000D02*
X138061677Y-50505000D01*
X138101677Y-60491000D02*
X138101677Y-50497000D01*
X138141677Y-60498000D02*
X138141677Y-50490000D01*
X138181677Y-60505000D02*
X138181677Y-50483000D01*
X138221677Y-60511000D02*
X138221677Y-50477000D01*
X138261677Y-60517000D02*
X138261677Y-50471000D01*
X138301677Y-60523000D02*
X138301677Y-50465000D01*
X138341677Y-60529000D02*
X138341677Y-50459000D01*
X138381677Y-60534000D02*
X138381677Y-50454000D01*
X138421677Y-60539000D02*
X138421677Y-50449000D01*
X138461677Y-60543000D02*
X138461677Y-50445000D01*
X138501677Y-60548000D02*
X138501677Y-50440000D01*
X138541677Y-60551000D02*
X138541677Y-50437000D01*
X138581677Y-60555000D02*
X138581677Y-50433000D01*
X138621677Y-60558000D02*
X138621677Y-50430000D01*
X138661677Y-60561000D02*
X138661677Y-50427000D01*
X138701677Y-60564000D02*
X138701677Y-50424000D01*
X138741677Y-60566000D02*
X138741677Y-50422000D01*
X138781677Y-60568000D02*
X138781677Y-50420000D01*
X138821677Y-60570000D02*
X138821677Y-50418000D01*
X138861677Y-60571000D02*
X138861677Y-50417000D01*
X138901677Y-60573000D02*
X138901677Y-50415000D01*
X138941677Y-60573000D02*
X138941677Y-50415000D01*
X138981677Y-60574000D02*
X138981677Y-50414000D01*
X139021677Y-60574000D02*
X139021677Y-50414000D01*
X144001323Y-58869000D02*
X144001323Y-57869000D01*
X144501323Y-58369000D02*
X143501323Y-58369000D01*
X144141677Y-55494000D02*
G75*
G02*
X133901677Y-55494000I-5120000J0D01*
G01*
X133901677Y-55494000D02*
G75*
G02*
X144141677Y-55494000I5120000J0D01*
G01*
%TO.C,PS1*%
X107102000Y-95634000D02*
X107102000Y-92634000D01*
X107342000Y-54274000D02*
X132962000Y-54274000D01*
X107342000Y-95394000D02*
X107342000Y-54274000D01*
X107342000Y-95394000D02*
X132962000Y-95394000D01*
X110102000Y-95634000D02*
X107102000Y-95634000D01*
X132962000Y-95394000D02*
X132962000Y-54274000D01*
%TD*%
M02*
