M48
; DRILL file {KiCad 9.0.2} date 2025-06-27T09:26:45+0200
; FORMAT={-:-/ absolute / metric / decimal}
; #@! TF.CreationDate,2025-06-27T09:26:45+02:00
; #@! TF.GenerationSoftware,Kicad,Pcbnew,9.0.2
; #@! TF.FileFunction,Plated,1,2,PTH
FMAT,2
METRIC
; #@! TA.AperFunction,Plated,PTH,ComponentDrill
T1C1.000
; #@! TA.AperFunction,Plated,PTH,ComponentDrill
T2C1.200
; #@! TA.AperFunction,Plated,PTH,ComponentDrill
T3C1.400
; #@! TA.AperFunction,Plated,PTH,ComponentDrill
T4C1.600
%
G90
G05
T1
X80.48Y-70.388
X80.48Y-75.388
X112.46Y-114.93
X115.0Y-114.93
X127.978Y-114.93
X130.518Y-114.93
X133.058Y-114.93
X136.522Y-55.494
X141.522Y-55.494
X141.856Y-45.588
X141.856Y-65.4
X146.856Y-45.588
X146.856Y-65.4
X147.79Y-103.5
X147.79Y-106.04
X147.79Y-108.58
X147.79Y-111.12
T2
X54.319Y-50.245
X54.319Y-56.245
X54.319Y-98.245
X54.319Y-104.245
X66.256Y-78.468
X66.256Y-83.548
X73.876Y-78.468
X73.876Y-83.548
X76.416Y-126.402
X76.416Y-133.902
X87.919Y-44.245
X87.919Y-62.245
X87.919Y-92.245
X87.919Y-110.245
X96.482Y-72.178
X96.482Y-79.678
X96.482Y-126.402
X96.482Y-133.902
X111.152Y-58.034
X117.152Y-91.634
X123.152Y-91.634
X129.152Y-58.034
T3
X55.928Y-72.507
X55.928Y-77.587
X55.928Y-82.667
X56.182Y-126.355
X56.182Y-131.435
X56.182Y-136.515
X99.951Y-91.313
X99.951Y-96.393
X99.951Y-106.045
X99.951Y-111.125
X100.206Y-43.053
X100.206Y-48.133
X100.206Y-57.272
X100.206Y-62.352
X110.102Y-45.842
X111.468Y-104.389
X115.182Y-45.842
X116.548Y-104.389
X124.839Y-45.928
X125.418Y-104.429
X129.919Y-45.928
X130.498Y-104.429
X135.578Y-104.429
X136.614Y-89.784
X141.694Y-89.784
X146.774Y-89.784
T4
X54.318Y-117.724
X59.398Y-117.724
X64.478Y-117.724
X69.558Y-117.724
X111.214Y-121.534
X111.214Y-126.614
X111.214Y-131.694
X111.214Y-136.774
X116.294Y-121.534
X116.294Y-126.614
X116.294Y-131.694
X116.294Y-136.774
X121.374Y-121.534
X121.374Y-126.614
X121.374Y-131.694
X121.374Y-136.774
X126.454Y-121.534
X126.454Y-126.614
X126.454Y-131.694
X126.454Y-136.774
X131.534Y-121.534
X131.534Y-126.614
X131.534Y-131.694
X131.534Y-136.774
X136.614Y-121.534
X136.614Y-126.614
X136.614Y-131.694
X136.614Y-136.774
X141.694Y-121.534
X141.694Y-126.614
X141.694Y-131.694
X141.694Y-136.774
X143.345Y-99.944
X143.345Y-105.024
X143.345Y-110.104
X143.345Y-115.184
X146.774Y-121.534
X146.774Y-126.614
X146.774Y-131.694
X146.774Y-136.774
M30
