M48
; DRILL file {KiCad 9.0.2} date 2025-06-27T09:24:14+0200
; FORMAT={-:-/ absolute / metric / decimal}
; #@! TF.CreationDate,2025-06-27T09:24:14+02:00
; #@! TF.GenerationSoftware,Kicad,Pcbnew,9.0.2
; #@! TF.FileFunction,Plated,1,2,PTH
FMAT,2
METRIC
; #@! TA.AperFunction,Plated,PTH,ComponentDrill
T1C1.000
; #@! TA.AperFunction,Plated,PTH,ComponentDrill
T2C1.200
; #@! TA.AperFunction,Plated,PTH,ComponentDrill
T3C1.400
; #@! TA.AperFunction,Plated,PTH,ComponentDrill
T4C1.500
; #@! TA.AperFunction,Plated,PTH,ComponentDrill
T5C1.600
%
G90
G05
T1
X68.558Y-53.5
X72.258Y-46.0
X76.885Y-77.368
X76.885Y-82.368
X80.56Y-104.465
X80.56Y-109.465
X88.315Y-71.875
X88.315Y-76.875
X99.745Y-77.59
X99.745Y-82.59
X110.976Y-125.71
X114.676Y-118.21
X124.047Y-62.143
X129.047Y-62.143
T2
X64.05Y-95.715
X64.05Y-100.795
X71.67Y-95.715
X71.67Y-100.795
X76.416Y-126.402
X76.416Y-133.902
X78.282Y-42.0
X78.282Y-57.0
X96.435Y-99.453
X96.435Y-106.953
X96.435Y-126.453
X96.435Y-133.953
X110.66Y-135.422
X112.499Y-74.429
X118.499Y-108.029
X124.499Y-108.029
X125.66Y-135.422
X130.499Y-74.429
T3
X50.832Y-46.955
X50.832Y-52.035
X51.182Y-72.406
X51.182Y-77.486
X51.182Y-82.566
X51.182Y-99.406
X51.182Y-104.486
X51.182Y-109.566
X51.182Y-126.355
X51.182Y-131.435
X51.182Y-136.515
X102.579Y-43.987
X102.579Y-49.067
X111.434Y-61.254
X116.514Y-61.254
X136.448Y-61.254
X141.528Y-61.254
T4
X61.772Y-42.966
X61.772Y-55.566
X130.325Y-135.295
X142.925Y-135.295
T5
X50.46Y-64.0
X50.46Y-91.0
X50.46Y-118.0
X55.54Y-64.0
X55.54Y-91.0
X55.54Y-118.0
X62.7Y-120.645
X62.7Y-125.725
X62.7Y-130.805
X62.7Y-135.885
X82.46Y-64.0
X82.46Y-91.0
X82.46Y-118.0
X87.54Y-64.0
X87.54Y-91.0
X87.54Y-118.0
X113.842Y-44.236
X113.842Y-49.316
X141.528Y-44.236
X141.528Y-49.316
X141.909Y-85.13
X141.909Y-90.21
X141.909Y-117.134
X141.909Y-122.214
T5
G00X83.894Y-43.052
M15
G01X83.894Y-42.452
M16
G05
G00X83.894Y-56.552
M15
G01X83.894Y-55.952
M16
G05
G00X85.394Y-45.552
M15
G01X85.394Y-44.952
M16
G05
G00X85.394Y-54.052
M15
G01X85.394Y-53.452
M16
G05
G00X92.394Y-45.552
M15
G01X92.394Y-44.952
M16
G05
G00X92.394Y-54.052
M15
G01X92.394Y-53.452
M16
G05
G00X93.894Y-43.052
M15
G01X93.894Y-42.452
M16
G05
G00X93.894Y-56.552
M15
G01X93.894Y-55.952
M16
G05
G00X121.235Y-115.309
M15
G01X120.635Y-115.309
M16
G05
G00X121.235Y-125.309
M15
G01X120.635Y-125.309
M16
G05
G00X123.735Y-116.809
M15
G01X123.135Y-116.809
M16
G05
G00X123.735Y-123.809
M15
G01X123.135Y-123.809
M16
G05
G00X132.235Y-116.809
M15
G01X131.635Y-116.809
M16
G05
G00X132.235Y-123.809
M15
G01X131.635Y-123.809
M16
G05
G00X134.735Y-115.309
M15
G01X134.135Y-115.309
M16
G05
G00X134.735Y-125.309
M15
G01X134.135Y-125.309
M16
G05
M30
