%TF.GenerationSoftware,KiCad,Pcbnew,9.0.2*%
%TF.CreationDate,2025-06-27T09:24:05+02:00*%
%TF.ProjectId,led_driver_220v_p2,6c65645f-6472-4697-9665-725f32323076,rev?*%
%TF.SameCoordinates,Original*%
%TF.FileFunction,Profile,NP*%
%FSLAX46Y46*%
G04 Gerber Fmt 4.6, Leading zero omitted, Abs format (unit mm)*
G04 Created by KiCad (PCBNEW 9.0.2) date 2025-06-27 09:24:05*
%MOMM*%
%LPD*%
G01*
G04 APERTURE LIST*
%TA.AperFunction,Profile*%
%ADD10C,0.050000*%
%TD*%
%TA.AperFunction,Profile*%
%ADD11C,0.100000*%
%TD*%
G04 APERTURE END LIST*
D10*
X109000000Y-53000000D02*
X109000000Y-48500000D01*
X109000000Y-48500000D02*
G75*
G02*
X111000000Y-48500000I1000000J0D01*
G01*
X108000000Y-102500000D02*
X108000000Y-125500000D01*
X145000000Y-55000000D02*
X130000000Y-55000000D01*
X45000000Y-86000000D02*
X73500000Y-86000000D01*
X108000000Y-71500000D02*
G75*
G02*
X106000000Y-71500000I-1000000J0D01*
G01*
D11*
X145000000Y-40000000D02*
X145000000Y-53000000D01*
D10*
X45000000Y-88000000D02*
X73500000Y-88000000D01*
X108000000Y-129500000D02*
X108000000Y-140000000D01*
X73500000Y-113000000D02*
G75*
G02*
X73500000Y-115000000I0J-1000000D01*
G01*
X77500000Y-88000000D02*
X106000000Y-88000000D01*
X106000000Y-61000000D02*
X106000000Y-71500000D01*
X108000000Y-98500000D02*
G75*
G02*
X106000000Y-98500000I-1000000J0D01*
G01*
X45000000Y-140000000D02*
X45000000Y-115000000D01*
X45000000Y-61000000D02*
X45000000Y-86000000D01*
X130000000Y-53000000D02*
X145000000Y-53000000D01*
X106000000Y-102500000D02*
G75*
G02*
X108000000Y-102500000I1000000J0D01*
G01*
X106000000Y-102500000D02*
X106000000Y-113000000D01*
X77500000Y-113000000D02*
X106000000Y-113000000D01*
X107000000Y-53000000D02*
X109000000Y-53000000D01*
X73500000Y-59000000D02*
G75*
G02*
X73500000Y-61000000I0J-1000000D01*
G01*
X106000000Y-75500000D02*
G75*
G02*
X108000000Y-75500000I1000000J0D01*
G01*
X106000000Y-59000000D02*
X106000000Y-54000000D01*
X77500000Y-61000000D02*
X106000000Y-61000000D01*
X73500000Y-86000000D02*
G75*
G02*
X73500000Y-88000000I0J-1000000D01*
G01*
X108000000Y-140000000D02*
X145000000Y-140000000D01*
X130000000Y-55000000D02*
G75*
G02*
X130000000Y-53000000I0J1000000D01*
G01*
X77500000Y-115000000D02*
G75*
G02*
X77500000Y-113000000I0J1000000D01*
G01*
X111000000Y-44500000D02*
G75*
G02*
X109000000Y-44500000I-1000000J0D01*
G01*
X73500000Y-113000000D02*
X45000000Y-113000000D01*
X109000000Y-44500000D02*
X109000000Y-40000000D01*
X111000000Y-44500000D02*
X111000000Y-40000000D01*
X109000000Y-40000000D02*
X45000000Y-40000000D01*
X77500000Y-59000000D02*
X106000000Y-59000000D01*
D11*
X73500000Y-59000000D02*
X45000000Y-59000000D01*
D10*
X108000000Y-125500000D02*
G75*
G02*
X106000000Y-125500000I-1000000J0D01*
G01*
X106000000Y-129500000D02*
G75*
G02*
X108000000Y-129500000I1000000J0D01*
G01*
X106000000Y-54000000D02*
G75*
G02*
X107000000Y-53000000I1000000J0D01*
G01*
X45000000Y-61000000D02*
X73500000Y-61000000D01*
X126000000Y-53000000D02*
G75*
G02*
X126000000Y-55000000I0J-1000000D01*
G01*
X106000000Y-140000000D02*
X45000000Y-140000000D01*
X145000000Y-140000000D02*
X145000000Y-55000000D01*
X108000000Y-75500000D02*
X108000000Y-98500000D01*
X111000000Y-53000000D02*
X126000000Y-53000000D01*
X77500000Y-61000000D02*
G75*
G02*
X77500000Y-59000000I0J1000000D01*
G01*
X77500000Y-88000000D02*
G75*
G02*
X77500000Y-86000000I0J1000000D01*
G01*
X126000000Y-55000000D02*
X108000000Y-55000000D01*
X106000000Y-129500000D02*
X106000000Y-140000000D01*
X77500000Y-115000000D02*
X106000000Y-115000000D01*
X111000000Y-48500000D02*
X111000000Y-53000000D01*
X77500000Y-86000000D02*
X106000000Y-86000000D01*
X106000000Y-75500000D02*
X106000000Y-86000000D01*
X111000000Y-40000000D02*
X145000000Y-40000000D01*
X45000000Y-113000000D02*
X45000000Y-88000000D01*
X108000000Y-55000000D02*
X108000000Y-71500000D01*
X106000000Y-115000000D02*
X106000000Y-125500000D01*
X45000000Y-115000000D02*
X73500000Y-115000000D01*
D11*
X45000000Y-59000000D02*
X45000000Y-40000000D01*
D10*
X106000000Y-88000000D02*
X106000000Y-98500000D01*
M02*
