%TF.GenerationSoftware,KiCad,Pcbnew,9.0.2*%
%TF.CreationDate,2025-06-27T09:24:05+02:00*%
%TF.ProjectId,led_driver_220v_p2,6c65645f-6472-4697-9665-725f32323076,rev?*%
%TF.SameCoordinates,Original*%
%TF.FileFunction,Copper,L1,Top*%
%TF.FilePolarity,Positive*%
%FSLAX46Y46*%
G04 Gerber Fmt 4.6, Leading zero omitted, Abs format (unit mm)*
G04 Created by KiCad (PCBNEW 9.0.2) date 2025-06-27 09:24:05*
%MOMM*%
%LPD*%
G01*
G04 APERTURE LIST*
G04 Aperture macros list*
%AMRoundRect*
0 Rectangle with rounded corners*
0 $1 Rounding radius*
0 $2 $3 $4 $5 $6 $7 $8 $9 X,Y pos of 4 corners*
0 Add a 4 corners polygon primitive as box body*
4,1,4,$2,$3,$4,$5,$6,$7,$8,$9,$2,$3,0*
0 Add four circle primitives for the rounded corners*
1,1,$1+$1,$2,$3*
1,1,$1+$1,$4,$5*
1,1,$1+$1,$6,$7*
1,1,$1+$1,$8,$9*
0 Add four rect primitives between the rounded corners*
20,1,$1+$1,$2,$3,$4,$5,0*
20,1,$1+$1,$4,$5,$6,$7,0*
20,1,$1+$1,$6,$7,$8,$9,0*
20,1,$1+$1,$8,$9,$2,$3,0*%
G04 Aperture macros list end*
%TA.AperFunction,ComponentPad*%
%ADD10RoundRect,0.288462X-1.211538X1.211538X-1.211538X-1.211538X1.211538X-1.211538X1.211538X1.211538X0*%
%TD*%
%TA.AperFunction,ComponentPad*%
%ADD11C,3.000000*%
%TD*%
%TA.AperFunction,ComponentPad*%
%ADD12RoundRect,0.250000X0.750000X-0.750000X0.750000X0.750000X-0.750000X0.750000X-0.750000X-0.750000X0*%
%TD*%
%TA.AperFunction,ComponentPad*%
%ADD13C,2.000000*%
%TD*%
%TA.AperFunction,ComponentPad*%
%ADD14RoundRect,0.307693X-1.292307X-1.292307X1.292307X-1.292307X1.292307X1.292307X-1.292307X1.292307X0*%
%TD*%
%TA.AperFunction,ComponentPad*%
%ADD15C,3.500000*%
%TD*%
%TA.AperFunction,ComponentPad*%
%ADD16R,3.200000X3.200000*%
%TD*%
%TA.AperFunction,ComponentPad*%
%ADD17C,3.200000*%
%TD*%
%TA.AperFunction,ComponentPad*%
%ADD18RoundRect,0.250001X0.949999X-0.949999X0.949999X0.949999X-0.949999X0.949999X-0.949999X-0.949999X0*%
%TD*%
%TA.AperFunction,ComponentPad*%
%ADD19C,2.400000*%
%TD*%
%TA.AperFunction,ComponentPad*%
%ADD20R,3.500000X2.700000*%
%TD*%
%TA.AperFunction,ComponentPad*%
%ADD21O,3.500000X2.700000*%
%TD*%
%TA.AperFunction,ComponentPad*%
%ADD22RoundRect,0.354168X1.345832X-1.345832X1.345832X1.345832X-1.345832X1.345832X-1.345832X-1.345832X0*%
%TD*%
%TA.AperFunction,ComponentPad*%
%ADD23C,3.400000*%
%TD*%
%TA.AperFunction,ComponentPad*%
%ADD24RoundRect,0.250000X-0.750000X-0.750000X0.750000X-0.750000X0.750000X0.750000X-0.750000X0.750000X0*%
%TD*%
%TA.AperFunction,SMDPad,CuDef*%
%ADD25R,2.500000X1.900000*%
%TD*%
%TA.AperFunction,ComponentPad*%
%ADD26RoundRect,0.288462X1.211538X1.211538X-1.211538X1.211538X-1.211538X-1.211538X1.211538X-1.211538X0*%
%TD*%
%TA.AperFunction,SMDPad,CuDef*%
%ADD27RoundRect,0.250000X-1.450000X0.537500X-1.450000X-0.537500X1.450000X-0.537500X1.450000X0.537500X0*%
%TD*%
%TA.AperFunction,ComponentPad*%
%ADD28RoundRect,0.307693X-1.292307X1.292307X-1.292307X-1.292307X1.292307X-1.292307X1.292307X1.292307X0*%
%TD*%
%TA.AperFunction,ComponentPad*%
%ADD29RoundRect,0.288462X1.211538X-1.211538X1.211538X1.211538X-1.211538X1.211538X-1.211538X-1.211538X0*%
%TD*%
%TA.AperFunction,ComponentPad*%
%ADD30O,3.600000X3.000000*%
%TD*%
%TA.AperFunction,ComponentPad*%
%ADD31O,3.000000X3.000000*%
%TD*%
%TA.AperFunction,ComponentPad*%
%ADD32O,3.000000X3.600000*%
%TD*%
%TA.AperFunction,ComponentPad*%
%ADD33RoundRect,0.307693X1.292307X-1.292307X1.292307X1.292307X-1.292307X1.292307X-1.292307X-1.292307X0*%
%TD*%
%TA.AperFunction,Conductor*%
%ADD34C,1.500000*%
%TD*%
%TA.AperFunction,Conductor*%
%ADD35C,2.000000*%
%TD*%
%TA.AperFunction,Conductor*%
%ADD36C,1.000000*%
%TD*%
G04 APERTURE END LIST*
D10*
%TO.P,J4,1,Pin_1*%
%TO.N,/High Voltage/L1*%
X51182500Y-72406000D03*
D11*
%TO.P,J4,2,Pin_2*%
%TO.N,/High Voltage/PE1*%
X51182500Y-77486000D03*
%TO.P,J4,3,Pin_3*%
%TO.N,/High Voltage/N1*%
X51182500Y-82566000D03*
%TD*%
D10*
%TO.P,J5,1,Pin_1*%
%TO.N,/High Voltage/L2*%
X51182500Y-99406000D03*
D11*
%TO.P,J5,2,Pin_2*%
%TO.N,/High Voltage/PE2*%
X51182500Y-104486000D03*
%TO.P,J5,3,Pin_3*%
%TO.N,/High Voltage/N2*%
X51182500Y-109566000D03*
%TD*%
D12*
%TO.P,C1,1*%
%TO.N,/High Voltage/DC1+230V*%
X99745000Y-82590000D03*
D13*
%TO.P,C1,2*%
%TO.N,/High Voltage/DC1-230V*%
X99745000Y-77590000D03*
%TD*%
D14*
%TO.P,J6,1,Pin_1*%
%TO.N,/High Voltage/L1*%
X50460000Y-64000000D03*
D15*
%TO.P,J6,2,Pin_2*%
%TO.N,/High Voltage/N1*%
X55540000Y-64000000D03*
%TD*%
D16*
%TO.P,D3,1,+*%
%TO.N,/High Voltage/DC3+230V*%
X62700000Y-135885000D03*
D17*
%TO.P,D3,2*%
%TO.N,/High Voltage/N3*%
X62700000Y-130805000D03*
%TO.P,D3,3*%
%TO.N,/High Voltage/L3*%
X62700000Y-125725000D03*
%TO.P,D3,4,-*%
%TO.N,/High Voltage/DC3-230V*%
X62700000Y-120645000D03*
%TD*%
D18*
%TO.P,C2,1*%
%TO.N,/High Voltage/DC2+230V*%
X96435000Y-106952780D03*
D19*
%TO.P,C2,2*%
%TO.N,/High Voltage/DC2-230V*%
X96435000Y-99452780D03*
%TD*%
D20*
%TO.P,PS1,1,AC/L*%
%TO.N,/High Voltage/TOUT_L*%
X118499500Y-108029000D03*
D21*
%TO.P,PS1,2,AC/N*%
%TO.N,/High Voltage/TOUT_N*%
X124499500Y-108029000D03*
%TO.P,PS1,3,-Vout*%
%TO.N,/High Voltage/DC-GND*%
X112499500Y-74429000D03*
%TO.P,PS1,4,+Vout*%
%TO.N,/High Voltage/DC+5V*%
X130499500Y-74429000D03*
%TD*%
D10*
%TO.P,J14,1,Pin_1*%
%TO.N,/High Voltage/L4*%
X50832500Y-46955000D03*
D11*
%TO.P,J14,2,Pin_2*%
%TO.N,/High Voltage/N4*%
X50832500Y-52035000D03*
%TD*%
D22*
%TO.P,C6,1*%
%TO.N,/High Voltage/DC3+230V*%
X76416000Y-133901780D03*
D23*
%TO.P,C6,2*%
%TO.N,/High Voltage/DC3-230V*%
X76416000Y-126401780D03*
%TD*%
D11*
%TO.P,F2,1*%
%TO.N,/High Voltage/L4*%
X61772000Y-42966000D03*
%TO.P,F2,2*%
%TO.N,/High Voltage/TIN_L4*%
X61772000Y-55566000D03*
%TD*%
D24*
%TO.P,C8,1*%
%TO.N,/High Voltage/DC+5V*%
X124047323Y-62143000D03*
D13*
%TO.P,C8,2*%
%TO.N,/High Voltage/DC-GND*%
X129047323Y-62143000D03*
%TD*%
D19*
%TO.P,RV1,1*%
%TO.N,/High Voltage/TIN_L*%
X110976000Y-125710000D03*
%TO.P,RV1,2*%
%TO.N,/High Voltage/NP*%
X114676000Y-118210000D03*
%TD*%
D25*
%TO.P,D4,1,+*%
%TO.N,/High Voltage/+5*%
X124510000Y-44744000D03*
%TO.P,D4,2,-*%
%TO.N,/High Voltage/-5*%
X124510000Y-48744000D03*
%TO.P,D4,3*%
%TO.N,/High Voltage/N5*%
X130460000Y-48744000D03*
%TO.P,D4,4*%
%TO.N,/High Voltage/L5*%
X130460000Y-44744000D03*
%TD*%
D26*
%TO.P,J12,1,Pin_1*%
%TO.N,/High Voltage/DC+5V*%
X116514000Y-61254000D03*
D11*
%TO.P,J12,2,Pin_2*%
%TO.N,/High Voltage/DC-GND*%
X111434000Y-61254000D03*
%TD*%
D25*
%TO.P,D1,1,+*%
%TO.N,/High Voltage/DC1+230V*%
X68430000Y-76335000D03*
%TO.P,D1,2,-*%
%TO.N,/High Voltage/DC1-230V*%
X68430000Y-72335000D03*
%TO.P,D1,3*%
%TO.N,/High Voltage/N1*%
X62480000Y-72335000D03*
%TO.P,D1,4*%
%TO.N,/High Voltage/L1*%
X62480000Y-76335000D03*
%TD*%
D27*
%TO.P,C9,1*%
%TO.N,/High Voltage/L5*%
X135178000Y-44600000D03*
%TO.P,C9,2*%
%TO.N,/High Voltage/N5*%
X135178000Y-48875000D03*
%TD*%
D22*
%TO.P,C3,1*%
%TO.N,/High Voltage/DC3+230V*%
X96435000Y-133952780D03*
D23*
%TO.P,C3,2*%
%TO.N,/High Voltage/DC3-230V*%
X96435000Y-126452780D03*
%TD*%
D28*
%TO.P,J15,1,Pin_1*%
%TO.N,/High Voltage/L5*%
X141528000Y-44236000D03*
D15*
%TO.P,J15,2,Pin_2*%
%TO.N,/High Voltage/N5*%
X141528000Y-49316000D03*
%TD*%
D14*
%TO.P,J9,1,Pin_1*%
%TO.N,/High Voltage/DC1+230V*%
X82460000Y-64000000D03*
D15*
%TO.P,J9,2,Pin_2*%
%TO.N,/High Voltage/DC1-230V*%
X87540000Y-64000000D03*
%TD*%
D14*
%TO.P,J11,1,Pin_1*%
%TO.N,/High Voltage/DC3+230V*%
X82460000Y-118000000D03*
D15*
%TO.P,J11,2,Pin_2*%
%TO.N,/High Voltage/DC3-230V*%
X87540000Y-118000000D03*
%TD*%
D26*
%TO.P,J13,1,Pin_1*%
%TO.N,/High Voltage/DCP+230V*%
X141528000Y-61254000D03*
D11*
%TO.P,J13,2,Pin_2*%
%TO.N,/High Voltage/DCP-230V*%
X136448000Y-61254000D03*
%TD*%
D19*
%TO.P,X2,1*%
%TO.N,/High Voltage/TIN_L4*%
X78282000Y-42000000D03*
%TO.P,X2,2*%
%TO.N,/High Voltage/N4*%
X78282000Y-57000000D03*
%TD*%
%TO.P,X1,1*%
%TO.N,/High Voltage/TIN_L*%
X125660000Y-135422000D03*
%TO.P,X1,2*%
%TO.N,/High Voltage/NP*%
X110660000Y-135422000D03*
%TD*%
D29*
%TO.P,J16,1,Pin_1*%
%TO.N,/High Voltage/TOUT_L4*%
X102579500Y-49067000D03*
D11*
%TO.P,J16,2,Pin_2*%
%TO.N,/High Voltage/TOUT_N4*%
X102579500Y-43987000D03*
%TD*%
D27*
%TO.P,C10,1*%
%TO.N,/High Voltage/+5*%
X119684000Y-44600000D03*
%TO.P,C10,2*%
%TO.N,/High Voltage/-5*%
X119684000Y-48875000D03*
%TD*%
D30*
%TO.P,L1,1,1*%
%TO.N,/High Voltage/TIN_L*%
X131935000Y-123809000D03*
X134435000Y-125309000D03*
%TO.P,L1,2,2*%
%TO.N,/High Voltage/TOUT_L*%
X134435000Y-115309000D03*
X131935000Y-116809000D03*
%TO.P,L1,3,3*%
%TO.N,/High Voltage/NP*%
X123435000Y-123809000D03*
X120935000Y-125309000D03*
%TO.P,L1,4,4*%
%TO.N,/High Voltage/TOUT_N*%
X120935000Y-115309000D03*
X123435000Y-116809000D03*
%TD*%
D14*
%TO.P,J7,1,Pin_1*%
%TO.N,/High Voltage/L2*%
X50460000Y-91000000D03*
D15*
%TO.P,J7,2,Pin_2*%
%TO.N,/High Voltage/N2*%
X55540000Y-91000000D03*
%TD*%
D12*
%TO.P,C7,1*%
%TO.N,/High Voltage/DC1+230V*%
X76885000Y-82367677D03*
D13*
%TO.P,C7,2*%
%TO.N,/High Voltage/DC1-230V*%
X76885000Y-77367677D03*
%TD*%
D31*
%TO.P,D2,1,+*%
%TO.N,/High Voltage/DC2+230V*%
X71670000Y-100795000D03*
%TO.P,D2,2,-*%
%TO.N,/High Voltage/DC2-230V*%
X71670000Y-95715000D03*
%TO.P,D2,3*%
%TO.N,/High Voltage/N2*%
X64050000Y-95715000D03*
%TO.P,D2,4*%
%TO.N,/High Voltage/L2*%
X64050000Y-100795000D03*
%TD*%
D28*
%TO.P,J17,1,Pin_1*%
%TO.N,/High Voltage/+5*%
X113842000Y-44236000D03*
D15*
%TO.P,J17,2,Pin_2*%
%TO.N,/High Voltage/-5*%
X113842000Y-49316000D03*
%TD*%
D32*
%TO.P,L2,1,1*%
%TO.N,/High Voltage/TIN_L4*%
X85394000Y-53752000D03*
X83894000Y-56252000D03*
%TO.P,L2,2,2*%
%TO.N,/High Voltage/TOUT_L4*%
X93894000Y-56252000D03*
X92394000Y-53752000D03*
%TO.P,L2,3,3*%
%TO.N,/High Voltage/N4*%
X85394000Y-45252000D03*
X83894000Y-42752000D03*
%TO.P,L2,4,4*%
%TO.N,/High Voltage/TOUT_N4*%
X93894000Y-42752000D03*
X92394000Y-45252000D03*
%TD*%
D12*
%TO.P,C5,1*%
%TO.N,/High Voltage/DC2+230V*%
X80560000Y-109465000D03*
D13*
%TO.P,C5,2*%
%TO.N,/High Voltage/DC2-230V*%
X80560000Y-104465000D03*
%TD*%
D10*
%TO.P,J1,1,Pin_1*%
%TO.N,/High Voltage/L3*%
X51182500Y-126355000D03*
D11*
%TO.P,J1,2,Pin_2*%
%TO.N,/High Voltage/PE3*%
X51182500Y-131435000D03*
%TO.P,J1,3,Pin_3*%
%TO.N,/High Voltage/N3*%
X51182500Y-136515000D03*
%TD*%
D19*
%TO.P,RV2,1*%
%TO.N,/High Voltage/TIN_L4*%
X72258000Y-46000000D03*
%TO.P,RV2,2*%
%TO.N,/High Voltage/N4*%
X68558000Y-53500000D03*
%TD*%
D33*
%TO.P,J3,1,Pin_1*%
%TO.N,/High Voltage/DCP+230V*%
X141909000Y-90210000D03*
D15*
%TO.P,J3,2,Pin_2*%
%TO.N,/High Voltage/DCP-230V*%
X141909000Y-85130000D03*
%TD*%
D14*
%TO.P,J10,1,Pin_1*%
%TO.N,/High Voltage/DC2+230V*%
X82460000Y-91000000D03*
D15*
%TO.P,J10,2,Pin_2*%
%TO.N,/High Voltage/DC2-230V*%
X87540000Y-91000000D03*
%TD*%
D11*
%TO.P,F1,1*%
%TO.N,/High Voltage/LP*%
X142925000Y-135295000D03*
%TO.P,F1,2*%
%TO.N,/High Voltage/TIN_L*%
X130325000Y-135295000D03*
%TD*%
D33*
%TO.P,J2,1,Pin_1*%
%TO.N,/High Voltage/LP*%
X141909000Y-122214000D03*
D15*
%TO.P,J2,2,Pin_2*%
%TO.N,/High Voltage/NP*%
X141909000Y-117134000D03*
%TD*%
D12*
%TO.P,C4,1*%
%TO.N,/High Voltage/DC1+230V*%
X88315000Y-76875000D03*
D13*
%TO.P,C4,2*%
%TO.N,/High Voltage/DC1-230V*%
X88315000Y-71875000D03*
%TD*%
D14*
%TO.P,J8,1,Pin_1*%
%TO.N,/High Voltage/L3*%
X50460000Y-118000000D03*
D15*
%TO.P,J8,2,Pin_2*%
%TO.N,/High Voltage/N3*%
X55540000Y-118000000D03*
%TD*%
D34*
%TO.N,/High Voltage/DC1+230V*%
X97205000Y-82590000D02*
X99745000Y-82590000D01*
X80917323Y-82367677D02*
X86410000Y-76875000D01*
X76885000Y-82367677D02*
X80917323Y-82367677D01*
X68430000Y-81120000D02*
X69677677Y-82367677D01*
X86410000Y-76875000D02*
X88315000Y-76875000D01*
X88315000Y-76875000D02*
X91490000Y-76875000D01*
X91490000Y-76875000D02*
X97205000Y-82590000D01*
X69677677Y-82367677D02*
X76885000Y-82367677D01*
X68430000Y-76335000D02*
X68430000Y-81120000D01*
%TO.N,/High Voltage/DC1-230V*%
X88235000Y-71795000D02*
X88315000Y-71875000D01*
X88315000Y-71875000D02*
X97285000Y-71875000D01*
X68430000Y-72335000D02*
X72345000Y-72335000D01*
X74837677Y-77367677D02*
X76885000Y-77367677D01*
X73710000Y-73700000D02*
X73710000Y-76240000D01*
X97285000Y-71875000D02*
X99745000Y-74335000D01*
X76885000Y-77367677D02*
X78614823Y-77367677D01*
X78614823Y-77367677D02*
X80695000Y-75287500D01*
X80695000Y-75287500D02*
X80695000Y-73700000D01*
X73710000Y-76240000D02*
X74837677Y-77367677D01*
X80695000Y-73700000D02*
X82600000Y-71795000D01*
X72345000Y-72335000D02*
X73710000Y-73700000D01*
X82600000Y-71795000D02*
X88235000Y-71795000D01*
X99745000Y-74335000D02*
X99745000Y-77590000D01*
D35*
%TO.N,/High Voltage/DC2-230V*%
X87962220Y-99452780D02*
X96435000Y-99452780D01*
X80560000Y-100870000D02*
X86545000Y-100870000D01*
X87540000Y-99030560D02*
X87540000Y-91000000D01*
X71670000Y-95715000D02*
X75405000Y-95715000D01*
X75405000Y-95715000D02*
X80560000Y-100870000D01*
X80560000Y-100870000D02*
X80560000Y-104465000D01*
X86545000Y-100870000D02*
X87962220Y-99452780D01*
X87962220Y-99452780D02*
X87540000Y-99030560D01*
%TO.N,/High Voltage/DC2+230V*%
X76455000Y-109465000D02*
X80560000Y-109465000D01*
X71670000Y-100795000D02*
X71670000Y-104680000D01*
X71670000Y-104680000D02*
X76455000Y-109465000D01*
X88717220Y-106952780D02*
X96435000Y-106952780D01*
X80560000Y-109465000D02*
X86205000Y-109465000D01*
X86205000Y-109465000D02*
X88717220Y-106952780D01*
%TO.N,/High Voltage/DC3+230V*%
X82460000Y-130739780D02*
X79298000Y-133901780D01*
X82460000Y-118000000D02*
X82460000Y-130739780D01*
X79298000Y-133901780D02*
X96384000Y-133901780D01*
X71674220Y-133901780D02*
X76416000Y-133901780D01*
X76416000Y-133901780D02*
X79298000Y-133901780D01*
X62700000Y-135885000D02*
X69691000Y-135885000D01*
X69691000Y-135885000D02*
X71674220Y-133901780D01*
X96384000Y-133901780D02*
X96435000Y-133952780D01*
D34*
%TO.N,/High Voltage/N1*%
X60200000Y-64000000D02*
X62480000Y-66280000D01*
X62480000Y-66280000D02*
X62480000Y-72335000D01*
X55540000Y-64000000D02*
X60200000Y-64000000D01*
%TO.N,/High Voltage/L1*%
X54636000Y-72406000D02*
X58565000Y-76335000D01*
X51182500Y-72406000D02*
X54636000Y-72406000D01*
X58565000Y-76335000D02*
X62480000Y-76335000D01*
D35*
%TO.N,/High Voltage/L2*%
X56871000Y-99406000D02*
X58260000Y-100795000D01*
X58260000Y-100795000D02*
X64050000Y-100795000D01*
X51182500Y-99406000D02*
X56871000Y-99406000D01*
%TO.N,/High Voltage/L3*%
X51182500Y-126355000D02*
X56564200Y-126355000D01*
X56564200Y-126355000D02*
X57194200Y-125725000D01*
X57194200Y-125725000D02*
X62700000Y-125725000D01*
D34*
%TO.N,/High Voltage/DC-GND*%
X129047323Y-62143000D02*
X129047323Y-67892677D01*
X127304000Y-69636000D02*
X122224000Y-69636000D01*
X129047323Y-67892677D02*
X127304000Y-69636000D01*
X122224000Y-69636000D02*
X117431000Y-74429000D01*
X117431000Y-74429000D02*
X112499500Y-74429000D01*
D35*
%TO.N,/High Voltage/TIN_L*%
X133435000Y-125309000D02*
X131935000Y-123809000D01*
X134435000Y-125309000D02*
X133435000Y-125309000D01*
X110976000Y-127976000D02*
X114612000Y-131612000D01*
X131935000Y-123809000D02*
X132935000Y-123809000D01*
X110976000Y-125710000D02*
X110976000Y-127976000D01*
X121850000Y-131612000D02*
X125660000Y-135422000D01*
X132935000Y-123809000D02*
X134435000Y-125309000D01*
X114612000Y-131612000D02*
X121850000Y-131612000D01*
%TO.N,/High Voltage/DCP-230V*%
X136448000Y-61254000D02*
X136448000Y-72176000D01*
X136448000Y-72176000D02*
X141909000Y-77637000D01*
X141909000Y-77637000D02*
X141909000Y-85130000D01*
%TO.N,/High Voltage/TOUT_N*%
X120935000Y-115309000D02*
X121935000Y-115309000D01*
X122435000Y-116809000D02*
X120935000Y-115309000D01*
X123435000Y-116809000D02*
X122435000Y-116809000D01*
X121935000Y-115309000D02*
X123435000Y-116809000D01*
%TO.N,/High Voltage/TOUT_L*%
X131935000Y-116809000D02*
X132935000Y-116809000D01*
X133435000Y-115309000D02*
X131935000Y-116809000D01*
X134435000Y-115309000D02*
X133435000Y-115309000D01*
X132935000Y-116809000D02*
X134435000Y-115309000D01*
%TO.N,/High Voltage/NP*%
X120935000Y-125309000D02*
X121935000Y-125309000D01*
X120935000Y-125309000D02*
X122435000Y-123809000D01*
X122435000Y-123809000D02*
X123435000Y-123809000D01*
X121935000Y-125309000D02*
X123435000Y-123809000D01*
%TO.N,/High Voltage/L4*%
X53898000Y-42966000D02*
X61772000Y-42966000D01*
X50832500Y-46031500D02*
X53898000Y-42966000D01*
X50832500Y-46955000D02*
X50832500Y-46031500D01*
%TO.N,/High Voltage/TIN_L4*%
X66344000Y-49316000D02*
X69660000Y-46000000D01*
X83894000Y-56252000D02*
X83894000Y-55252000D01*
X69660000Y-46000000D02*
X72258000Y-46000000D01*
X78282000Y-42000000D02*
X78282000Y-46640000D01*
X85394000Y-53752000D02*
X85394000Y-54752000D01*
X64058000Y-49316000D02*
X66344000Y-49316000D01*
X83894000Y-55252000D02*
X85394000Y-53752000D01*
X72258000Y-46000000D02*
X72258000Y-44264000D01*
X78282000Y-46640000D02*
X85394000Y-53752000D01*
X85394000Y-54752000D02*
X83894000Y-56252000D01*
X61772000Y-55566000D02*
X61772000Y-51602000D01*
X61772000Y-51602000D02*
X64058000Y-49316000D01*
X74522000Y-42000000D02*
X78282000Y-42000000D01*
X72258000Y-44264000D02*
X74522000Y-42000000D01*
%TO.N,/High Voltage/N4*%
X83894000Y-43752000D02*
X85394000Y-45252000D01*
X85394000Y-44252000D02*
X83894000Y-42752000D01*
X85394000Y-45252000D02*
X85394000Y-44252000D01*
X83894000Y-42752000D02*
X83894000Y-43752000D01*
%TO.N,/High Voltage/TOUT_N4*%
X97626000Y-42752000D02*
X98861000Y-43987000D01*
X93894000Y-43752000D02*
X92394000Y-45252000D01*
X92394000Y-44252000D02*
X93894000Y-42752000D01*
X93894000Y-42752000D02*
X93894000Y-43752000D01*
X98861000Y-43987000D02*
X102579500Y-43987000D01*
X93894000Y-42752000D02*
X97626000Y-42752000D01*
X92394000Y-45252000D02*
X92394000Y-44252000D01*
%TO.N,/High Voltage/TOUT_L4*%
X93894000Y-55252000D02*
X92394000Y-53752000D01*
X92394000Y-54752000D02*
X93894000Y-56252000D01*
X102579500Y-52531500D02*
X102579500Y-49067000D01*
X98859000Y-56252000D02*
X102579500Y-52531500D01*
X93894000Y-56252000D02*
X98859000Y-56252000D01*
X93894000Y-56252000D02*
X93894000Y-55252000D01*
X92394000Y-53752000D02*
X92394000Y-54752000D01*
D36*
%TO.N,/High Voltage/L5*%
X130460000Y-44744000D02*
X135034000Y-44744000D01*
X135178000Y-44600000D02*
X137862000Y-44600000D01*
X138226000Y-44236000D02*
X141528000Y-44236000D01*
X135034000Y-44744000D02*
X135178000Y-44600000D01*
X137862000Y-44600000D02*
X138226000Y-44236000D01*
%TO.N,/High Voltage/N5*%
X135178000Y-48875000D02*
X137785000Y-48875000D01*
X138226000Y-49316000D02*
X141528000Y-49316000D01*
X135047000Y-48744000D02*
X135178000Y-48875000D01*
X137785000Y-48875000D02*
X138226000Y-49316000D01*
X130460000Y-48744000D02*
X135047000Y-48744000D01*
%TO.N,/High Voltage/+5*%
X119684000Y-44600000D02*
X124366000Y-44600000D01*
X113842000Y-44236000D02*
X116636000Y-44236000D01*
X116636000Y-44236000D02*
X117000000Y-44600000D01*
X124366000Y-44600000D02*
X124510000Y-44744000D01*
X117000000Y-44600000D02*
X119684000Y-44600000D01*
%TO.N,/High Voltage/-5*%
X124379000Y-48875000D02*
X124510000Y-48744000D01*
X113842000Y-49316000D02*
X116382000Y-49316000D01*
X116382000Y-49316000D02*
X116823000Y-48875000D01*
X119684000Y-48875000D02*
X124379000Y-48875000D01*
X116823000Y-48875000D02*
X119684000Y-48875000D01*
%TD*%
M02*
